/* XPM */
static char *_b30ec494f844435d30e53947bd75f19RJaeKBHfgscWKNfJ[] = {
/* columns rows colors chars-per-pixel */
"64 64 174 2 ",
"-- c #None",
"   c #010101",
".  c #060904",
"X  c #090B05",
"o  c #060608",
"O  c #070909",
"+  c #0B0B0B",
"@  c #0C1103",
"#  c #0E1800",
"$  c #0E100A",
"%  c #111506",
"&  c #141B02",
"*  c #191F06",
"=  c #12150D",
"-  c #161A0B",
";  c #191D0D",
":  c #0F0F10",
">  c #0F1110",
",  c #131413",
"<  c #161813",
"1  c #1A1D13",
"2  c #161618",
"3  c #171819",
"4  c #1C1C1B",
"5  c #1B2301",
"6  c #1C220D",
"7  c #1F280C",
"8  c #1D2114",
"9  c #1F211A",
"0  c #202700",
"q  c #232A03",
"w  c #22270B",
"e  c #262B0F",
"r  c #212613",
"t  c #252A15",
"y  c #292E17",
"u  c #22241C",
"i  c #262A1B",
"p  c #292E1B",
"a  c #293116",
"s  c #2D321D",
"d  c #31371A",
"f  c #343B1E",
"g  c #1F1F21",
"h  c #201F20",
"j  c #1E2120",
"k  c #232423",
"l  c #272923",
"z  c #2A2C24",
"x  c #272729",
"c  c #2B2B2B",
"v  c #312F2E",
"b  c #2E3223",
"n  c #2E312A",
"m  c #313524",
"M  c #343A24",
"N  c #393E26",
"B  c #32352B",
"V  c #363A2B",
"C  c #393E2C",
"Z  c #343334",
"A  c #363930",
"S  c #3A3A33",
"D  c #373538",
"F  c #393739",
"G  c #383838",
"H  c #3A4026",
"J  c #3C422E",
"K  c #3E4232",
"L  c #3F4138",
"P  c #414535",
"I  c #454B36",
"U  c #43453B",
"Y  c #464A3A",
"T  c #494D3C",
"R  c #4A5036",
"E  c #4C513D",
"W  c #50553E",
"Q  c #53583F",
"!  c #4B4E41",
"~  c #4E5242",
"^  c #4F5248",
"/  c #515644",
"(  c #545945",
")  c #585D47",
"_  c #53564A",
"`  c #565A4A",
"'  c #595D4C",
"]  c #5B5D51",
"[  c #5D5F58",
"{  c #5C624D",
"}  c #5E6252",
"|  c #5F615A",
" . c #616654",
".. c #646954",
"X. c #666B5A",
"o. c #6A6E5D",
"O. c #6C715E",
"+. c #6A6D63",
"@. c #6E7261",
"#. c #6F726B",
"$. c #717564",
"%. c #747966",
"&. c #72756A",
"*. c #767C6A",
"=. c #797D6C",
"-. c #767971",
";. c #7A7E71",
":. c #7B826E",
">. c #7D8371",
",. c #818673",
"<. c #858A76",
"1. c #82847A",
"2. c #868B7A",
"3. c #8A8F7B",
"4. c #8D927E",
"5. c #898C83",
"6. c #8E9281",
"7. c #919684",
"8. c #949982",
"9. c #999E86",
"0. c #969A89",
"q. c #9A9E8E",
"w. c #9A9E91",
"e. c #9CA08F",
"r. c #9FA392",
"t. c #A1A594",
"y. c #A5AB96",
"u. c #A6AA99",
"i. c #A9AD9C",
"p. c #ABB09C",
"a. c #ABACA5",
"s. c #AEB1A0",
"d. c #B1B3A6",
"f. c #B2B6A8",
"g. c #B6BAAD",
"h. c #BABDAC",
"j. c #BCC1AB",
"k. c #BEC2B3",
"l. c #C1C5B3",
"z. c #C3C6B9",
"x. c #C6C8B9",
"c. c #C9CDBD",
"v. c #CDD2BD",
"b. c #CFD1C5",
"n. c #D1D4C6",
"m. c #D5DAC7",
"M. c #D8DDC7",
"N. c #D2D5C9",
"B. c #D7DACD",
"V. c #D9DCCF",
"C. c #DADED1",
"Z. c #DCDED2",
"A. c #DCE1CD",
"S. c #DDE1D2",
"D. c #DFE4D0",
"F. c #DFE2D4",
"G. c #E0E5D3",
"H. c #E1E5D6",
"J. c #E3E5D8",
"K. c #E4E7D9",
"L. c #E5E9DA",
"P. c #E6EADC",
"I. c #E8EADD",
"U. c #E9EDDE",
"Y. c #E7EAE1",
"T. c #EBEEE1",
"R. c #EDEFE2",
"E. c #EDF1E3",
"W. c #EFF1E4",
"Q. c #F1F3E6",
"!. c #F1F5E6",
"~. c #F3F7E9",
"^. c #F5F9EB",
/* pixels */
"o.b.n.C.B.N.B.F.Z.N.N.B.z.h.z.n.H.T.I.J.S.Z.B.b.c.z.z.n.Z.J.H.K.R.J.H.K.I.I.L.J.n.B.J.R.W.Q.Q.W.R.T.I.I.L.Y.Y.T.E.P.P.C.] 4   . ",
"2.^.L.E.U.U.^.!.~.E.T.P.N.c.n.S.L.L.C.N.N.B.F.H.L.U.U.U.!.E.L.F.H.S.C.F.K.L.H.J.J.L.E.!.E.U.U.U.L.J.H.H.H.L.H.S.S.G.U.^.a.  4 . ",
"` *.o.$.@.@.$.@.o.%.$.+.@.o.o.O.@.@.$.$.@.@.$.@.@.@.@.$.@.@.@.o.o.o.o.o.@.o.o.@.o...X.o.o.@.$.@.@.@.o.@.@.O.o.@.@.o.X.+.] 4   . ",
"/ ..( { ` ' { { ) ` ` ` ` ( { { ) {  ... .) ` { } { { ` ( ) ) ) ) ) ) ) { ) ) ) { / / ( ) ) ) ) ( ) ( { ) { ` { ) E E ~ U 4   . ",
"~ X.O.K   8 - 8 p b m s b m m b s b s s m b s s s s p m m t i p p p p s b s s s i s s p b M s s s i i s p i t s 6 W { ` U u   . ",
") ..$.K   p r p s p s i t r r p p p t p r t t t t p p t t p r t p r t t r r r t t * t t r r r 6 r p p r t t t s . ....^ S x     ",
"E ....8 & s t y w & t s s M s q 5 a a t M N J J P I I E / ) } E E ( ` / / ) ( / E } ( P E / T / { P I T M J a w & O...Y S z     ",
"} O.X.$.o.$.=.>.<.<.,.$.O.@.4.s.u.e.0.q.r.r.t.y.u.u.i.i.i.t.6.r.e.7.t.i.e.7.7.0.0.7.0.i.r.3.0.e.q.q.r.7.q.0.0.7.<.3. .T U z   . ",
"Y ' T ( ( / ~ ( ( ~ E ~ / ~ / ' ` ` ` / / / _ ` ` ` ` '  .' ~ ~ ! ~ ~ ~ T / / ! ~ / Y ! ~ T ~ T ~ T ! P Y P ~ E T E K ~ ! l   . ",
"V P ~ K B K Y P P Y Y T Y P K K C P Y Y Y Y T Y Y T ~ E Y I T T ~ ~ Y Y N b C J K C K Y K m B V m Y P V P K C M N J m V B 2     ",
"X - 8 - - - 8 8 1 1 < 1 ; - = ; 1 8 ; 8 1 8 8 1 < 1 1 8 ; 1 V p 1 i 1 1 - % ; - - % 1 1 - 8 - - % < = ; 1 1 % - ; ; - % X .     ",
"    % - ; * 6 * 8 - --------------------------------------------------------------------------------  . % - - ; 8 8 - 8   .   O ",
"  X 8 8 6 * 6 * 1 - --------------------------------------------------------------------------------  X 8 8 8 6 ; 8 - =         ",
"  < b i ; @ * 6 8 1 --------------------------------------------------------------------------------  - b 8 @ X % 8 8 <       . ",
"  4 S B -   6 i r u --------------------------------------------------------------------------------  u K C @   r p u 1         ",
"  9 P K 1 . i M i u --------------------------------------------------------------------------------  i P K @   C V i 8   .     ",
"  1 K K 8 # M J i u --------------------------------------------------------------------------------  l K P 8 & P K i 8     .   ",
"  4 P K 8 & K Y p u --------------------------------------------------------------------------------  l P C ; & P K b u         ",
"  u ! P i 5 E ~ p 8 --------------------------------------------------------------------------------  z T K t 6 / E i 1         ",
"  z ! Y p 7 I E b u --------------------------------------------------------------------------------  b ~ K r r ~ Y b 1         ",
"  z ^ ^ b t T ~ b u --------------------------------------------------------------------------------  B ~ / b y / T V 8         ",
"  z / ` V a ~ ` b u --------------------------------------------------------------------------------  B ^ ` m t ) ~ m 8         ",
"  z _ ' V t ~ ` b u --------------------------------------------------------------------------------  B ` ` s e { ( b 8         ",
"  z _ ] V a ~ ` b u --------------------------------------------------------------------------------  B ` ) s y ) / b u         ",
"  z ` } V N / ` V i --------------------------------------------------------------------------------  B ' ) m M ) E m 8         ",
"  z ] } V I { { K z --------------------------------------------------------------------------------  B } ( M I  .) K 8         ",
"  z ] ' m I } ..Y z --------------------------------------------------------------------------------  B } ( m R ..{ Y 8         ",
"  z ] ` V E  ...Y i --------------------------------------------------------------------------------  B ] ( m E  .{ Y 1         ",
"  z ` ` C E X.X.Y i --------------------------------------------------------------------------------  B ] ( J / o...K 8         ",
"  b ' { K / @.o.P l --------------------------------------------------------------------------------  B } ) K ) %...P 8         ",
"  z ' ..P / $.X.P l --------------------------------------------------------------------------------  B ] { K ( %.} P 1         ",
"  z ` ..K T @.X.P z --------------------------------------------------------------------------------  B ] } P Y *...K u         ",
"  z ` ..P I @.@.P z --------------------------------------------------------------------------------  B `  .K T *.X.T u         ",
"  z ` } K I O.@.P i --------------------------------------------------------------------------------  B ' { C E %.X.Y 8         ",
"  z ' ' K ~ O.@.P i --------------------------------------------------------------------------------  B ] ) J ( $.o.K 8         ",
"  z ` } K { %.%.Y i --------------------------------------------------------------------------------  B ] { J  .:.@.P 8         ",
"  z ` ..K { :.:.P i --------------------------------------------------------------------------------  b ] { K  .<.%.K u         ",
"  z ' ..K { :.*.P z --------------------------------------------------------------------------------  n } } K  .,.@.K u         ",
"  z ]  .K { :.*.P z --------------------------------------------------------------------------------  B | } J  .<.$.P 9         ",
"  z }  .C / :.:.K z --------------------------------------------------------------------------------  B | } N ( 2.%.P u         ",
"  z } ..J I :.>.C z --------------------------------------------------------------------------------  B | } N E <.$.P u         ",
"  z ' } K E >.:.J b --------------------------------------------------------------------------------  B | } J W 3.$.K i         ",
"  z ` ..P I :.:.P B --------------------------------------------------------------------------------  B | } K I 2.$.P z         ",
"  z ` ..P f *.>.Y V --------------------------------------------------------------------------------  B | } J J >.$.Y b         ",
"  l `  .P N :.,.! A --------------------------------------------------------------------------------  B } { K J <.=.Y z         ",
"  u ] ..K H <.3.Y B --------------------------------------------------------------------------------  V ' } K d 7.<.P b         ",
"  z _ } K f ,.3.~ V --------------------------------------------------------------------------------  B ` ' P H 4.>.! b   .     ",
"  A _ ' P H ,.6.~ V --------------------------------------------------------------------------------X S ` ) K M 2.,.` z $       ",
"z | ~ { I & :.4.E V --------------------------------------------------------------------------------B ` / ) K 0 3.<.Y n B   X   ",
"U >.P { P 0 %.4./ B --------------------------------------------------------------------------------_ *.Y { K   4.3.P A Z   .   ",
"_ q.C ..` ) =.<.E m --------------------------------------------------------------------------------%.w.J } ` ) ,.=.T b A       ",
"_ q.& / 8.9.8.{ ~ m --------------------------------------------------------------------------------5.g.q o.4.y.3.{ / B U   .   ",
"+.g.  T E Q W I P V --------------------------------------------------------------------------------5.g.d o.)  .{ ( Y Y |   +   ",
"+.l.C o.o. .{ ....$.--------------------------------------------------------------------------------2.k...:.O.$.o.%.o.=.-.  <   ",
"[ H.v.m.G.v.h.y.s.k.--------------------------------------------------------------------------------+.z.V.D.p.j.v.v.c.g.#.  ,   ",
"  t.k.<.c.M.t.0.x.d.--------------------------------------------------------------------------------P f.n.v.,.l.G.A.6.w.-.  2   ",
"u ` K E  .N M { P / --------------------------------------------------------------------------------_ =.s ( N ) / & V P   .     ",
"= ~ X.....I (  .! ] --------------------------------------------------------------------------------P ;...$.) {  .E O.Y z   . . ",
"4 Y ~ ` ~ J ` ~ S ] --------------------------------------------------------------------------------^ &./ { / E ..P I K u     . ",
"1 / ` / Y P Y K Y P --------------------------------------------------------------------------------| 6.E  .( E { N K m z   .   ",
"1 ~ ~ ` / P I C V V --------------------------------------------------------------------------------] 5./ ..{ P Y K C b u       ",
". V ~ / / T K m m z --------------------------------------------------------------------------------! &.! / ( Y P m V B u       ",
". K ! C C V m i p u --------------------------------------------------------------------------------c L S z M K K V K A l       ",
", B - 8 m 8 V i z 9 --------------------------------------------------------------------------------z n z 8 i m B B B n z   .   "
};
