/* XPM */
static char *_f38fb20039445d681c0ff124fa722eb1NtkISI986CVcP8B[] = {
/* columns rows colors chars-per-pixel */
"64 64 225 2 ",
"   c #010201",
".  c #060900",
"X  c #0A0D00",
"o  c #090A09",
"O  c #110E02",
"+  c #130E09",
"@  c #0E1202",
"#  c #0F1509",
"$  c #121404",
"%  c #151906",
"&  c #14150B",
"*  c #16190C",
"=  c #191808",
"-  c #1A1C0C",
";  c #0B1814",
":  c #181612",
">  c #151A14",
",  c #1B1D12",
"<  c #211F0C",
"1  c #231D15",
"2  c #241F19",
"3  c #16220C",
"4  c #1D210D",
"5  c #1D2214",
"6  c #1F2219",
"7  c #1B2718",
"8  c #22240E",
"9  c #28270B",
"0  c #222414",
"q  c #292716",
"w  c #252A15",
"e  c #2A2D15",
"r  c #23251A",
"t  c #262B1A",
"y  c #2A2D1B",
"u  c #293119",
"i  c #2D311D",
"p  c #32351E",
"a  c #36381F",
"s  c #1B2C26",
"d  c #262C22",
"f  c #252825",
"g  c #2B2D22",
"h  c #312C26",
"j  c #2E3223",
"k  c #283423",
"l  c #25342A",
"z  c #2D3229",
"x  c #2B3A2D",
"c  c #323524",
"v  c #393623",
"b  c #353A24",
"n  c #393C26",
"m  c #34352A",
"M  c #39352D",
"N  c #363A2A",
"B  c #3A3D2B",
"V  c #293B34",
"C  c #353B33",
"Z  c #373835",
"A  c #3B3D33",
"S  c #413F34",
"D  c #384328",
"F  c #3D422D",
"G  c #2E433B",
"H  c #3D4232",
"J  c #3A4638",
"K  c #41442D",
"L  c #464A2D",
"P  c #424534",
"I  c #454A35",
"U  c #4A4D35",
"Y  c #444639",
"T  c #48463A",
"R  c #464A3A",
"E  c #4A4D3C",
"W  c #504F39",
"Q  c #46513C",
"!  c #4D513C",
"~  c #51543E",
"^  c #58593D",
"/  c #3C4B46",
"(  c #3D524C",
")  c #385457",
"_  c #375861",
"`  c #444C47",
"'  c #4B4E42",
"]  c #514F42",
"[  c #4E5243",
"{  c #4A5649",
"}  c #515544",
"|  c #555944",
" . c #595C45",
".. c #535649",
"X. c #59574B",
"o. c #565A4B",
"O. c #5A5D4B",
"+. c #455853",
"@. c #4C5B52",
"#. c #545B54",
"$. c #5B5E51",
"%. c #635F53",
"&. c #5B6047",
"*. c #5D624D",
"=. c #5D6251",
"-. c #5A6656",
";. c #65674B",
":. c #61644E",
">. c #626554",
",. c #656955",
"<. c #6A6D55",
"1. c #656659",
"2. c #656A5A",
"3. c #6A6D5C",
"4. c #716D57",
"5. c #69715B",
"6. c #6D725C",
"7. c #747559",
"8. c #72745E",
"9. c #476567",
"0. c #596765",
"q. c #496F79",
"w. c #576E73",
"e. c #4E7277",
"r. c #567679",
"t. c #636C61",
"y. c #6D6F62",
"u. c #626D69",
"i. c #6D7363",
"p. c #697667",
"a. c #727564",
"s. c #7A7064",
"d. c #767964",
"f. c #7A7D65",
"g. c #747669",
"h. c #757A6A",
"j. c #7A7D6C",
"k. c #667976",
"l. c #727E77",
"z. c #7B7E71",
"x. c #837F68",
"c. c #7C8164",
"v. c #7D816D",
"b. c #6C817B",
"n. c #7D8273",
"m. c #798677",
"M. c #82856D",
"N. c #86886D",
"B. c #828573",
"V. c #858974",
"C. c #898A75",
"Z. c #848679",
"A. c #858A7A",
"S. c #8A8D7B",
"D. c #8D917B",
"F. c #91937C",
"G. c #98937D",
"H. c #4A7A89",
"J. c #587C83",
"K. c #647F86",
"L. c #5E8081",
"P. c #6B8686",
"I. c #758A87",
"U. c #7C918B",
"Y. c #799595",
"T. c #6A95A6",
"R. c #759EA9",
"E. c #7AA3AB",
"W. c #77A9BB",
"Q. c #7CB0C4",
"!. c #838C83",
"~. c #8B8C81",
"^. c #8F9283",
"/. c #8B978B",
"(. c #929584",
"). c #959984",
"_. c #999D87",
"`. c #939589",
"'. c #969B8A",
"]. c #9A9D8B",
"[. c #9B9F92",
"{. c #9DA18E",
"}. c #9EA191",
"|. c #9BA596",
" X c #A2A694",
".X c #A5AA95",
"XX c #A5A998",
"oX c #A6AA9A",
"OX c #A9AD9C",
"+X c #AAB09E",
"@X c #869AA1",
"#X c #8BA6A6",
"$X c #83ABB8",
"%X c #93B0B2",
"&X c #B1B5A6",
"*X c #B4B9A8",
"=X c #A4BABB",
"-X c #BCC0B2",
";X c #C0C5AF",
":X c #C4C8BA",
">X c #80B5C8",
",X c #ACC4C3",
"<X c #B1C9C6",
"1X c #BFEEFF",
"2X c #CBCDC1",
"3X c #CED2C3",
"4X c #D1D5C5",
"5X c #D4D7CA",
"6X c #D5DACA",
"7X c #DBDDCE",
"8X c #DCDED1",
"9X c #DEE2CF",
"0X c #DEE2D3",
"qX c #E1E5D6",
"wX c #E3E6D9",
"eX c #E5E9DA",
"rX c #E6E9DB",
"tX c #E9ECDE",
"yX c #D0F1F4",
"uX c #EAEDE0",
"iX c #EDF1E2",
"pX c #EFF1E4",
"aX c #F0F4E5",
"sX c #F6FAEB",
"dX c #FEFFF6",
/* pixels */
":XwX2XqX4X4X6X8X8X7X5X5X5X2X-X*X*X3X0X8X7X7X5X2X:X:X;X:X6X0XqXwXrXuXrXqXqXrXwX8X6X8XrXiXaXiXpXaXaXpXuXrXrXrXrXuXuXuXuXuXuX0XwXz.",
"dX8XrXsXrXtXiXaXaXiXiXuXuX7X4X3X5X0XrX3X6X0XrXwXqXtXaXiXtXaXtX0XqXwXqX0X0XqXrXrXqXrXiXiXiXrXtXtXtXrXqX0X0XqX0X0X0X0X0XqXqXiXiX:X",
"a.2.3.1.2.6.3.3.2.2.3.3.3.2.2.>.>.1.2.3.3.3.3.3.3.2.2.3.3.>.3.6.>.>.>.>.1.1.2.1.=.*.>.>.>.1.2.3.3.2.2.2.3.3.2.2.2.2.2.2.2.O.3.>.",
"$.>.} O.O.| *. .O.*.} | O.| | O.O.=.O.=.*.| O. .*.=.O.| O.| [ O.| | *.| O.*.O.[ | E } *. .| O.| O.| O.| | *.| | | O...O.R ! ~ E ",
"i.i.i.X . X @ $ 0 y w y i w i y t w i i i t y y i w y i i y w y w w t w t 5 y w c c w 0 y i i y t w y t w 0 y 0 y w 0 t 1.|  .! ",
"=.>.=.X $ i i t y i j c w i j y i j c y t y y y y w i i t y i t t i t i i t b w 4 5 w w y y 0 w t t w y t t c w w w w w a.O.[ H ",
"i.2.O.$ 8 y c b i 0 y b c c i c c F i F F Y Y ! ! | } | } *.2.*.>.*.| | *.*.} | 1.>.O.| } O.E | *.*.! } } ! F D K n y F v.*.E B ",
"2.i.1.6.a.v.i.h.S.(.S.n.a.j.i.v.^.*XOX.X.XXXXXOX+XOXXXOXOX+XOX'.'.'.].'.}.].'.].(.^.{..X'.'.^.}..X X'.}.].(.).{.'.(.D.D.B.| [ Y ",
"o...E [ ! } E ! E P P R } R E U P P P P P P H H P Y R [ [ [ R H P H P H P B B H B P B N R N B H N c N B j N N y b F P F B H ' ' ",
"N E R b y b H R P Y E P H P Y P N F H P E E E E E R E E E P P E [ E R E R N H P c F H N B z m c c m P R H c H P c N B F F t c c ",
"  * X % @ @ @ % @ @ @   . @ . X   * . . @ X @ . . X X X @ X % y t * . * @ $ . X . . @ @ X * $ . X . .   . - . * . $ X $ $ $ X . ",
"  & $ - 4 - 8 5 * 6 & . + . . = 1 X & - & . .   & & + 1 : 2 r * . m 1 * & . . & t & & , : : : 0 * .   .   $ 0 = - , 6 5 3 5 5   ",
"  , 6 0 % - - - , * > . t , & g t d 6 0 t 5 . g y t r + m h r & X S M y . , * z , g r r g Z z r 6 6 . :   - 0 < 0 r * * 3 * & . ",
"  g j i @ @ @ 4 r , 6 . g * m Y z J > ` Y N 5 r j r + , t m m r X } g j * 5 A ` C Z > ; s 6 / J R z , ,   y c t . . @ 5 4 t *   ",
"  m A B @ . . j t g 6   6 t Y { @.` w.0.{ { H - 4 - E y ' } ' t X z.>.' y P [ ..` ` w.%X@X0.+.@.@.` r o   B B N X @ & j w y 6 . ",
"  A R P $ % % H t y 0   * * , l ( ,Xw./ V d 5 t w O.*.w -.$...A & n.t.$.t t t l +.=Xw._ _ w.,X( 7 > > &   B P H . . r R w y - . ",
"  A Y B $ 5 0 E j y y   - ' ..@.,Xr.J.<X+.@.-.i U 6.I t *.3.1.Z . `.2.j.b S.3.@.,XK.q.R.T.J.L.<X( ` C . X F D D 5 y y ! i j r . ",
"  H P b % 5 y ..c j 0 . , N #.l.#XJ.$X%Xb.m.3.F <.<.6.c -.2.=.d r `.a.h.y :.p.m.#Xe.$XyXW.E.r.%Xk.u.Z >   F F D # 3 y O.i y 5 . ",
"  R E F w y j 2.j c $   * , d k.I.J.$X#Xb.z N e ;.c.L H -.*.1.m 2 [.B.6.p n j p.U.J.$XQ.Q.E.r.#Xw.f f & . P I F 7 d c ,.v c & . ",
"  [ R P 0 i i >.c N -   , P -./ Y.9.R.#X( t.} n <.7.^ i *.>.>.g h |.i.B.c f.h.{ I.9.R.>XW.E.e.#X( #.f &   I ! H 7 g m o.n B 6   ",
"  [ [ | e b b >.c B 0   * ' t.J +.P.q.P.@.n.j.n ;.N.^ u >.3.o.1 2 !.n.j.e N.n./ ( P.q.H.H.J.Y.I./ #.` 2   ! ! ~ t c m 1.v B 5   ",
"  R } *.e N N 3.c A - . * c z ` s 9.Y.l J ..j.~ e 4.*.K a.O.1.M y (.j.j.B  .P R V 9.P.E.E.Y.P.s ` { Z ,   ~ U &.y N m 8.v B 5   ",
"  R ..*.w b b i.j H & . * @ t d d s V x x y e 9 e :.<.U h.*.1.& c S.a.A.b e i r 7 s V ) e.( s x r t , &   ! ! *.e m m 3.v B 5   ",
"  [ $.O.i b B 3.N H * . , m 2.h.H t.` -.5.<.6.I e 4 4 F S...2.0 N Z.h.B.B ,.A.h.J t.G V s J C o.3...A + . [ O.*.t B A >.b F 5   ",
"  ..=.| i I U ,.Y H r   & ' $.B.B.c [ V.D.8.8.F j.N t R S.o.>.0 j ~.j.j.E f.f.F.j.B } 3.-.Y N (.B.$.A 6   E >.O.y T R >.F P 6   ",
"  ..=.} e W ~ 3.[ Y 6   > z a.C.8.f.<._.M.N.U b ! S...T (...2.y y B.j.B.Y  .D.F.4.8.:. .L %.S.F.f.=.t # . ! *. .g ' { 6.Q Y 0   ",
"  } $.| e ~ ~ h.[ ' > . 5 , N 8.F.x.7.f.f.D b ~ F P >.T `.} i.5 7 (.B.h.} i K f.G.x.f.^ 4.s.B.x.8.b , 5 . } *...y ' { a.Q E 0   ",
"  } $.| e ~ ~ h.[ ' > . 5 , N 8.F.x.7.f.f.D b ~ F P >.T `.} i.5 7 (.B.h.} i K f.G.x.f.^ 4.s.B.x.8.b , 5 . } *...y ' { a.Q E 0   ",
"  [ ..} e | ! 6.E E , . m 5 t c *.A.S.O.P n F f.j.b B E A.$.y.r t ~.Z.j.Y b b a  .A.S.j.S.D.<. .P y r c   [ >.[ i [ } a.E E , . ",
"  [ O.&.b | O.B.[ R &   z * O.E c F 6.b E :.p f.v.1.b O.S.2.>.g , ].a.v.} i 8.~ p K 3.a.a.f.! I N } r , $ ' O.} b | *.j.E R *   ",
"  [ O.*.b *.*.B.H E , . 6 0 R O.1.n 0 } F <.I U d.a.B =.(.1.y.t . ^.B.v.P F :.*.,.B 0 i y 4 n ! Y } r 0   } =.O.F O.>.B.P R *   ",
"  [ O.&.b | O.A.H ' * . * - y P 1.O.i F i n F K a.j.| =.S.g.a.t X Z.S.A.P p b K ,. .e P P i i F j r r $ . } O.*.F } O.B.B E -   ",
"  ' O.*.D ! | S.R ..*   & y y w c i I 8 y e n p E j.6.! '.g.h.& @ ^.j.B.R U p e b p Y a.>.4 8 $ y g r & . [  .*.n ! | A.I [ ,   ",
"  [ =.*.n ~ | B.E } , . r c B E | c <.i n I | K n S.v.*.S.a.i.c , `.Z.(.| :.K U ~ p 3.6.P y % b A m z *   [ =.*.b ~ | V.! E ,   ",
"  } =.O.i ~ *.A.[ R * . m } g.h.U c v.B h.M.v.f.c :.j.>.].a.n.r . `.Z.(.B G.D.V.~ b B.| Y B $ H 3.1.Y m   E =.O.i | | v.! E -   ",
"  [ =.&.p *.:.v.[ E 6   r [ 2.(.| F V.~ 8.V._.>.c *.j.=.(.i.j.* @ ^.n.(.F F.V.).| B B.! Y b 5 E 3.a.[ t   [ >.&.c :.*.V.| E - . ",
"  ' O.*.i ,.5.D.O.R r   t P O.3.| p B.!  .6.*.a.F | C...}.i.y.g & }.a.^.j f.f.6.| c v.6.} F % } ..} m g   E ..,.u *.6.F. .I 0 . ",
"  [ =.>.p ,.3.).[ E , . g N O.h.O.w ,.n ! f.,.*.b a.S.| S.a.z.0 * `.B.S.E <.8.M. .e 6.h.E b 4 i ' 3.m g . [ O.:.i ,.6.D.! R 0 . ",
"  [ >.>.i ,.6.).} E 6 . r y H b i p K y 8 I K b c >.S.O.'.a.h.,   '.A.n.b !  .b p c b >.E b $ y 0 c r & . [ >.*.b <.3.F.| E 6   ",
"  [ >.>.i *.<.(.} [ r   * y 0 E g.U - ! b 8 w K Y 1.v.} S.a.j.6 * `.a.B.E b i ! ,.F 8 | Y 8 y ! N 0 , &   [ 1.*.b *.>.(.| ! 5   ",
"  [ =.:.i | *.'.Y ..6   , j T E *.:.n Y  .,.F B 3.'.} | '.j.Z., X +X2.S.E &. .~ <.<.i w c e i Y } ' r & X ' 2.O.j | *.(.! [ 5   ",
"  [ =.>.p | >.'.R [ 6 . g g N | >.b 8 E ! ,.F E V.a.i Y S.a.j.z & A.z.3.H U W I  .B 0 F i 8 i ! ..R r 6   [ >.O.b | 1.'.U [ 6   ",
"  } =.>.b ~ 1.'.} ' t   m , T B b | f.P } ~ n 6.3.B >.E S.z.h.* X S.z.v.B a | ! n ~ h.h.S.f.~ n ! T * z . } =.*.B [ 1.].[ [ t . ",
"  [ O.:.b I | ).E o.d . m , t B h.).S.a.I b n 6.p 3.D.} ].1.A.- $ S.g.g.b b b b 8._.S.v.v.V.V.M.N y y , @ } O.=.B I  .(.[ } g . ",
"  ' 1...B I  .(.o...z . y q 8 <.F.6.p.A.i.P b b  .c.! ! (.2.S.0 . n.z.p.k L 9 7.G.a.i.!.l.p.A.A.2.c 4 % X } *.,.N U o.'.o...t   ",
"  ..O.3.b ! | &X[ O.6   B c n v.a.3.p.h.v.>.y D.D.v.6.! XXg.g.y . n.z.i.r  .U F.<.i.-.u.!.|.m.n.j.[ 0 p . } } =.N [ -.XX[ o.g   ",
"  R ..*.c ! ! XXO...z . m 4 ! j.2.t.@.h.h.d.U F <.~ i P OXh.z.r & n.B.=.P n ,.V.*.t.@.U.I.o.h.p.h.} w * - E o.*.D H | OX>.o.r . ",
"  } O.*.N U  .OX=.>.r X 5 y O.*.5.-.U.v.3.6.U n y n 6.F *XB.j., & g.B.1.j U 6.,.3.-./.b.k./.@.n.3.>.t * X ! | *.b | [ .XO.=.z   ",
"[ ' O.*.B a ~  X| >.6 @ & @ 5 t J b.b.b y i 0 p p f.f.P '.a.a.& r B.h.,.w i w k x m.b.yX#X!.p.g g * % 0 E U  .*.b b I .X*.$., A ",
"Z.[ [ *.D K I .X2.o.y 5 . { } { l @.I.|  .O.>.b  .v.&.b XXh.3.r X <.j.>.i A.2.-.x +.I.Y.U.I.#.' $.[ m $ B.} | &.D b ! .X&.O.j C ",
" X..=.[ F U I _.O.[ 5 N @ z -.p.J J ( g.a.h.6.I d.v.D.b +X,.y.g * 1.3.3.- *.a.p.` G +.P.I.-...p.t.1.N - XX} ! &.b Y P _.<.} 0 ' ",
"XXR H 2.(.'. XB...{ z t @ 5 t g z k x b c B b p d.C.5.4 {.v.o.y O *.g.} y b b j k l x l G N H N m y 0 & 7XE 3.=.'.XX{.v.O.[ t ` ",
"5XH A ! | >.&. .J R k P @ F 1.b P ! J  .1.<.! F j.D.*.w S.g.O.y -  .3.E 0 h.M.n H Q H J u.[ | } 2...t % 7XO.O.,.2.>.2.O.O.! y t.",
":Xm j R R P Y R =.[ R S.X E :.8.a.:.*.! 1.C.h.b <.D.6.4 '.>.=.w $ [ y.} * V.f.8.f.*.O.i.h.5.a.} O.,.Y - 7X2.| =.,.>.=.=.O.} ..!.",
"wX6X4X6X4X3X-X+X].*X*XD.X q 0 n p e e t H Y >.N 0 >.>.i ].>.} r O ..=.o.- U a a p i e y - % e i B B y $ :X-X0X0X&XXX:X:X:X;X;X~.",
"Z.6X^.OX9X6X:Xo.:X:X&XD.X $ X . O q y - $ X X @ $ P R 4 Z.=.O.r , } -.o.5 X $ $ $ 8 0 0 y b % @ X $ X . ].:XrX5X3.:XtXqX9XS.XX`.",
"=.$.P | d.R R [ h.H ,.! X . - q c c q b t b y j j y b j 2.=...* 1 } } [ t = q < v y i y y c y n y i = X S.>.[ a.F O.1.} U b E , ",
"A =.2.<.1.R {  .2.b -.F . E ] X.1.B.S.'.}.(.^.(.B.^.'.`.$...' y m ..o.} ' j.:.>. .S.n.XX^.}.`.[.Z.g.] N B.3.O.2.>.Y h.K | <.} Z ",
"' ' ..! I P R *.H F ,.! . H $.y.z.~.z.j.h.a.B.n.y.n.n.h.E B ..r y E R ..E j.a.<.z.A.A.h.h.z.g.z.j.%.S M j.$.O.5. .n 8.! I ~ B d ",
"' E O.! ! N } H F Q N y @ 0 d h ' ' ` N E T N N A P y J P H T 1 m ] Y ..P B j H R ' R z k c H m Y A , 0 `.=.O.*.| K ,.U K F i Z ",
"..R $.| } F ~ b B N b y X z N } } O.[ E E E ..P [ E H P E P H , c b P E P } [ } } $.....' U E Y ! B y % (.1.~ <.*.F E F K N c g ",
"6 ..P } ..Y E y N c y c . 0 z T Y E P P ' ..E R R E H N c c j , r N y y c T T T A P P Y A R ! H U H 0 0 j.*.| } | Y E B b A C g ",
"C } T N P p F t c 0 r N   * r z d z g y g A g m m c m A m H c r & g t r r * r c z m m g r r g g c m * * R c B 0 N B Y N b Z m g ",
"z r $ g t * j y j 6 r m . & > , : , , r , t r r g 6 r , $ , * r & & t f & , , , & & & , , r , d , r 6 & N r c , d z c c c A g z "
};
