/* XPM */
static char *_62b413d7e87434399eb1be52a442efaNv8RWC5CI8fcPiuv[] = {
/* columns rows colors chars-per-pixel */
"64 64 62 1 ",
"_ c none",
"  c black",
". c gray2",
"X c gray3",
"o c #0C0C0C",
"O c #101010",
"+ c gray8",
"@ c #1B1B1B",
"# c #1E1E1E",
"$ c #202020",
"% c #272727",
"& c gray17",
"* c #2D2D2D",
"= c gray19",
"- c #343434",
"; c gray22",
": c #3F3F3F",
"> c gray25",
", c #464646",
"< c gray29",
"1 c gray30",
"2 c gray32",
"3 c gray34",
"4 c #5B5B5B",
"5 c gray37",
"6 c gray39",
"7 c #656565",
"8 c #686868",
"9 c #6F6F6F",
"0 c gray44",
"q c #747474",
"w c #7B7B7B",
"e c gray49",
"r c #818181",
"t c gray52",
"y c gray54",
"u c gray55",
"i c #929292",
"p c #959595",
"a c #9A9A9A",
"s c gray62",
"d c gray63",
"f c gray65",
"g c #AAAAAA",
"h c gray68",
"j c gray70",
"k c gray71",
"l c #BBBBBB",
"z c gray74",
"x c gray76",
"c c gray79",
"v c #CECECE",
"b c #D0D0D0",
"n c gray83",
"m c gray86",
"M c gainsboro",
"N c #E1E1E1",
"B c gray90",
"V c gray92",
"C c #EFEFEF",
"Z c gray95",
"A c gray97",
/* pixels */
"0bbmnvMNmnbMczzvVVVBNmmvccxvmMBVVBNVBNVBnnBZZZZZZCBBVVVVCCNM6$ .",
"tABAVVZAZCCBbcnNVBMbbmBNBVCZAZNNNMmNBBBBBBCCCCCVBBNNNNNNBmAZd +.",
"3e990q0990090890800009009909900889999999878999009900099999604#  ",
"3653455544354556456776556554444365555565522454444355645642<2,$ .",
"399: @@#=*-=**=*-==********=*&&*****=**&*=***==*==*&&&*&%254># .",
"398> &&&%**%-&**&*&%*&**&***&&&*%%$$&%%&$@%&$%$#%$$*&%&*@782>*  ",
"277* **&&#%=*&-#%&**--;;>,<135442365434248211124322,:;;#o98,;% X",
"59800qqwuyeqq0ykfsssdffghhggggappidfsipsiiaddipsassippaiiu61<% .",
">43244332212222443333444344554123122122113113112,1<<1,,1<,>11%  ",
"=,1:-;,,1><,<,::>,,<,<,<<<121,,1<1,>:=:>:;:>:-**:<;;::;::>;-=# .",
"X@$@++###@@@@@+@####@##@@####$=*@&#@@O@@@O@#+@@o+@O@@#@@@$@Oo.. ",
" .+@@@$+$# +OoO@X . @X+##o__________#%O+O X..+@O++XX@+@@###+    ",
" X##@$#@$+X#%=*$%O#*#@#%%+__________%:&X&*%$+%@#$%$.@#$$#@#+   .",
" O*&OO@#$@.o o-;:$#*@X%=*@__________=:%@+;,#=:;$ .O+=&o.@$#@    ",
" @::+ #&%%.>97;541%@&=;1:$__________29,*##=;33;<w5#%:=XX&*%#    ",
" #>>#o%;&#+;>4s;=*$$5,>63*__________4w3*>:&#- ri,:#%,:+.=-%$    ",
" $>:#@->&$O=49ih*4>-9=195*__________8r9:>71q3qh76<#&,>@+>:&#    ",
" $,:#+,<%& 7rwrgqq>883294&__________9t0>:0860ip0j4%$>:$+<,&#    ",
" $<,&$13%#@2eawa9,=8q,285&__________9p9:6r6%<rrip5&*1>%#3<&@    ",
" %1,%%<1=#+<qawi43-7w;175$__________qiq<7r6560ery5$=1>%%2<=#    ",
" &12-&12-%o;4qyr3r<7w:174$__________8yw,605er3808<$=21*&21=$    ",
" &24;&34*%o>8ey24e4,q3385$__________8uw>8e376:2wq<#-24=*42=#    ",
" &24-&45*% =272&*>:*95595#__________8te,88:-#&=14,+-24=*53=#    ",
" &35-*34*%.@$;-157<.,=q04@__________7re,,-=1w5>1$%.-44=*42=$    ",
" &45--34-%.$:;;rww37$ w94#__________7tw<%:-9tr5,1* -54-;43;$    ",
" &54-,66>%.*;<0pu9;80;w96$__________6te134%7yy751=X-53-<74>$    ",
" &54-177<&O=-6tyw<>>81w95$__________7yw33,->9yeq>=+-54-186,$    ",
" &44-156<%O;2qw8,*76:;w05%__________7iw1;>9>&7rt7,%-53-186,#    ",
" &44:379>%O:3r7>1,8y<;e06%__________8yw2*1013;2q8,$-53:297,#    ",
" *55>4q9>&X&-3>>643r7;tw7$__________8uw1-56,75<:,* ;54>3q7,#    ",
" &46>3q8>&  %@*<<1:w0<re8$__________5ur,201-<67=@# ;55,3w6>#    ",
" &46<<00:* %>=&*%--7w3er9$__________5yr<70:;=;1:<= =45>1w6,#    ",
" &37,<00<* ->&#$=:;,y6er9$__________7ut406;2;>=,5= =46><w8,$    ",
" &46>109,%o=-=@:787>e9rr9#__________8iu3023r07:74# =46>1q9>#    ",
" &45>390>%+==;+3eie:89tt9#__________7uu18,4ppr=93@ -55:408>$    ",
" &46:6wq,%+--:$40rq;8qrt9#__________8uy28-,eyr=84$ -54:6e0,$    ",
" %46>6re>&X:::%,888,0qrr9$__________0ut27>10q0:67& =55:6yq>#    ",
" &56>6ew>* -:-$%473:w0rr0$__________7ir28,<687;,5* =55>7t0>$    ",
" &57:6te,& @:-#;$=;:9qer0@__________8ie<72><>,<&,* -65>7y0>$    ",
" &57;3tr,* @=&*1,>*3e9qrw#__________0ye336>,>48=-% =66:3tq>% .  ",
" &57;1er>= O#$*<64=er&eye@__________quw11e42547;+# =66:1tq:%    ",
" &57>2re:= &;<:<513t4;qre#__________4y0::rw<12<>,=.-65:2uq:%    ",
" &57,,re>=@:4w822,5456etq+__________5tw>O8u<1:6e9<$=46<<yq,*    ",
" &57>;we<;+:3qyr:;1,e8erw#__________5t0:*:01%5iy7,$-65:;tq<=    ",
" &46>:er1-.-4qtt8;10w:ttq$__________3t0=2464;tt67<%*56>>te<*    ",
" &35,>ti<-O%6rrew,0uw:yy0@__________3t9-3wy74r7741%=46:;ir1* .  ",
" %36>-ry1-.:55qee6:3<$ip0+__________2y7: 5t<9q978>+-54,:yr1* .  ",
" -35>:tu2-O<2u8885=$53up9@__________1t9*&$&>854rr1:-45:=uy1*X   ",
"&416,@wp2; ,tr8-*-=,t2yu7@__________4t8&;3,,:#6qg4;525,#ut2-* . ",
">e<4,#rp:-@%5w5679<6t>yu5$__________>w8=;07ew4:69,5015:$tt<-; . ",
"2a:554et1;*#35290010t0ey6%__________>97=<q8176:,4#0a:743tt,*- . ",
"4sO4ufp62*&o&-:=>:*qy-ey4%__________;04-7u0$<%=-* px@9afu51-, X ",
"8l 1<312:;1 133408:wt:9e4%__________-83-5e89e>21> uz*86645<,6 o ",
"8x>9875689e <8818e33u,qr2#__________*75*603qqq834 yx6e80008we + ",
"5NbmMbjfzlr @+o&;2:#7:qw1$__________;64$<7,-*=$#% wcmVgzvmcl9 + ",
" fzyMngixkt $$$oo o+>*801$__________-64%==XX.X#%# 1hnbecNmugq O ",
"@5<>7;*812;X=:,,>,>;>:372@__________:32=:--=&=:;-.1w*5>45#:- .  ",
"o168713514:$6pisupirddw11$__________>415hptr75wyr,4r68546182& . ",
"#134,>5,>7;%18ew0qr9qq6:,&__________:<23w99q09re8;2q39238>1:$ . ",
"+1321:<:<:=.%&=-<:*:;*:,,$__________:<2,;:::*;1>= 5y17126>:;%   ",
"O<432,<;:**+-,1<1<1<1:>,;$__________*:<,,1122233,o4t275,<;;=& . ",
".;<32<:&--*X=:1>11,,>>;-=$__________*=%=>:,>>,,,- <0232<,;:=& . ",
"o:<;;;;*&$&X@%*=-;*;=;==*&__________#&%$&=;&&&&*&X*>;&;::-:-* . ",
"O=@$&$*&&#&OO#@$#%$&$####$__________o$&+O$$@##+@@X%**@*--=;*%   "
};
