/* XPM */
static char *_0b602de6ae847289b44e71da680d993uF8He9P60QKwa1gt[] = {
/* columns rows colors chars-per-pixel */
"64 64 64 1 ",
"_ c none",
"  c black",
". c gray2",
"X c gray4",
"o c gray5",
"O c #111111",
"+ c #151515",
"@ c #181818",
"# c gray11",
"$ c #202020",
"% c #272727",
"& c #282828",
"* c gray18",
"= c gray19",
"- c #373737",
"; c gray23",
": c #3F3F3F",
"> c gray25",
", c #444444",
"< c #484848",
"1 c gray31",
"2 c gray32",
"3 c gray34",
"4 c #585858",
"5 c #5D5D5D",
"6 c #626262",
"7 c #656565",
"8 c #6A6A6A",
"9 c #6C6C6C",
"0 c gray44",
"q c #747474",
"w c #797979",
"e c #7C7C7C",
"r c gray51",
"t c gray52",
"y c #8B8B8B",
"u c #8D8D8D",
"i c #939393",
"p c #959595",
"a c #9B9B9B",
"s c #9D9D9D",
"d c gray63",
"f c gray65",
"g c #A9A9A9",
"h c #AFAFAF",
"j c gray69",
"k c #B7B7B7",
"l c gray73",
"z c gray74",
"x c #C0C0C0",
"c c #C5C5C5",
"v c #CACACA",
"b c #CDCDCD",
"n c #D0D0D0",
"m c #D5D5D5",
"M c gray85",
"N c #DDDDDD",
"B c #E1E1E1",
"V c #E6E6E6",
"C c gray92",
"Z c #EFEFEF",
"A c gray95",
"S c gray96",
"D c #F8F8F8",
/* pixels */
"8mnNMvNNNmnmclcnBZZBNMmvvccnVVBVCCBVVVBBmMVZAAASZZCVVCCBACCM5$X.",
"rSVSVZZADZCCmbmBVVNnmMVVVCCZZCVVVNMBVCCCVVZAZZCCCVVBBBBVBBASf +X",
"4w90000990q08989900909q09900900989999889878989009999999700604@ .",
"4644545645544465557675456545354356546545431655534435545552<2<@  ",
"189: $@$*===***--==*=*===*===&*=******=-*==&&**==*&**&*&@363,%  ",
"490;.&%&**&&***&*&&&*&&&=&&$&%&%$&&%**%#$$&&%**@#$%&&&&- 88<:& .",
"385% &**%%&*=*&&****=;>;>>13346543343344453<1<>4422<:;*@+98<:$ .",
"488qqqqerttq8wihgdasddfhhhgfhgippiffaipiuiaddpddsaapiasaiy72,$ .",
"153123434312321543333333334555<23133112123<13,<11<<<,<<<11>1<& .",
"-:1>=,>,<,,,,>>:><<1,<1<1<11,11<11,>;->::;>::;:=;>:>>;;;:>;;*@  ",
"X@$@+@@#$@@+@@+@##@#@#$@####@$-&#$#@@+@++O+#+@+++@+@#@@@##@Oo.  ",
"  +@@$#@#@Xo .XOX@#@o____________________#&@X+ X  o.O@#####+    ",
" X$@#$@#$+.$@+&#++*%#____________________*-#+**%$++O%@$##@#@.   ",
" O=&+O@$$@o*@#*$o%&=+____________________;>%+O->#%$X-%Xo@@#+   .",
" O::+ #&%#+;**+#-;11#____________________18>&&+-=-#$:-+ %*&#    ",
" $>>#.&;%#o#+$%4<>52*____________________4q5=;>%O$ &>>Oo--%#    ",
" $>>$O;>%% %>*:8=295=____________________9r7;<525;X*,>$#::&%  . ",
" #>>#O,<$%+-2>696,86&____________________9t0>>971>$$,>@@,>&$    ",
" %<,&#12&#@-==7q1375&____________________9p0:6r6O=#=<>&@31&#    ",
" %1<&%<1=$X=-*7q;265%____________________wi0<8w5,> ;1>&#21=$    ",
" *22=&12-% %2,6e,193@____________________8yr:5w57< -22=&21=$    ",
" *14;&34=%.&31>q3<86%____________________8uw>9e32- -24*=42=$    ",
" *14;&35*%.+*:*94785$____________________8yq<78:%@ *25=&52=#    ",
" &35;*23=%o*:;+,=w05#____________________7re,,--,;+=45=*52-#    ",
" %56-;33;&+;4<7& w96$____________________7tw1%,;31#-54=:42;$    ",
" %55-,55>%+:1;8q-q95$____________________6tq243=11%=54;164>%    ",
" &55-<77,%+;*;>82w05$____________________8yq33,--;$-54-176>#    ",
" &54-<77,%o&+57;>q07%____________________8ue2-<8-@X=53-186,#    ",
" %44;287,& *%7r2*eq5%____________________8uq2*20>%X-53:206,#    ",
" &54>3q8>% =-2w8*tw5&____________________8iq1;55;-O-54>3w7:#    ",
" *55,3q8:& #=-w0>tw8$____________________6yr,20<%* -65>4q6:#    ",
" &45,<09:* +$*7e2er0@____________________7tt,8q-=# =46>206<#    ",
" &46><00<&.+*-,t7wr9#____________________8uy4q6=,#.*36>,w8<$    ",
" %46>190,%o&14:w0er9%____________________8uu49228:+=56:1w9:#    ",
" %46:390>%O;70;80rt0#____________________8iu18>4w3%=54:408>#    ",
" %47:5ew,&o=48;70rt9+____________________9yy28;,72#=65:6w0,$    ",
" &37:5tw>&.*,6>0qer9%____________________0ur27:15,+-45>7tq>$    ",
" &46>6rw:& &,1-wqwt0$____________________7pr28>,2;@*45,7t0>$    ",
" &57>6re>& o%-;9qqrqO____________________7iw<72;:&X*76:6tq>$    ",
" %56:3ee,&.%%&3r5erw#____________________0yq336,-%X=64:4tq>%    ",
" %56;1ew:*X--=qt*wyq$____________________qi0<,e5<-.=65:1yq>%    ",
" &56>1te:- **1r4-qrq%____________________5y0><r0-&+*66:2yq>%    ",
" *46,,rr:=.&$5456wtqO____________________5tw>X8t:$o*57><yq,*    ",
" &46,:qw1-X%@2>e9erw#____________________6t0:*;0,oo;55>:rq<*    ",
" %47>>et2=O=%,0w:rtw$____________________3tq=246<$%=56>,yw1&    ",
" %46>;up>-o:&7yq1ru9@____________________1y9=3wt2*%-55,>ir2* .  ",
" &37,;ry<;X;>;31Xip0$____________________3t8- 3e,;**35>;ut1* .  ",
" =26::ti2-O=;-$52ip9+____________________3t8-$&&;*#:36,;uy<*O . ",
"&526,@wu2-O@$*>t3yy7#____________________4t7&;3>-+;525>$tt3=* . ",
">r>5<#ri<;+#2>6e,ry8+____________________<q9=;967;20,6:%yy<=; . ",
"2p>633ru<=-%1:qu8ty5&____________________>q7*107> wd>642tr<-= . ",
"3s#1igi54**+&*0u=wu4$____________________>84;6i9# ul+9pfu7<-< X ",
"8l 13131,;<$,:qy;9e5$____________________;72;5e84 yl;76554<,5 o ",
"8x>8875760w.3<4y,qe2$____________________*74&4947#tz7w000q8wq O ",
"2NmMNmhjzly ;;@5:we<&____________________;74%16>% 0xNVhlnmxz8 O ",
" sktmMhtvjr +X@<*701$____________________*53%&*+O <gnmevVmugw + ",
"#51<8**7<2:+&:;::563+____________________,61-:;-% 1e:2:43=-=    ",
"X,58723716:%8typdw2<$____________________;216fit8&1e60658>0<&   ",
"#,54,>4<:6-@108qq4:2%____________________,112q986&4q36337:2:%   ",
"@2321><><;*O%-;:&>>:$____________________:,3,:::- 5u17227<:=* . ",
"@,342,,:;-&O-<<<>,<:@____________________=;<>,1<>+3t365,<>;=& . ",
".:133>:&-==O-><<:;-=$____________________*=%=>:>;o,q123,>;;-*   ",
".:,:;:>&*$*.%*-*=;-=$____________________#*%%&=;$ =:>=->;;:=%  .",
"o=#$&@&&%$&o$$&%$@+@%____________________o#%+O###o$=&@*-==-*$ . "
};
