/* XPM */
static char *eb8dbb800bdd4698f0b8f3f8f5f7dc65AWqN7g4FBY1LeiYl[] = {
/* columns rows colors chars-per-pixel */
"79 85 239 2 ",
"   c None",
".  c #1A0700",
"X  c #161109",
"o  c #17100A",
"O  c #251809",
"+  c #351D0A",
"@  c #251C13",
"#  c #2A1D12",
"$  c #320A00",
"%  c #34240D",
"&  c #2D2318",
"*  c #322313",
"=  c #352818",
"-  c #3C321A",
";  c #2D210F",
":  c #362E25",
">  c #3C3324",
",  c #38342C",
"<  c #363533",
"1  c #3B3736",
"2  c #2D2B2C",
"3  c #46260D",
"4  c #422B16",
"5  c #482C16",
"6  c #4B331B",
"7  c #45351C",
"8  c #54351B",
"9  c #573918",
"0  c #592D10",
"q  c #653E1D",
"w  c #483B29",
"e  c #543B22",
"r  c #5A3C24",
"t  c #423D37",
"y  c #553F30",
"u  c #613F23",
"i  c #73451D",
"p  c #5C422C",
"a  c #5D4027",
"s  c #44413D",
"d  c #4A443C",
"f  c #4C4335",
"g  c #544533",
"h  c #4F452E",
"j  c #634224",
"k  c #68472B",
"l  c #784B29",
"z  c #7B512E",
"x  c #694D36",
"c  c #704D31",
"v  c #7D5333",
"b  c #785539",
"n  c #6F5029",
"m  c #3D3E41",
"M  c #3D4142",
"N  c #454747",
"B  c #575858",
"V  c #514F4B",
"C  c #6B5644",
"Z  c #775942",
"A  c #62574F",
"S  c #766248",
"D  c #70655B",
"F  c #6B6967",
"G  c #777978",
"H  c #74716C",
"J  c #88542C",
"K  c #855632",
"L  c #8B5A34",
"P  c #805A3B",
"I  c #8C5E3B",
"U  c #855935",
"Y  c #975D35",
"T  c #8A5129",
"R  c #A45D2F",
"E  c #9B653C",
"W  c #986439",
"Q  c #8D613C",
"!  c #A26539",
"~  c #A46A3C",
"^  c #AA6C3D",
"/  c #A66535",
"(  c #B46E3D",
")  c #AD713D",
"_  c #875D40",
"`  c #8C6342",
"'  c #89664C",
"]  c #946543",
"[  c #9D6A43",
"{  c #956949",
"}  c #9A7354",
"|  c #916F52",
" . c #A36B43",
".. c #AB6E42",
"X. c #A06D4A",
"o. c #B36D43",
"O. c #AD7244",
"+. c #AD744B",
"@. c #A3734A",
"#. c #B47244",
"$. c #BB7444",
"%. c #B3754A",
"&. c #BC7649",
"*. c #BB7A4C",
"=. c #B7794B",
"-. c #AB7B5B",
";. c #A67858",
":. c #B47B54",
">. c #BC7D52",
",. c #B67D59",
"<. c #9C7D65",
"1. c #867E75",
"2. c #887869",
"3. c #C47C4B",
"4. c #C57A4A",
"5. c #C47E53",
"6. c #C97C52",
"7. c #BD835C",
"8. c #B88459",
"9. c #86827D",
"0. c #98897C",
"q. c #A88267",
"w. c #B98665",
"e. c #AD8E75",
"r. c #CB814F",
"t. c #C3814D",
"y. c #C48254",
"u. c #CB8354",
"i. c #CD8659",
"p. c #C8885B",
"a. c #D28555",
"s. c #D48955",
"d. c #D2865A",
"f. c #D48B5B",
"g. c #DA8D5C",
"h. c #DB8C57",
"j. c #DC915E",
"k. c #D6905E",
"l. c #D0824D",
"z. c #E3925D",
"x. c #E9955C",
"c. c #E18F59",
"v. c #C88B66",
"b. c #DB8E62",
"n. c #D58D65",
"m. c #DC9363",
"M. c #DB956B",
"N. c #D99669",
"B. c #CC9977",
"V. c #D69A76",
"C. c #CB936C",
"Z. c #E29565",
"A. c #E39A6B",
"S. c #E99C6B",
"D. c #E59865",
"F. c #F09E69",
"G. c #E59E73",
"H. c #E99F71",
"J. c #DDA27A",
"K. c #ECA16B",
"L. c #F3A16D",
"P. c #EDA375",
"I. c #ECA57A",
"U. c #EDAA7D",
"Y. c #E3A67A",
"T. c #F4A574",
"R. c #F0A77A",
"E. c #F3AA7C",
"W. c #FBAD7B",
"Q. c #F8A974",
"!. c #FEB37E",
"~. c #888683",
"^. c #989189",
"/. c #9A9898",
"(. c #928B85",
"). c #AB9685",
"_. c #B19C8C",
"`. c #BBA896",
"'. c #AAA399",
"]. c #A9A7A6",
"[. c #B6B0AA",
"{. c #B9B7B8",
"}. c #B0A9A5",
"|. c #C89E83",
" X c #CAA28B",
".X c #D8A687",
"XX c #CAAC98",
"oX c #D1AE97",
"OX c #D9B398",
"+X c #C6B09C",
"@X c #EDAB82",
"#X c #E4AC8B",
"$X c #F5AD83",
"%X c #F7AB83",
"&X c #EDB28B",
"*X c #F6B183",
"=X c #FCB384",
"-X c #F3B38A",
";X c #FCB68B",
":X c #FEBA8D",
">X c #FDB987",
",X c #E5B395",
"<X c #F5BA94",
"1X c #FEBC93",
"2X c #F4BB9A",
"3X c #FCBD9A",
"4X c #F4B791",
"5X c #DBBAA4",
"6X c #CAB4A6",
"7X c #EBBDA3",
"8X c #FEC195",
"9X c #F7C39E",
"0X c #FDC39B",
"qX c #FFC89C",
"wX c #EDC09E",
"eX c #ECC3A9",
"rX c #FCC4A2",
"tX c #FECAA4",
"yX c #FECDAB",
"uX c #F8C6A8",
"iX c #FFD2AD",
"pX c #FFD1A5",
"aX c #E6C7B5",
"sX c #ECD2BE",
"dX c #FFD5B3",
"fX c #FAD6BA",
"gX c #F2CDB4",
"hX c #D9D7D7",
"jX c #D6CAC5",
"kX c #E6DBD4",
"lX c #EAD1C1",
"zX c #E8E1DE",
"xX c #FEECDC",
"cX c #FBE8D9",
"vX c #FFF1DE",
"bX c #E7E5E5",
"nX c #FEEEE2",
"mX c #F7EAE0",
"MX c #FEF2E4",
/* pixels */
"                                                                                                                                                              ",
"                                                                                                                                                              ",
"                                                                                                                                                              ",
"                                                                                                                                                              ",
"                                                                                                                                                              ",
"                                                                                                                                                              ",
"                                                                                                                                                              ",
"                                                                                                                                                              ",
"                                                                                                                                                              ",
"                                                                                                                                                              ",
"                                                                                                                                                              ",
"                                                                                                                                                              ",
"                                                                                                                                                              ",
"                                                                                                                                                              ",
"                                                                                                                                                              ",
"                                                                                                                                                              ",
"                                                                                                                                                              ",
"                                                                                                                                                              ",
"                                                                                                                                                              ",
"                                                                                                                                                              ",
"                                                                                                                                                              ",
"                                                                                                                                                              ",
"                                                                                                                                                              ",
"                                                                                                                                                              ",
"                                                                                                                                                              ",
"                                                                                                                                                              ",
"                                                                                                                                                              ",
"                                                                                                                                                              ",
"                                                                                                                                                              ",
"                                                                                                                                                              ",
"                                                                                                                                                              ",
"                                                                                                                                                              ",
"                                                                                                                                                              ",
"                                                                                                                                                              ",
"                                                                                                                                                              ",
"                                                                                                                                                              ",
"                                                                                                                                                              ",
"                                                                                                                                                              ",
"                                                                                                                                                              ",
"                                                                                                                                                              ",
"                                                                                                                                                              ",
"                                                                                                                                                              ",
"                                                                                                                                                              ",
"                                                                                                                                                              ",
"                                                                                      bXhX                                                                    ",
"                                                                                      {./.                                                                    ",
"                                                                                    hX/.].hX                                                                  ",
"                                                                                  kXH 9.'.].                                                                  ",
"                                                                            kXjXcX2.: 1.^.(.hX                                                                ",
"                                                                            F B (.& f H (.1.].                                                                ",
"                                                                      bX{.].m m B V F F 1.G ~.hX                                                              ",
"                                                                  bX{.^.V B B G G ~.9.~.G G G /.zX                                                            ",
"                                                                  /.B t 1 < N B H G F G F G G G [.hXbXhX                                                      ",
"                                                              mX).C * O @ @ : < N B B N V B B F ~.^.[.}.hX                                                    ",
"                                                            cXXX| ' x 5 4 * = : 2 N N M M M s V B D 9.}.{.zX                                                  ",
"                                                        cX5XOXw.B.B.B.q.} ' r 4 * 2 N M < < < 1 t V D /.0.jX                                                  ",
"                                                    cX5XeX-.C.N.Y.Y.Y.Y.J.B.-.l 3 # 2 < < < , , , t V 1.D 6XkXlXlXxX                                          ",
"                                                  xX.Xq.v.p.n.k.D.S.T.E.U.-X#Xw.P 4 @ & : : 1 s > : f D C `.aXoXoXlXsXsXcX                                    ",
"                                                xX,X,.>.p.A.h.z.x.x.L.Q.Q.=X>X@XV.' y + # = > , t > w g e _.fXeXeXgX5XoXsXsXaXcX                              ",
"                                              MXoX,.y.y.A.Z.z.D.c.x.F.T.W.=X>X:X3X|.q.e . O = : w f g p a |.dXrXtXuXyXeXyX,X XeXaXcX                          ",
"                                          MXvXOX-.7.u.m.m.Z.F.D.D.D.F.T.W.=X:X8X8X2XOX;.5 . O = > g g p b .XyX1X0X8XtX1XqX8X4X0X.XuXeXMX                      ",
"                                        MXvXoX;.w.p.f.d.Z.Z.S.S.L.S.T.W.E.%X;X1X0XtXrXwXe.6 . O > w 7 e ' .XtX1X>X8X8X>X>X=X$X1X1X&X.X7X5XMX                  ",
"                                        nXoX{ q.7.5.d.i.M.A.H.H.E.R.R.$X;X;X$X;XqXpXtXiXuX<.+ . ; > % r -.&XqX>X!.!.!.Q.F.L.L.Q.>X8X1XB.e.6XnX                ",
"                                        XX_ +.+.y.y.3.f.m.S.H.P.R.H.H.E.1X1X;X*X$X0XtXiXyXOX' + $ 3 5 v C.&X$XH.Z.g.S.P.P.E.;X;X:X8X;XJ.w.q.cX                ",
"                                    nX XP J y.$.r.r.3.u.m.m.m.A.A.s.m.P.=X:X8X*XM.Y.1XyXtXuX.Xl $ 0 l :.V.G.n.6.d.Z.R.;X1X2X3XrX1X1X$XN.8.w.`.                ",
"                                    `.k v Y 8.t.$.$.3.s.m.m.m.A.A.m.u.u.n.H.*X*XI.n.@X0X3XtXtXw.l ] -.B.V.p.#.u.H.%X:X0X0XrXrX0X1X;Xm.i.>.-.Z nX              ",
"                                  MXC c v E %.y.$.( u.k.k.Z.Z.m.A.E.M.u.&.#.u.I.>XS.N.U.1X0XtX2X#X#X#X#XV.n.u.N.E.E.=X8XqXrXrX3X*XI.a.$.Y ] 8 cX              ",
"                                MX).x ' K E O.y.*.( a.g.f.m.m.f.m.A.A.A.f.#.^ y.A.m.f.P.$X@X-X2XrXrX3X<X4X-X@XU.E.*X;X1X0X0X3X-X@X%XS.&.! [ 3 sX              ",
"                              MX).r P I E ~ O.*.&.( 6.s.s.m.m.m.A.3.3.f.A.f.&.#.$.a.h.L.S.A.;X0XqX0XtXiXtXqX1X:X:X>X:X1X4X<X<X4X*X:X=XS.U.C.{  XMX            ",
"                              e.k c U L E W E %.3.*.4.u.s.k.m.A.A.3.( $.i.y.$.$.3.c.z.L.P.$X8X0XqXqXiXdXiXtX0X8X8X8X8X8X1X3X1X1X:X1X>XW.:X-XV. XgXaXxX        ",
"                          MX_.6 c z L E  .E ! ..=.u.4.3.s.f.m.A.m.u./ R o.&.$.3.u.z.L.W.T.=X8X1X0X0XyXdXdXiXtX9X<XqXqXqXqX0X0X8X8X8X=X=X=X$X@X2X,XOXlXMX      ",
"                          `.p r v l [  .O.O.O.~ #.u.4.4.a.g.m.m.b.3./ R $.i.n.n.m.L.T.T.P.$X;X4X0X9XyXdXdXiXiXtX9XqXqXqXqX0X0XqXqX8X=X:X>X;X1X1X2X2XdXgXMX    ",
"                        nXx r j K J ! ..^ %.%.O.%.3.4.4.a.m.m.f.u.3.$.4.i.m.M.H.I.T.T.R.%X*X-X<X9XtXiXdXdXdXiXyX9X8XqXqXqX0XqXqX8X8X8X:X:X:X1X1X1X;XqX2XfXxX  ",
"                        2.5 k z K J ~ ..~ O.=.=.*.4.4.r.g.Z.m.a.3.3.6.d.m.S.P.P.R.P.R.$X;X1X1X0XrXiXdXdXdXiXiXyXtX8X8X8X1X8XqXqX8X8X8X8X1X1X:X1X1X>X;XtX7XaX  ",
"                      ).4 8 v Q l W ^ ^ ! ~ %.*.=.3.r.s.m.Z.g.u.6.u.f.A.H.P.P.P.P.E.$X;X1X0X3X0XrXyXdXdXdXyXtXrX2X8X1X1X1X8X1X4X-X-X-X1X1X1X;X;X=X>XW.1X2X X  ",
"                  xX+X6 a c P I L E ~ ~ ! ~ #.*.>.3.r.a.g.g.f.a.a.d.Z.P.P.I.E.E.I.*X;X1X1X1X1X3X0XrXtXtXtX0X<X&X#X1X1X1X1X;X&XY.J.Y.J.Y.@X$X$XE.T.Q.T.U.#X X  ",
"                MX).a 9 c v ` U E  .E ! ^ ^ ..*.y.3.6.a.f.g.f.d.f.f.A.P.R.E.=X=X=X1X1X1X1X1X1X3X1X0X0X1X1X*X@XI.I.U.@X$X@XY.N.v.p.v.7.7.v.M.M.Z.Z.h.j.V.C.<.  ",
"              cX).e 8 u c ` { ] [ [ W ~ O.^ ^ *.3.u.a.f.m.m.g.g.b.m.A.P.E.$X=X:X:X1X1X1X1X1X1X1X1X1X;X$XR.H.A.A.S.A.M.N.N.n.>.O. .E E  .:.>.>.3.u.a.u.v.} Z   ",
"          MX[.0.w j c j z ` { @.@.W W ..O.^ #.y.y.b.g.j.Z.Z.Z.Z.A.H.P.E.=X=X;X:X1X1X1X1X1X1X1X:X$X$XP.S.Z.g.a.a.s.f.u.*.&.o.W T T i l L E Y Y ^ 3.u.p.[ 8 `.  ",
"        nX+XC 6 8 P v z K I +.,.:.J ! %.#.&.i.u.b.m.g.m.S.S.S.H.P.$X$X*X;X:X1X1X1X1X1X:X;X:X:X=XH.m.N.f.i.5.&.%.%.+. .Y K z n q 9 9 j k l z K  .,.8.} j 6 cX  ",
"      mX_.S 9 9 n Q I I Y  .:.,.:.Y o.5.o.6.b.6.b.b.d.m.P.P.P.R.R.$X*X;X1X1X1X1X1X1X1X;X%XT.E.T.Z.s.i.y.:.+.X.[ ] I v k 9 6 7 7 - - 7 6 e k b { } S w h `.MX  ",
"  zXcXe.k j 9 j U Q [ E E O.%...^ ^ *.u.$.u.Z.6.h.h.a.j.K.P.T.E.=X$X*X=X:X:X1X1X1X1X:X;XE.S.S.S.j.s.u.=.#. .E J l c j 6 3 % % * = = = = 4 e k c x % - '.      ",
"nX).<.j q z l J  .W O.~ ~ O.O.~ ) t.t.u.3.s.D.s.j.h.s.z.K.K.P.!.>X=X=X>X>X>X>X:X>X;X=X=XW.T.S.z.l.4.$.( ....Y i 0 8 6 4 * # O @ @ & & & = 7 e 6 4 . ^.        ",
"0.x 5 u c v z ] ] E +. .E +.%...>.y.*.5.5.f.n.d.Z.m.b.A.H.S.P.$X;X;X;X;X:X:X;X;X;X-X@X@X@XG.M.n.&...W J J K v q 5 + * * # O X X X @ @ @ & = = * O . bX        ",
"S ' b ' } { q.;.} 8.v.w.,.v.v.v.V.V.v.v.n.M.n.M.I.@X@X%X%X%X%X1X3X1X3X3X3X3X3X3X3X2X,X,X#XV.V.B.C.w.;.` P b Z b x f d d s t 1 1 1 1 1 s s d d s t ,           "
};
