/* XPM */
static char *aa5df454627d4512f5ebbd525d77b880QkSIIoDdhiJxWpf2[] = {
/* columns rows colors chars-per-pixel */
"56 61 246 2 ",
"   c None",
".  c #030400",
"X  c #0A0400",
"o  c #070800",
"O  c #0B0B03",
"+  c #0E0D0A",
"@  c #04080A",
"#  c #150C01",
"$  c #1A0903",
"%  c #0E1004",
"&  c #0E100A",
"*  c #121305",
"=  c #13140C",
"-  c #1B1709",
";  c #0B1412",
":  c #151512",
">  c #1B1C14",
",  c #1E1E1A",
"<  c #191713",
"1  c #271705",
"2  c #321A05",
"3  c #261B14",
"4  c #230C00",
"5  c #1F2113",
"6  c #1F211A",
"7  c #1F220E",
"8  c #34240B",
"9  c #3A250A",
"0  c #232415",
"q  c #23241B",
"w  c #292B1B",
"e  c #2A2718",
"r  c #362917",
"t  c #342D0F",
"y  c #1D2322",
"u  c #252523",
"i  c #2B2B24",
"p  c #2C2D2A",
"a  c #262827",
"s  c #342E28",
"d  c #2F3125",
"f  c #323424",
"g  c #32332C",
"h  c #393828",
"j  c #343432",
"k  c #3B3C33",
"l  c #3C3D3A",
"z  c #373831",
"x  c #47280C",
"c  c #432D13",
"v  c #472B17",
"b  c #4C341A",
"n  c #443319",
"m  c #583919",
"M  c #572F07",
"N  c #683915",
"B  c #693A10",
"V  c #483725",
"C  c #543D25",
"Z  c #583C26",
"A  c #423532",
"S  c #603C28",
"D  c #3E403A",
"F  c #3D402C",
"G  c #69421D",
"H  c #74431C",
"J  c #78481D",
"K  c #5C4224",
"L  c #58442A",
"P  c #43433D",
"I  c #484537",
"U  c #5C4935",
"Y  c #5D583C",
"T  c #4C402C",
"R  c #644A2B",
"E  c #6C4A2C",
"W  c #694626",
"Q  c #734B26",
"!  c #7B4A23",
"~  c #744D2B",
"^  c #7B4D2B",
"/  c #754723",
"(  c #7D512C",
")  c #7A5128",
"_  c #664933",
"`  c #67533D",
"'  c #7B5433",
"]  c #775737",
"[  c #725031",
"{  c #3C4443",
"}  c #454543",
"|  c #4B4C45",
" . c #4D4D4B",
".. c #4C4546",
"X. c #52534D",
"o. c #5B5749",
"O. c #5B5B56",
"+. c #5C5D5A",
"@. c #565653",
"#. c #524E48",
"$. c #655542",
"%. c #7A5B43",
"&. c #796149",
"*. c #62625D",
"=. c #7A685B",
"-. c #6D624C",
";. c #696A67",
":. c #71726D",
">. c #7D7D79",
",. c #797874",
"<. c #766867",
"1. c #844D25",
"2. c #83532E",
"3. c #8B552C",
"4. c #875529",
"5. c #96582A",
"6. c #845533",
"7. c #835C35",
"8. c #8C5B34",
"9. c #8B5C3A",
"0. c #885837",
"q. c #935B34",
"w. c #925D3B",
"e. c #9A5E33",
"r. c #A25D30",
"t. c #8D623C",
"y. c #87603E",
"u. c #93623D",
"i. c #9C643C",
"p. c #9C6A3D",
"a. c #966337",
"s. c #98642E",
"d. c #A46434",
"f. c #A4653A",
"g. c #A36A3D",
"h. c #AA6A3C",
"j. c #AA6639",
"k. c #B36C3B",
"l. c #A9723E",
"z. c #BA713E",
"x. c #87481B",
"c. c #8B5E46",
"v. c #8D6344",
"b. c #886648",
"n. c #926342",
"m. c #9C6642",
"M. c #9C6A43",
"N. c #986A48",
"B. c #9C744B",
"V. c #9B6D51",
"C. c #9E7358",
"Z. c #87715A",
"A. c #A36C43",
"S. c #AB6E42",
"D. c #A86A46",
"F. c #B36E44",
"G. c #BA6C45",
"H. c #A57244",
"J. c #AC7245",
"K. c #A4734B",
"L. c #AC744B",
"P. c #A97A48",
"I. c #B47344",
"U. c #BB7344",
"Y. c #B3744A",
"T. c #BA754B",
"R. c #BB7A4C",
"E. c #B5794A",
"W. c #A47353",
"Q. c #AA7956",
"!. c #B57B52",
"~. c #BC7D52",
"^. c #B77955",
"/. c #967867",
"(. c #897B6F",
"). c #C37C4B",
"_. c #C37647",
"`. c #C37C55",
"'. c #CA7B54",
"]. c #7E807A",
"[. c #BA8257",
"{. c #AD8057",
"}. c #858379",
"|. c #9B8670",
" X c #A8866B",
".X c #B98767",
"XX c #A38A78",
"oX c #A99279",
"OX c #C9824E",
"+X c #CB8454",
"@X c #C4855A",
"#X c #CB865B",
"$X c #C78859",
"%X c #D48C5B",
"&X c #D38656",
"*X c #D38C56",
"=X c #C48C61",
"-X c #C98B65",
";X c #D78C64",
":X c #CB9269",
">X c #D69364",
",X c #D89568",
"<X c #D59A76",
"1X c #CC9772",
"2X c #E49969",
"3X c #E49E72",
"4X c #E8A376",
"5X c #F3A776",
"6X c #EFA875",
"7X c #D6A076",
"8X c #7E7B80",
"9X c #8A8A86",
"0X c #969489",
"qX c #9D9D9A",
"wX c #979893",
"eX c #90908B",
"rX c #A99C9B",
"tX c #A69380",
"yX c #A1A29D",
"uX c #B9AB9E",
"iX c #A8A9A5",
"pX c #AFB1AC",
"aX c #B6B7B5",
"sX c #B3B4AC",
"dX c #A49F9F",
"fX c #FFB588",
"gX c #FDBB95",
"hX c #F7AD86",
"jX c #C6B6AF",
"kX c #C0A599",
"lX c #C3C3BB",
"zX c #D6CAB2",
"xX c #E7D1BE",
"cX c #E3CEBC",
"vX c #C0BDC0",
"bX c #CACAC9",
"nX c #DADAD7",
"mX c #DED0CA",
"MX c #EAD7C4",
"NX c #E6DBD3",
"BX c #E6E2D9",
"VX c #F1ECD9",
"CX c #E7E7E4",
"ZX c #FDF7E4",
"AX c #EBF1E9",
"SX c #DFE0DA",
/* pixels */
"                                                                  aXiX                                          ",
"                                                                  l l                                           ",
"                                                              eXeX+ , >.wX                                      ",
"                                                          >.qX| } + > > p 9XwX                                  ",
"                                                        :.j X.9XX.< : p g q i qX                                ",
"                                                      nXq  .}  .d : = > z d > P                                 ",
"                                                      ;.D p , o o o * O = > q p yX                              ",
"                                                    BX= P : = : q 5 * 5 O o 0 O |                               ",
"                                                  AX;.i z < g z k k 0 q 5 - * O i qX                            ",
"                                                  ;.> g q g +.| X.k w 5 w f - % o q yX                          ",
"                                                CX. g i i | eXO.O.D g w 5 f h * o % X.                          ",
"                                                :.= z q D O.pX,.X.} z k e h F 7 O O g yX                        ",
"                                              CX= p g > | ;.yXeX} | z X.f h h 0 O o O |                         ",
"                                              ;.> z q p @.,.:. .q k a z > w h 7 - % * q iX                      ",
"                                            nX> g q q P ;.*.l @ . q + % . 0 h e 7 0 > O X.                      ",
"                                            ;.p g q p O.wX;.} l a p < < * 0 f f w h d < i qX                    ",
"                                        CX  p l P z u :.aXqX9X9X@.} g q 0 e w d w k z > o  .                    ",
"                                      CX>.wXO.eX>.l , :.qXiXyX9XX.P p q q 0 5 i w P | p :  .                    ",
"                                      ].q l | ;.+.j j ,.pXsX}.*.P g q 6 , = + , g  . .l +.} yX                  ",
"                                      +.+ , i s u , X.wXnXqX*.g q > < = & o o + u } } g O.a a aX                ",
"                                      bX< O A ,.j u  .qXjXX.9Xg g i q q = = + . = i l > > q + >.                ",
"                                      bXa i s (.g j } qXpX< wXk P g i q < > < . o < g , & > O :.                ",
"                                      8XX.j = ..a z P 9XiXo O.q > < = + o = = o o O q i = o > >.                ",
"                                      aXvXa X < } a } ;.].> p = o + o . . . o o o o % q p . P bX                ",
"                                          j : : } a +.;.+.a + . . o . . o . . . . * % % k . O.                  ",
"                                        CXp u u j u eX,.O.g + + + + o . o o . . . = 0 = g . @.                  ",
"                                      NX9Xa p a p > lXeX;.} p a a q = o . . . . O 5 i = w . @.                  ",
"                                  VXMX0Xf a l y j , bX(.*.P g a u , + . . . . . = d i o q . D SX                ",
"                                MXoX|.&.r s { a D , iX*.} g a > : O . . o o o O 5 f q o q . < eX                ",
"                              MX Xv.] E c A X.{ l = *.*.@.j j u , + o o = = < > f w < o < . o P CX              ",
"                            xX Xu.M.K.G b 1 P l p = a @.+. .+.} l p 6 6 q q q q g > = o o . . > iX              ",
"                        mXMX Xn.A.S.R.a.E 1 < u u p , g l l +.} l j i i i w 0 > = O O . . o . o >.              ",
"                    NXmX(./.N.A.F.j.).J.0._ 3 + q k z p p + , : : : : = = % O o . o o . = > + = :.nXlXlXBX      ",
"                  cX|./.%.v.V.A.g.f.$X[.M.9.m 1 1 e I o.;.& y j . y ; . o o . . . o o # r C C L ` Z.-.o.}.VX    ",
"                xX X~ ^ M.L.g.J.A.A.[.:X!.S.5.B 9 e f o.].;  .;.; { a @ @ @ . . o # 1 c W 7.y.7.) G K L T XXVX  ",
"                |.] ' u.A.S.A.L.A.i.!.=X=X:X$XA.] L 9 V $.# I X.+ p 3 X X X X $ 1 c E v.W.L.J.A.M.t.' b.] U XXNX",
"                %.~ t.M.g.L.I.h.f.i.S.~.@X,X3X>X.XC.%.S Z v n r 1 # # X $ 4 1 Z S n..X<X<X;X#X#X`.!.m.9.C.%.v kX",
"                b.~ t.K.A.S.F.F.S.f.f.S.Y.#X,X,X<X<X.XW.c.0.] _ Z 9 x v m W [ W.^.<XgXgXhX3X2X;X#X~.L.0.c.V.x XX",
"              ZX&.W 9.P.J.f.j.I.I.h.f.d.h.R.OX+X;X2X-X-X^.^.Q.N.6.^ 0.n.K..X=X<X4XhXfXgXfX5X2X&X'.T.L.1.W v.x oX",
"            ZXcXR W t.K.A.g.d.h.Y.E.Y.g.d.d.j.k.'.'.;X`.S.=XD.i.q.A.L.!.-X,X,X,X3X4X5XfXfXfX2X).I.J.^ G m _ Z =.",
"            cXZ.m W 7.u.p.g.s.f.J.!.!.L.J.h.d.d.k.d.).I.r.I.d.f.f.R.R.+X%XOX+X+X*X>X2X6X5X5X*XI.J.p.Q m 9 n ` f ",
"          cXtX_ b K [ 6.u.i.q.a.i.A.K.L.[.[.I.h.5.5.d.k.h.h.h.I.U.R.U.+X&XU._.OX).+X%X,X2X%XR.g.M.7.] n # t T 0 ",
"          (.&.%.c C R ~ 6.9.8.8.w.u.M.K.Q.!.J.g.5.s.g.l.J.I.I.I.R.).+X%X&X)._._.R.R.$X>X%X).S.p.u.] R n X - e w ",
"          =.$.U r b K W ~ ( 2.6.9.9.n.M.M.m.i.g.p.l.P.P.J.J.E.R.R.>X4X4X2X;X+XU.F.T.+X%X#XT.A.u.v.] R 8 $ e - A ",
"          =.U n 8 n K R W Q ^ 2.0.0.9.n.u.w.a.A.p.B.P.P.H.g.J.Y.$X,X3X4X4X2X+XU.j.F.'.#X'.G.A.w.0.%.Z 2 1 3 A dX",
"          uXU 2 8 9 m R G G H / ( ( 6.9.9.8.q.i.J.H.H.H.J.J.J.h.R.T.R.$X,X>X~.j.e.S.T.`.T.F.m.9.' ` C 1 A <.rX  ",
"          ZX$.4 2 8 K ] Q H H H / ^ 6.9.w.q.e.i.J.A.g.S.Y.~.~.R.I.F.S.S.!.[.L.e.3.f.T.T.Y.D.n.6.E Z V $ <.CX    ",
"            U $ 8 9 R v.6.) 1.! ! 3.u.M.m.A.S.J.T.~.`.T.F.k.F.T.~.`.E.g.g.J.M.3.J e.L.L.K.M.6.E K n r O ,.      ",
"            $.1 c x [ B.M.a.a.3.4.M.L.H.g.S.I.I._.'.'.'.G.G.G.T.F.Y.Y.J.A.a.) G B 4.K.K.N.7.E m t t * d aX      ",
"            #.2 m m t.{.L.A.i.e.5.I.@X~.~.@X$X+X_._.U.G.G._.'.'.U.j.5.g.A.8.J M M ) N.v.] R K n 1 * q pX        ",
"            rXn m B p.!.A.f.5.e.k.+X>X#X@X@X@X$XOXOX*XOXU.U.U.U.+XU.5.5.q.t.' M m Q ' [ L C V e = o *.          ",
"              $.x G B.B.8.a.A.^.:X:X@X!.A.q.3.q.f.J.@X:X=X^.^.Y.Y.!.A.2.W [ ] K m W E R C n r - o i aX          ",
"    AX      ZXY 9 R b.] ' V..X.X.XW.w.w.n.0.^ 2.8.6.n.V.V.V.W.W.V.N.C.v.K V T ` m m Z b c r 1 # . *.            ",
"              $.m G Q ^ u.L.L.g.f.h.S.~.-X@XY.J.J.i.i.i.8.2.2.3.i.q.K.N.~ m c b m m n 8 1 1 # o o ,.            ",
"              b.N J 4.i.J.S.I.z.).2X6X5X2X+Xz.k.I.j.f.h.f.e.e.3.1.x.5.4.2.' m 2 c n r 1 # X O O o ;.            ",
"            jX_ E u.u.i.A.L.!.R.$X3X5X6X3X#XU.I.e.1.1.3.i.K.K.i.q.1.H H Q ] _ n 1 r r 3 # X O : . +.            ",
"        jXrX=.` b.Q.y.( 6.6.3.1.3.i.L.~.$X$X@X=X[.K.t.^ Q 6.n.n.V.M.( G m Z ` U e 3 - # O O + + p pX            ",
"  lX0X0XY V %.b.b.b.' ' ' ^ 6.w.m.L.L.A.L.J.A.L.A.A.M.9.6.9.u.8.8.u.u.9.N v K C h e O . O o o a iX              ",
"zXY 8 t t 9 E W ~ ~ ~ ~ ~ ~ 6.M.Q.1X<X1X<X:XL.g.3.1.H / t.Q.Q.M.3.1.M.Q.y.m x 2 s i o . + @ p iX                ",
"XX$ 2 8 c x ] ' ( Q Q ^ ^ ^ / / 2.q.8.A.1X7X=X[.E.g.3.H H 8.Q.=XJ.q.H..XK.Q x 4 1 = . . o @ +.                  ",
"/.$ c 9 C _ C..XW.n.9.N.W.W.u.2.H H B B 1.q.p.!.[.@X[.A.! B 4.g.E.E.$X=XA.! M 2 X . . @ @ . @.                  "
};
