/* XPM */
static char *e75782e739894892c507e33ec3273fadtB9QNagKFRbOK3BT[] = {
/* columns rows colors chars-per-pixel */
"76 81 252 2 ",
"   c None",
".  c #030301",
"X  c #0B0300",
"o  c #060901",
"O  c #0B0B03",
"+  c #0C0C0A",
"@  c #03050A",
"#  c #130B01",
"$  c #140A05",
"%  c #0E1104",
"&  c #0F1008",
"*  c #131403",
"=  c #13130C",
"-  c #1A1C0D",
";  c #1A1607",
":  c #141412",
">  c #1A1B13",
",  c #1C1C1B",
"<  c #181811",
"1  c #0B1014",
"2  c #2B1B04",
"3  c #261707",
"4  c #351C06",
"5  c #281C14",
"6  c #28140D",
"7  c #1E2114",
"8  c #1E201B",
"9  c #1C200F",
"0  c #29220A",
"q  c #392409",
"w  c #222516",
"e  c #23241C",
"r  c #262A1C",
"t  c #2A2C1D",
"y  c #2B2412",
"u  c #342512",
"i  c #34291A",
"p  c #3A2B17",
"a  c #3F3214",
"s  c #242423",
"d  c #2B2B24",
"f  c #2C2B2B",
"g  c #282624",
"h  c #2E3124",
"j  c #33332C",
"k  c #373629",
"l  c #353533",
"z  c #3B3B34",
"x  c #3C3C3A",
"c  c #383635",
"v  c #2F2D2C",
"b  c #1A252C",
"n  c #46290B",
"m  c #442C15",
"M  c #4B351B",
"N  c #49331A",
"B  c #543A1C",
"V  c #5B3B1C",
"C  c #563616",
"Z  c #512F0A",
"A  c #63350C",
"S  c #663A17",
"D  c #733C18",
"F  c #493825",
"G  c #543C22",
"H  c #563D25",
"J  c #463F37",
"K  c #623F24",
"L  c #3E4137",
"P  c #3B402D",
"I  c #5B421D",
"U  c #6A441B",
"Y  c #76451C",
"T  c #5C4124",
"R  c #5B452C",
"E  c #42433C",
"W  c #594936",
"Q  c #4F432D",
"!  c #634424",
"~  c #6D4B25",
"^  c #6D4B2B",
"/  c #674627",
"(  c #7A4B25",
")  c #734C2C",
"_  c #7B4D2B",
"`  c #764823",
"'  c #75512C",
"]  c #7B522D",
"[  c #7E5326",
"{  c #664B34",
"}  c #6C5438",
"|  c #7B5432",
" . c #785737",
".. c #754F30",
"X. c #3E3D41",
"o. c #3A4851",
"O. c #454443",
"+. c #4A4B43",
"@. c #4C4C4A",
"#. c #494844",
"$. c #53534E",
"%. c #5E5345",
"&. c #5B5B54",
"*. c #575756",
"=. c #4F4C48",
"-. c #685848",
";. c #765A43",
":. c #615953",
">. c #65675D",
",. c #796B5B",
"<. c #6B6A67",
"1. c #75746B",
"2. c #747372",
"3. c #7B7B77",
"4. c #5F6058",
"5. c #8F4B1E",
"6. c #844C24",
"7. c #894D29",
"8. c #8B552B",
"9. c #87562A",
"0. c #97572A",
"q. c #845432",
"w. c #845B34",
"e. c #8C5B34",
"r. c #845C3B",
"t. c #8B5D3A",
"y. c #895732",
"u. c #935C34",
"i. c #9B5D34",
"p. c #945E3A",
"a. c #975834",
"s. c #A15F35",
"d. c #A25B2C",
"f. c #8B623A",
"g. c #9B6235",
"h. c #93633B",
"j. c #9C643B",
"k. c #98663A",
"l. c #A46335",
"z. c #A4653B",
"x. c #AB663A",
"c. c #A5693D",
"v. c #AC6A3C",
"b. c #AA6536",
"n. c #B26C3C",
"m. c #B76A37",
"M. c #B7713E",
"N. c #855E42",
"B. c #886445",
"V. c #946443",
"C. c #9C6541",
"Z. c #9C6B43",
"A. c #986B48",
"S. c #9C7249",
"D. c #9B7455",
"F. c #8A6E55",
"G. c #A46C43",
"H. c #AB6D43",
"J. c #A46E49",
"K. c #A56742",
"L. c #B36E43",
"P. c #B66E49",
"I. c #AC7145",
"U. c #AC734B",
"Y. c #A7754B",
"T. c #B47245",
"R. c #BB7444",
"E. c #B3754B",
"W. c #BA754B",
"Q. c #B3794D",
"!. c #BC7A4C",
"~. c #BE7847",
"^. c #AB7652",
"/. c #AC7A52",
"(. c #A67956",
"). c #B37B53",
"_. c #BC7D52",
"`. c #B77A56",
"'. c #887767",
"]. c #8A7D6E",
"[. c #A07F6D",
"{. c #C37B4C",
"}. c #C77A47",
"|. c #C47D52",
" X c #C97E57",
".X c #7E837E",
"XX c #BC835B",
"oX c #BA8154",
"OX c #A7815D",
"+X c #86837B",
"@X c #9A8677",
"#X c #BA8862",
"$X c #AE8A70",
"%X c #9E8156",
"&X c #CB824E",
"*X c #C48254",
"=X c #CB8454",
"-X c #C4845C",
";X c #CB845C",
":X c #CC8A5C",
">X c #C48A5D",
",X c #D38A5C",
"<X c #D38757",
"1X c #D58955",
"2X c #CD8C63",
"3X c #C68B65",
"4X c #D38D62",
"5X c #D98F61",
"6X c #CA926A",
"7X c #DB9569",
"8X c #DD9B6C",
"9X c #D79365",
"0X c #D79B75",
"qX c #CD9672",
"wX c #E59A69",
"eX c #E39D73",
"rX c #E9A476",
"tX c #F5AB79",
"yX c #F1A771",
"uX c #D79766",
"iX c #7D7C82",
"pX c #888884",
"aX c #93938C",
"sX c #9E9D9C",
"dX c #959594",
"fX c #938E88",
"gX c #AF9C8D",
"hX c #B2A593",
"jX c #A9A9A6",
"kX c #B6B3AC",
"lX c #B8B7B5",
"zX c #B2ABAB",
"xX c #A29EA3",
"cX c #C5B09B",
"vX c #EAAA83",
"bX c #EDB287",
"nX c #FCB98A",
"mX c #F7BA93",
"MX c #C7B9A6",
"NX c #C7BDB4",
"BX c #FFC196",
"VX c #D4C8B9",
"CX c #C7C2B9",
"ZX c #C8C8C5",
"AX c #DBDBD8",
"SX c #D1D2CE",
"DX c #E9DACD",
"FX c #E6E3DB",
"GX c #FAE6D8",
"HX c #E6E7E3",
"JX c #FBF4E4",
"KX c #DFE0D8",
/* pixels */
"                                                                                                            ZXZX                                        ",
"                                                                                                          AX#.3.                                        ",
"                                                                                                      FXjXdXo E dXlX                                    ",
"                                                                                                  AXaXxX$.E o , e &.jXCX                                ",
"                                                                                                HX2.l <.<.L + = > c j *.ZX                              ",
"                                                                                                ZX, $.&.1.O.d s l L d = +X                              ",
"                                                                                                3.f $.J l f d r l j j = +.ZX                            ",
"                                                                                              ZX: #.l e O & = + > < w w & +X                            ",
"                                                                                              ZXo O.: = = = = & < & & e o 3.                            ",
"                                                                                              <.d j = e j l j 7 7 < % = o =.ZX                          ",
"                                                                                          HX2.= c r z #.#.+.x w 7 r w % o - $.ZX                        ",
"                                                                                          SX+ j j , &.1.4.$.L d r h k 9 * o o aX                        ",
"                                                                                        HX2.> j r x <.aX>.$.E z r w z k ; o o @.ZX                      ",
"                                                                                        SX: j r r &.<.zX+XE z +.+.r z L - o = = dX                      ",
"                                                                                      HX<.< j r j &.3.pX*.g x l L 7 k P - % o + @.ZX                    ",
"                                                                                      AX. d d r l $.<.#.. : s & o o w h ; 7 + = + dX                    ",
"                                                                                    HX1.= j r e E &.O.> . + . . . . * k w r s + , O.ZX                  ",
"                                                                                    KXO h j r d 1.kX2.f g , , : + = > L h w l , f . pX                  ",
"                                                                                    FX= z j j g sXAXsX3.2.O.X.f , e w j t t E f , . pX                  ",
"                                                                                  fXzX#.fX>.d g pXjXsXxXiX*.X.f s s 8 w t r #.O.s . pX                  ",
"                                                                                fXd +.&.fX>.g x 3.sXlXdX<.@.x s s 8 < & r d $.@.*.&.*.SX                ",
"                                                                              HXj w e d j g g $.sXZXsX&.c g , = = = O . < h *.l @.2.e *.AX              ",
"                                                                                aX. & E &.g d &.kXlX>.>.t h w 7 - = + . o > #.j < s s + zX              ",
"                                                                                FX+ g @.2.g j *.kXfXh aXE E l h e > > + . o e j < = < : sX              ",
"                                                                                <.j j s @.f f @.jXpX+ <.e d 7 = o + : : . . + d r O < O dX              ",
"                                                                                = x 5 = f O.g @.pX3.= x = = + o . . : : . . = - d = < o sX              ",
"                                                                                aXpX= O = O.f @.2.<., g o . . . . . + + . . o % d 7 o @.SX              ",
"                                                                                  HX: = : O.f *.<.*.g : . . . . . . . . . . = O w d . pX                ",
"                                                                                  KXe g g c l pX<.*.g . . . . . . . . . . . > O w t . fX                ",
"                                                                                FXaXd e g s l ZX3.>.x s e , : + . . . . . O t * w e . fX                ",
"                                                                              GXfXk h c g s l AX3.&.L l d g , + . . . . o * k - - r . 3.                ",
"                                                                          GXgXgX-.u i c f x j lX>.+.h r r = O . . . . . % - k - O < . x ZX              ",
"                                                                        GXgX;.F.{ p J +.c l > 3.&.+.j g r < O . o O * * - r r - O O . . pX              ",
"                                                                      GX$XB.D.B.V m p =.x g : E *.*.@.O.j j , < - w w w r t w = O O o . x SX            ",
"                                                                    GX$XV.J.^.Y.| C X 5 f f s e x #.*.<.x O.c f d d t w 7 7 < O . . . . o zX            ",
"                                                                  GX[.N.C.U.Q.Q.S.! 2 # s v x e , , s x s f s , : : = = % O O . . . . . . zX            ",
"                                                              HXHX@X;.S.K.H.T.Q.Y.) H # : v @.@.l s @ + @ + @ . . . . . . . . . . + = o + xX  HXFX      ",
"                                                            FX@X$X .D.Z.H.c.I.*XQ.V.^ n $ 3 F :.].<.1 v s @ b 1 @ . . . . . X X # u N m N F.@X].,.kX    ",
"                                                          FX$X_ 9.Z.j.c.H.c.c.>X>X).h.( Z 4 m F +X+X= *.*.1 o.b @ @ . . . X # 2 n / _ q.y.` ` S B ;.VX  ",
"                                                          @X .e.C.j.H.U.c.l.z._.2X3X3X^.y.` B 4 W -.$ +.@.= x : . . X X X 3 q K | A.S.C.j.u.h._  .;.-.NX",
"                                                          W B.e.C.G.I.E.z.s.l.T.*X-X0X0X3X`.N.K T G 4 F i # 6 X X X $ 2 p G N.OX#X6X3XoX_.Q.H.h.r.D.R W ",
"                                                          { r.e.J.U.K.I.T.n.b.v.T.W.0X0X0XqX3XD.A.r.^ { H m 4 4 4 4 C ) B.(.qXbXbXvXrX4X:X:XE.J.f.A.F.2 ",
"                                                          { | j.U.K.K.E.v.L.v.x.x.x. X-X2X6X0X3X3X).Y.S.V._ ) | t.A.^.XXqXrXvXBXnXnXyX,X=X{.T.H.( ) B.q ",
"                                                        DXH _ C.J.j.H.H.l.!.T.L.x.l.v.L.W.-X-X9X_.U.`.^.p.u.j.J.`.6X8X9X7XeXtXnXnXnXtX=X{.T.v.u.A S ;.m ",
"                                                      DX'.C _ y.J.J.j.z.c.E.!.!.L.T.z.z.s.T.n.{.v.x.H.z.0.s.T._.;X,X<X1X1X1XwXwXtXnXyX{.R.v.g.Y A Z H { ",
"                                                    DX'.{ B ' ] V.J.h.k.j.g.E._._.-XE.H.i.i.i.d.d.l.s.x.v.L.{.*X=X=X}.}.1X&X=X,XwXtX7X~.T.c.u.( C 2 m -.",
"                                                    '.} ;.N ~ ' w.h.h.f.h.k.H.U._.XXoXE.z.0.0.0.l.x.v.n.R.R.R.R.{.&X}.}.&X}.}.<X5X7X:XT.H.k.f.) n 3 p W ",
"                                                    -.,.R q U ~ ] w.f.w.f.f.k.G.U.).Q.I.j.i.i.v.T.W.T.T.R.~.{.{.<X<X}.R.}.R.{.,X,X4X_.H.Z.f.r...4 # 3 k ",
"                                                    ].-.N q C U ~ ' | | w.f.e.h.Z.J.J.c.j.g.I.T.T.T.T.W.!.*X7X8XeXwX=X~.R.T.{.,X;X-XQ.Z.V.r. .R u ; ; 5 ",
"                                                    '.F a n Z V / ~ ~ ' q.w.t.h.h.h.u.g.c.H.U.E.E.H.H.T.*X:X8XrXrXrX9X!.H.v.W.=X*X_.U.k.f. . .F y ; < l ",
"                                                    ,.M 2 q n C / ! U ~ _ ] w.y.e.e.8.i.K.E.K.U.Q.E.H.v.T.W.!.=X4X8X9X_.z.i.L.|._.`.Y.h.r...{ F 3 k +.dX",
"                                                    W F 3 4 n V ..) ! ~ ) _ ( q.p.p.i.i.z.H.K.J.I.E.!.!.T.n.v.n.T.oX>XE.u.8.x.W.!.Q.J.t.| / { N X fXNXHX",
"                                                    1.u 2 4 n ^ B.r.) ) ) _ q.p.C.G.K.K.L.Q.).U.H.H.T.!.!.!.~.T.l.v.Q.c.7.6.l.R.T.I.j.q.) B M m X jX    ",
"                                                    DXu 0 q Z | S.A.w.q.e.u.j.G.H.I.Y.Q.oX-X4X:X-XE.z.x.T.T.|._.I.j.k.e.` U i.H.J.Z.t.) ! N p 5 h ZX    ",
"                                                      i u m Z t.^.J.j.z.z.z.i.c.I.H.I.Q./.Q.=X&X,X,X X_.E.i.z.E._.k.q.~ C C y.k.h.r...T F i ; & ].      ",
"                                                      i u B V B.(.Y.J.G.i.a.H.E.W.W._.-X_.T.n.M.R.{.-X2X_.H.a.i.J.Z.w.S n C q.e.] ) ! M p 3 X z ZX      ",
"                                                      ,.p N / F.%XS.S.e.9.K.;X:X,X;X;X,X;X;X|.=X|.L.E.E.`.-XU.8.8.k.V./ n T ] ] ~ ! H N u ; . 3.        ",
"                                                      VXF N ! Y.Y.e.g.G.Q.2X9X-X!.H.l.i.z.T.!.4X2X-XXX).U._.).k.9.( |  .H B ^ ) ! H N u 3 # d lX        ",
"                                                        F N D z.i.7.H.;X2X2XE.l.8.8.9.Y Y 9.g.v.I.Y./.U.J.Y.G.J.e.A C } { H T T M m u ; # . 2.          ",
"                                                        F V U 6.7.u.Q.`.H.z.l.v.E.oXE.z.z.I.g.g.u.e.y.y.u.h.Z.J.k.U Z N N R M N u 5 3 # O . 2.HX        ",
"                                                        R T ~ [ e.J.Q.I.H.E.2XeXrX7X*XT.T.E.H.j.Z.C.e.q.q.( e.y.f.w.^ m 2 N F p 3 * # X O X s kX        ",
"                                                    hXMXG ^ f.h.Z.Y.U.U.oX2XvXbXvX7X*X_.L.0.7.9.e.A.S.A.h.y.( Y ( |  .{ u 3 i k ; X X X & . . sX        ",
"                                                CXMXW ;.} B.A.f.9.9.9.8.0.g.E.-X9X4X;X;X-XE.8.y.( _ f.A.A.A.p.( S C ! } F y ; d $ . + + + . . jX        ",
"                                            CXNX-.-.{ ..D.Y./.c.i.g.z.z.i.i.u.8.u.j.k.j.).3XoXY.h._ ` _ e.h.J.h.` Z N W Q k > + . O + . . + x NX        ",
"                                          CX%.%.F N ..B.h.G.W.W._.;X2X6XqX0X3X/.C.e.[ [ w.w.Z.Z./.^.e.` ( 6.j.Z.V.U m G F k g + . + . . + l kX          ",
"                                        VX-.i y m m S ] Y 7.9.9.y.u.u.C.).6X0X0X0X6X`.J.i.Y 7.Y y.J.^.J.p.6.8.Z./.| N q u h 5 + + + . x 2.xX            ",
"                                        ,.3 u 4 n V S ( 6.Y U U ` ` U Y _ y.J.C.`.vXeX XP.W.j.( D Y j.XXXXG.8.J.#XA.T q ; ; + . . + . pXAX              ",
"                                        F 2 u 4 B ^ w.U.!.l.9.e.k.Z.V.e._ ` D S ( C.U.^.XX3XXX).p.Y Y u.U.).Q.XX#XA./ a * O o . . . . dX                ",
"                                        W 2 F { B.w.Z.>X8X*Xi.H.XX3X#X^.V.q._ ` S A A ( A./.XX6X3XG.6.D 6.j.XX>XXXf.! N ; . . . . + . dX                ",
"                                      cX{ n  .(./.h.I.*X8X*X0.U.>X6X-X-XK.a.a.u.6.U S Z S ) V./.#X3X^.6.A D u././.r./ G ; . . . . : . aX                ",
"                                  MXcX{ S q.j._.2Xl.v.!.*X:Xi.I.>X2XW.4XP.0.i.E.j.] ~ C Z n I  .S.`.3XQ.6.A U h.V.q./ G * . . . . + x ZX                ",
"                                VX;.T / ) G.Q._.rXn.v.T.v.8Xv.z.:X7X=X5X;Xi.x.-X^.t.| ~ V Z q I | p.).3XU.( A ~ q. .{ M * . . l 3.2.zX                  ",
"                            kXhXF.T ! V.^.`.;X!.eXR.R.M.0.wX!.l.:X8X4X7X4Xz.z.-X/.V.r.' / B 4 q V ) V.).#XS.A Z ^ { { i O . l kX                        ",
"                          VX} / ) ) t.oX_.:X9X&X5X}.,XR.0.9X5XR.|.8X5X7X!.s.i.U.J.V.r.) ^ ! m 2 q B ^ | D.OX~ Z B F F 3 . . <.                          ",
"              JX  GXJXcXgXF.~ Y g.g.!.4X&X}.wXwX1X1XyX}.m.wXyX<XR.wX8XeXx.8.i.C.h.V.w.~ ^ ^ F 3 2 0 B V B.D. .m q y t + . . 2.                          ",
"                  MXhX} { ! ' C.J.U.6X:X8X!.{.wX5X9XnX4XW.wXwX X{.rX8X8Xz.6.u.u.e.t.q.~ ) ^ F 5 3 # a B  .f.B.N 0 0 - . @ c lX                          ",
"              VXgX'.{ { ^  .t.J.p.#XqXXX6X2Xc.2X3X-XmX0X3XvX|.m.,XrX4XoXg.Y 9.9.( ] ' ) ) ! m 5 3 . p M } '  .M 0 w o . l zX                            ",
"            NXF.{ ..^ q.t.C.I.T.T.:XwX=XW.9XT.~.R.T.rX8X2XBXn.d.8XtXoXj.9.U Y ' ' ) ' | ) B 6 5 5 . 0 a / ! T G 3 * j .XjX                              ",
"      VXhXcXF.^ t.q.6.7.U.T.m.}.wXwXyX1Xm.wXm.m.M.m.,XwX9XnXv.0.8XrXQ.k.[ U U ~ ^ )  . .! n 6 5 y O ; p T V B q W 1.jX                                  ",
"JXVXgXF. .N.r._ h.U.K.W.W.|.M.<XtXtXnXwX&XrXn.b.n.b.|.9X9XnXH.y.3XqXS.f.' ! ! T ! }  .{ n 3 5 i i * ; u H G m M CX                                      ",
"gX'.B B | r.Z.J.Q.2X|.9X;X7X9XwXtXtXnXnX4X8X:Xc.l.v.T._.:XbXS.r.OXOXB.../ B G G R } W m 2 2 5 i h 0 0 p F H 3 '.                                        "
};
