/* XPM */
static char *f6e8b8cde84b4366e7f87aecfb8c08d61OxznIJTQZmFjpzc[] = {
/* columns rows colors chars-per-pixel */
"66 81 249 2 ",
"   c None",
".  c #030202",
"X  c #0A0401",
"o  c #060A02",
"O  c #0C0B03",
"+  c #040309",
"@  c #0A060B",
"#  c #0D0D0B",
"$  c #040B0C",
"%  c #140C02",
"&  c #160A04",
"*  c #0E1203",
"=  c #0B110A",
"-  c #121406",
";  c #13140C",
":  c #16180C",
">  c #1A1C0D",
",  c #1C1308",
"<  c #090913",
"1  c #141512",
"2  c #1B1B14",
"3  c #1C1D1A",
"4  c #161716",
"5  c #101012",
"6  c #2C1D0C",
"7  c #241707",
"8  c #371C05",
"9  c #231D18",
"0  c #271405",
"q  c #1E210E",
"w  c #1D2113",
"e  c #1C211A",
"r  c #2D220E",
"t  c #382409",
"y  c #23241C",
"u  c #26291C",
"i  c #2A2D1D",
"p  c #282415",
"a  c #382917",
"s  c #35321F",
"d  c #171A20",
"f  c #1C2322",
"g  c #242423",
"h  c #262922",
"j  c #2B2B24",
"k  c #2C2C2A",
"l  c #292626",
"z  c #332D26",
"x  c #2E3125",
"c  c #32332D",
"v  c #363828",
"b  c #333431",
"n  c #363933",
"m  c #3A3B34",
"M  c #3D3D3B",
"N  c #373738",
"B  c #2A3435",
"V  c #47280A",
"C  c #532B0A",
"Z  c #452D16",
"A  c #4C351B",
"S  c #473219",
"D  c #5C3A1A",
"F  c #563618",
"G  c #53310E",
"H  c #66350D",
"J  c #72390D",
"K  c #663B17",
"L  c #793E14",
"P  c #483825",
"I  c #543B21",
"U  c #5A3E26",
"Y  c #423D38",
"T  c #441E00",
"R  c #3E413B",
"E  c #3D4134",
"W  c #3F442E",
"Q  c #6A441B",
"!  c #7A4519",
"~  c #5B4228",
"^  c #42433C",
"/  c #46473A",
"(  c #594C36",
")  c #644323",
"_  c #6A4523",
"`  c #6C4B2C",
"'  c #684829",
"]  c #7D4C24",
"[  c #734D2C",
"{  c #754926",
"}  c #7B512C",
"|  c #74512E",
" . c #674B34",
".. c #6B5238",
"X. c #745232",
"o. c #7C5432",
"O. c #7B5839",
"+. c #734E32",
"@. c #3F3C40",
"#. c #3E4B49",
"$. c #434442",
"%. c #4C4C4B",
"&. c #494A45",
"*. c #534D48",
"=. c #4D514A",
"-. c #52534C",
";. c #585649",
":. c #545453",
">. c #5B5C5B",
",. c #595A55",
"<. c #505051",
"1. c #695846",
"2. c #775C45",
"3. c #605A53",
"4. c #64645D",
"5. c #776452",
"6. c #5C6963",
"7. c #686866",
"8. c #7A766B",
"9. c #747472",
"0. c #7B7C7A",
"q. c #787877",
"w. c #6E706D",
"e. c #5F5F5E",
"r. c #864A1C",
"t. c #834D24",
"y. c #844E2A",
"u. c #85542C",
"i. c #8B552C",
"p. c #8C592D",
"a. c #875528",
"s. c #93552C",
"d. c #975B2C",
"f. c #845B36",
"g. c #8D5C34",
"h. c #845D3B",
"j. c #8A5D3A",
"k. c #845633",
"l. c #945C33",
"z. c #9A5E37",
"x. c #A75C31",
"c. c #8C623C",
"v. c #8B6238",
"b. c #956137",
"n. c #9D6235",
"m. c #94633C",
"M. c #9C653C",
"N. c #99693D",
"B. c #98612F",
"V. c #A36435",
"C. c #A3663B",
"Z. c #A36A3D",
"A. c #AB6C3D",
"S. c #A96638",
"D. c #B46D3D",
"F. c #AF713E",
"G. c #885E42",
"H. c #8B6645",
"J. c #956944",
"K. c #9C6B43",
"L. c #986946",
"P. c #9C724C",
"I. c #987046",
"U. c #9A7655",
"Y. c #8E6F53",
"T. c #A36C43",
"R. c #AB6E42",
"E. c #A46C48",
"W. c #B26D42",
"Q. c #B56D47",
"!. c #AC7244",
"~. c #A4734C",
"^. c #AB744A",
"/. c #AE794D",
"(. c #A47144",
"). c #B37344",
"_. c #BA7546",
"`. c #B3754A",
"'. c #B47A4D",
"]. c #BB7A4C",
"[. c #BB774A",
"{. c #AA7954",
"}. c #B37D53",
"|. c #BB7D52",
" X c #B47B56",
".X c #937D6A",
"XX c #C47D4C",
"oX c #C6784A",
"OX c #C57D51",
"+X c #BC814E",
"@X c #BC8354",
"#X c #BB845C",
"$X c #B6845A",
"%X c #AE8159",
"&X c #86837B",
"*X c #968677",
"=X c #97816C",
"-X c #BB8B67",
";X c #B18D6E",
":X c #C48254",
">X c #CA8352",
",X c #C3855A",
"<X c #CB8B5C",
"1X c #C9875A",
"2X c #D6895A",
"3X c #D28554",
"4X c #C88D63",
"5X c #D88E63",
"6X c #CB9267",
"7X c #D79567",
"8X c #D79C74",
"9X c #E49868",
"0X c #E79E70",
"qX c #DAA578",
"wX c #E6A778",
"eX c #F3AA78",
"rX c #F1AA77",
"tX c #E08F5E",
"yX c #7E7E80",
"uX c #807E83",
"iX c #848484",
"pX c #8A8A88",
"aX c #989897",
"sX c #90918F",
"dX c #AA988A",
"fX c #9CA39D",
"gX c #B7A89A",
"hX c #A5A19E",
"jX c #A9A9A8",
"kX c #B8B7B6",
"lX c #B4B0AB",
"zX c #9F9FA1",
"xX c #FEBB88",
"cX c #EEB586",
"vX c #C5B6A8",
"bX c #FDC494",
"nX c #C2C4BD",
"mX c #D3C4B7",
"MX c #BDBBC0",
"NX c #BFC3C1",
"BX c #C7C7C5",
"VX c #D8D7D7",
"CX c #D4CDC8",
"ZX c #E9D9CB",
"AX c #EBE4DB",
"SX c #F9E6D9",
"DX c #E5E4E3",
"FX c #FDF3E2",
"GX c #DAE1D5",
/* pixels */
"                                                                                                                                    ",
"                                                                            DXaXaXBX                                                ",
"                                                                        DXjXsXk b 7.jXkX                                            ",
"                                                                        iXg %.:.:.&.N <.kX                                          ",
"                                                                      VX3 g Y w.7.:.l 1 w.                                          ",
"                                                                    DXq.# b b M c R n ; c nX                                        ",
"                                                                    VX1 h m ^ l 2 x v u w ,.nX                                      ",
"                                                                    uXg %.>.:.n - y c v n x ;.nX                                    ",
"                                                                  pXN %.w.0.:.R ; y n m ^ x w =.BX                                  ",
"                                                                VXg &.>.&X0.,.R h c E E E m i = &X                                  ",
"                                                                q.k <.>.>.,.=.h h x h c x i v > ^ nX                                ",
"                                                              DX# M $.<.k c y ; = 2 - 2 y w i u o 0.                                ",
"                                                              VXo &.R b 1 5 . o o o o = : w w u O 9.                                ",
"                                                              q.; &.k 3 # 4 4 4 3 : : - o * * > ; ^ nX                              ",
"                                                            VX# c n 3 4 h c N N N x u 2 : * * * 2 o iX                              ",
"                                                            DX# R e 3 b :.$.%.R $.N h y u u q * O o &.nX                            ",
"                                                            9.h k ; b 0.q.>.:.&.$.R x u i v i > . - O &X                            ",
"                                                            . b 3 g 7.BXaX7.:.%.$.^ n i i v s p o o 2 m BX                          ",
"                                                          DX. c 3 N pXCXjX7.:.%.&.$.v u i v v s * o i . pX                          ",
"                                                          0.3 c 3 R iXjXjX7.,.<.%.$.c h i v v v > o 2 ; &.nX                        ",
"                                                          # k g e &.w.aXaXw.:.,.%.$.n x x i v W q . O u o iX                        ",
"                                                        DX; k 3 j =.,.iXjXiX$.>.%.M $.&.v u v m > o o i o pX                        ",
"                                                        w.9 n 2 n &.:.9.0.:.3 b &.x c n w : i v q * o : ; =.BX                      ",
"                                                        ; l l 2 n M -.7.c # . # h 1 # o . o w i q - - O y O aX                      ",
"                                                      DX1 c 2 h n m N %.h . . . . . . . . . - i q - : o : O sX                      ",
"                                                      7.2 n 2 l m ^ ^ :.g . . . . . . . o . - m p i > - = 2 $.BX                    ",
"                                                      # l c 1 k M %.%.>.M g 3 g 3 g 2 ; 1 : y v u v x 2 O h . iX                    ",
"                                                      g l 2 l y $.>.:.w.sX0.$.$.M $.c 3 y l l j x u m c o 3 . iX                    ",
"                                                    DXk k 4 c 9 :.>.>.yXlXjX:.$.$.M c y y y u h v u ^ &.# 1 . iX                    ",
"                                                &XpXpX$.7.&.9 k e.7.w.iXaXaX7.&.^ n h u y e h j u u / -.; 1 . pX                    ",
"                                                y -.:.7.kXiX2 l e.yXsXaXsXq.:.$.M n 3 3 3 2 y y u u &.,.2 1 # 0.                    ",
"                                              iXl -.:.*.9.4.l b w.zXlXjXsX9.$.M m n h u y 2 2 2 j l -.-.; %.7.&.BX                  ",
"                                              k 4 2 l l k l b &.iXNXBXlXsXq.&.m m n l u y : 2 2 y c >.$.; &.4.l %.BX                ",
"                                              -.O 1 l m 7.c g <.aXVXCXaX9.4.^ v h u - - O o - O # c ,.n 3 e 2 y # jX                ",
"                                              jX9 l c Y q.l l ,.jXVXBXw.4.-./ / v j : - - * = o o ; ^ k 3 h 1 ; = jX                ",
"                                            DXq.m c 9 9 -.l b :.zXkXjX7.&X4.,.;./ / x u y > : O . . h j y g ; 1 O hX                ",
"                                          DXaX2 Y m & 9 $.m b %.sXsXiX-.iX-./ ^ v v p > : : 2 - . O ; l l e 1 e . aX                ",
"                                        SXdX5.r p z O 3 3 &.l $.q.w.6.j ,.w > : > q - O o o 1 4 . O 5 h e e 2 e o sX                ",
"                                      SX;XH.P.V 8 a X @ # *.9 / ,.6.&.e / o O X O O O . . . $ $ . . # 4 = h e = = fX                ",
"                                    SX;Xo.~.L.H.2.P 1 1 g M l %.N %.N 4 c . X X X X X X . . + + . o O o o v u . =.GX                ",
"                                AXSX=XO.J.~.J.%X.Xa k g f M k $.4 d g @ 4 @ X X X X X . . . + + . . O = - m u . 8.AXCX              ",
"                              ZX*X;XX.P.(.T.K.P.Y.r y 3 4 B l k 1 @ @ . @ @ @ . @ + + + + + . . o o - p p v 7 X / *X1.gXAXCX        ",
"                            AX=X..f.K.M.!.M.(.I.2.a > y f k f 3 5 9 9 + 1 4 < < < + + + @ + + . O - 9 p 6 a 0 0 U ~ P 1.*X*.gX      ",
"                            *X1.h.J.M.M.!.A.Z.N.Y.8 P Y u j 2 9 O ;.,.O $.<.$ N B d + . . . X X % 6 a a t Z 8 V O.H.2. .2.P s gX    ",
"                            1.2.c.p.Z.F.F.A.n.K.U.8 S a r p 7 7 % ( ;.% ;.=.$ #.B 4 $ . o X O , t Z F ' _ [ K { j.{.H.h.Y.Y.A S mX  ",
"                            2.2.c.b.!.!.).A.n.Z.E.{ F G U U A Z t Z Z 0 s i - 2 ; O X X & 6 Z I X.H.J.P.~.~.K./. X#XE.j.H.Y.Y.& gX  ",
"                            1.X.J.R.!.R.).).A.C.T.E.m.j.L.P.L.J.f.} _ ) ~ ~ Z r 6 r a Z F X.H.{.-XqXqXqX8X4X1X5XOX`.M.] { o.H.0 gX  ",
"                          ZX~ ' m.^./.T.R.!.R.R.C.Z.T.^.#X#X-X6X4X}.^.{.{.L.O.+.O.O.h.G.E.-X8XwXcXbXbXxXeX7X>X1X[.A.l.K G Q X.8 &X  ",
"                        ZX=XF ` j.~./.E.T.!.^.`.A.C.V.W.OX:X:X5X7X5X<X1X,X|.E.z.z.z.T.Q.OX5X0XrXrXeXxXxXeX2X_.oX).n.y.H V F ` I z CX",
"                        =X~ ~ { u.E.{.K.K.R.^.`.`.R.V.V.S.S.).1X1X2X1X[.`.Q.C.s.s.x.W.OX2XtX9X9X9XwXxXbXrX>X).).R.l.] C 8 Z ~ 1.X kX",
"                      ZX1.' ) K ] N.~.K.K.K.T.^.'.[.).D.S.B.V.)._.Q.Q.W.S.S.x.x.S.Q.OX2X2X2X3X3X2X9XeXxX0XXXA.R.T.g.[ V 0 a s 3.X lX",
"                      *X2.' V K ! p.m.m.J.m.m.K.'.'.[.+X@X!.d.s.l.s.l.M.C.M.C.).[.[.OX>XOXXX>X3XXX>X9X0X2X_.R.T.m.o.` t & 7 , *.. lX",
"                      8.1.F V K ! t.p.v.m.c.v.N.T.^.'.+X@X'.n.p.k.v.m.K.K.(./.'.'.[.].@X+X].+X1XoXoX3X2XOX!.T.m.c.O. .6 X , X M . jX",
"                      *X..~ V F { { } f.c.c.v.m.M.^.^.'.'.(.Z.b.b.T./.}.`.`.[._._.[.[.>X1X[.)._.OXoX2X5X].A.Z.m.c.O...6 % , O m o jX",
"                      =X..I t F ' ' +.o.h.j.g.g.b.T.(.'./.Z.M.l.C.Z.`.OX_.)._.D._.>X>X3X2XXXD._.oXoX2X7X].C.M.m.H.+. .0 7 % O k b NX",
"                      5.( t t Z D ) ` | o.k.k.g.m.b.T.Z.Z.T.M.Z.!.R.).).A.W.XX>X>X5X0X0X9X<X[.[.W._.<X5X[.n.l.g.h.' ~ 0 6 , X ^ jX  ",
"                      dXP t t V ~ ) _ _ { } u.i.b.p.M.l.z.T.C.^.).).[.[.)._.XXXXXX5X9X0X0X7X:X`.W.).:X,X!.z.g.k.| ` U 0 v 7.*.aX    ",
"                      FXP r 0 t D _ [ { { ] ] ] y.i.l.n.n.M.R.`.C.A.[.]._._.[.).W._.[.].:X,X,X'.A.).|.'.R.b.k.o.+.~ U & &XVXCX      ",
"                        ;.r , t G ` c.f.} ] ] t.a.M.n.R.Z.n.`.`.[._._.D.S.D.[.[.[.[._.R.C.T.^.^.l.R.`.^.(.m.k.X. .A U X gX          ",
"                        Y 6 r t G o.P.J.k.u.g.z.n.T.Z.!.!.R.,X,X7X5X1X_.S.A.).A.[.`.|.}.M.l.g.u.! b.(.T.K.j.[ ' ~ S a % hX          ",
"                        8.p a S F f.~.~.J.N.M.M.C.C.R.R.).`.`.].].:X2X<X:X].).V.V.n.^. XK.k.{ H H p.N.c.h.[ U U I a 7 % jX          ",
"                        AXv a S D J.{.~.(.T.z.l.R.`.|.|.,X1X'.`.A.W.).[.:X:X|.].!.M.l.N.K.j.K C K } f.o.X.U Z I a 6 % c CX          ",
"                          z s P K P. XE.T.z.i.Z.,X6X4X,X<X,X,X,X1X<X].).].`.`.@X#X/.g.u.J.J.{ C D | O.` ' A Z a a 7 X .X            ",
"                          8.s A ) P.~.g.b.T.'.6X6X,X[.R.n.s.z.R.|.4X6X,X|.`.^.}./.{.K.u.} o.| ) G ` +.~ I S a 6 7 % X hX            ",
"                          AXP S _ m.m.t.K.#X4X1X`.n.d.d.r.! r.s.s.C.R.R.!.^.^.^.T.(.~.j.K F _ [ F I I A Z 6 , , O X # lX            ",
"                            P A _ ] ] i./.@XT.d.n.z.`.<X@X^.!.Z.M.M.M.z.l.s.s.l.b.m.L.J.[ D D F V A A a 6 7 % X O o 1 9.VX          ",
"                            a A _ ! ] m././.Z.A.@X<XwXwX7X@X'.R.}.E.K.T.b.l.i.i.i.] } f.f.o._ G 8 a P a 7 & O X # . # 3 lX          ",
"                            Z F | v.N.N.(./.'.@X6XqXcXwX7X@X'.`.z.y.y.z.T.E.R.m.m.g.} _ _ X.X.` t r a s , X X # 1 $ # . fX          ",
"                        lXvX....J.K.m.a.a.i.p.a.d.!.+X,X6X4X,X4X/.m.k.y.t.l.T.N.K.P.c.[ K F D ..~ r 7 7 % X # # 5 + + . fX          ",
"                    lXgX1.2.O.I.^.'.M.Z.M.C.C.V.n.B.d.d.l.l.M.^.6X$X~.m.u.t.u.t.u.m.J.H.| G V ~ ( a , % X O # . + . 5 . aX          ",
"                  vX1.I D Q a.n.`.5X,X8X8XwXwXwX7X@XZ.p.! ! ! u.m.L.{.-X$XN.t.! ] k.L.U.O.D V A ( v r % X X O X . . 4 N CX          ",
"                  ,.P Z F X.k.m.Z.|.`.#X4X7X8XwXqX8X#X!.M.g.t.] K y.K.}.#X}.M.a.] ] m.U.c._ F V P v p , X X X @ . $.q.lX            ",
"                kXk z z P ~ ' o.! i.t.t.a.i.z.!.#X7X8X8X8X-XK.m.] ] ] t.z.!./.^.b.] u.P.U.h.F t r i 9 % X X @ 4 . pX                ",
"                *.7 t V K H ] t.! ! ! ! r.! ! r.s.z.n.'.qX8X#X X/.N.t.L ! i.R.}.$XT.g.~.-XI.D V & , % X X X X 4 + aX                ",
"            FXFXA 8 V H J n.).+XA.p.B.V.A.V.d.r.r.L J L z.M.T. X4X#X}.M.t.! r.d.!.$X/.%X-XP.Q A & % X X X X . < . aX                ",
"            SXFXU V } m.t.!.<X7X#Xg.~.#X4X4X}.g.u.y.{ K K F _ H.{.#X4X4XT.t.J J ! N.%X$X$XJ.Q A & X X X . . + @ + sX                ",
"            gXdX) [ {.$Xb.Z.4X6X-Xk.{.-X-X-X-XI.h.G.G.O. .U I F { j.{.#X#X'.l.J J J g.{.I.f._ A & X X . . . @ + $.BX                ",
"        vXdXO.D g.K.^.7XZ.C.,X,X6Xz.).1X,X|.6X^.l.N.{.I.f._ F G C G k.~.{.-X$Xg.g.H K J.H.o.` I , . . . @.uXq.q.MX                  ",
"      mX .U [ ] (.^.).wX!.V.`.A.9XD.x.tXtX>X7XXXV.A.@X/.N.u.Q Q G T D o.f.~.-X$X%X} G _ h.O.` S 1 . . + uX                          ",
"  vXgXY.) _ J.}.'.:X@X7X).[.R.d.9XoXx.2X5X5X5XXXV.A.@X/.K.v.{ { ~ 8 8 U ` O.U.;X;XY.D G ~ .. .a & . . @.kX                        lX",
"mX .' ) | m.%X'.4X7X1X1X:X7X_.d.5X5XoXoX2X9X9X).n.n.!.K.m.f.Q _ ~ a 6 a A U 2.U..X.X..Z Z P P 6 X . . 0.                          5."
};
