/* XPM */
static char *_823af3a9ce84c93ce1154143aacf51bKYLbwPOUrjvllEK6[] = {
/* columns rows colors chars-per-pixel */
"60 82 249 2 ",
"   c None",
".  c #020301",
"X  c #0B0501",
"o  c #060901",
"O  c #0B0C02",
"+  c #020608",
"@  c #0C0C0B",
"#  c #070A0A",
"$  c #130C02",
"%  c #160904",
"&  c #0D1102",
"*  c #0E120A",
"=  c #0F190D",
"-  c #131204",
";  c #1C1303",
":  c #13130C",
">  c #16190C",
",  c #1B1B0C",
"<  c #1A1609",
"1  c #141513",
"2  c #1B1C13",
"3  c #1C1C1A",
"4  c #161916",
"5  c #0A1115",
"6  c #241A0B",
"7  c #2C1D0B",
"8  c #271805",
"9  c #361C08",
"0  c #231E19",
"q  c #1D230E",
"w  c #1E211A",
"e  c #28240E",
"r  c #37240C",
"t  c #212415",
"y  c #23241C",
"u  c #2A2C1E",
"i  c #27271A",
"p  c #332513",
"a  c #392816",
"s  c #2D311E",
"d  c #3A311B",
"f  c #1E2425",
"g  c #252523",
"h  c #2B2B24",
"j  c #2C2D2B",
"k  c #282825",
"l  c #322B24",
"z  c #322E2A",
"x  c #2D3124",
"c  c #2E312D",
"v  c #333424",
"b  c #33332C",
"n  c #37392A",
"m  c #343433",
"M  c #3A3633",
"N  c #3B3A35",
"B  c #3C3C3C",
"V  c #363935",
"C  c #2B3237",
"Z  c #1B1F25",
"A  c #46290C",
"S  c #422C12",
"D  c #472F14",
"F  c #483419",
"G  c #5C3C1B",
"H  c #573717",
"J  c #57300A",
"K  c #673917",
"L  c #6D3B15",
"P  c #483825",
"I  c #563B25",
"U  c #433D35",
"Y  c #653E21",
"T  c #3E413A",
"R  c #3E422E",
"E  c #6A431C",
"W  c #77451C",
"Q  c #5A4228",
"!  c #44433D",
"~  c #46473A",
"^  c #574836",
"/  c #644323",
"(  c #6A4827",
")  c #734B23",
"_  c #724B2B",
"`  c #784A25",
"'  c #7B542C",
"]  c #78522A",
"[  c #694D33",
"{  c #754D32",
"}  c #6C5238",
"|  c #745234",
" . c #7B5332",
".. c #7A5739",
"X. c #67522E",
"o. c #7A613A",
"O. c #3B3E41",
"+. c #403F43",
"@. c #3B4349",
"#. c #444542",
"$. c #4B4B46",
"%. c #4B4C4A",
"&. c #484745",
"*. c #4E5149",
"=. c #53524E",
"-. c #595348",
";. c #4C4D52",
":. c #545452",
">. c #595A57",
",. c #534E4A",
"<. c #685747",
"1. c #635C58",
"2. c #735B45",
"3. c #5E6157",
"4. c #656458",
"5. c #7A6550",
"6. c #5C6163",
"7. c #6B6B63",
"8. c #666866",
"9. c #74746D",
"0. c #757474",
"q. c #797A77",
"w. c #716F6B",
"e. c #5D5E60",
"r. c #864D25",
"t. c #83532B",
"y. c #8B542B",
"u. c #8D5A2D",
"i. c #855226",
"p. c #94592C",
"a. c #845B34",
"s. c #8C5B33",
"d. c #845C3A",
"f. c #8B5C3B",
"g. c #865632",
"h. c #945C33",
"j. c #9A5C33",
"k. c #965E39",
"l. c #844F30",
"z. c #A35F37",
"x. c #8C633B",
"c. c #8B6438",
"v. c #9A6335",
"b. c #94633B",
"n. c #9C643B",
"m. c #9D6A3E",
"M. c #966435",
"N. c #9B6D34",
"B. c #A36435",
"V. c #A3653B",
"C. c #A46A3D",
"Z. c #AB6C3D",
"A. c #A96836",
"S. c #B36B3B",
"D. c #AE733C",
"F. c #844F1F",
"G. c #C7773E",
"H. c #8B5F41",
"J. c #896447",
"K. c #936542",
"L. c #9C6A43",
"P. c #986A47",
"I. c #856C56",
"U. c #9A7557",
"Y. c #96704F",
"T. c #A46C42",
"R. c #AB6D42",
"E. c #A66A46",
"W. c #B36E44",
"Q. c #AD7245",
"!. c #A3724B",
"~. c #AB744B",
"^. c #A77448",
"/. c #B27345",
"(. c #BA7443",
"). c #B4764A",
"_. c #BA7449",
"`. c #B4794D",
"'. c #BB7A4C",
"]. c #B97946",
"[. c #A87B57",
"{. c #BB7C53",
"}. c #B47B54",
"|. c #9A7C67",
" X c #837D78",
".X c #837568",
"XX c #C37C4C",
"oX c #C57949",
"OX c #CB7E53",
"+X c #BC845A",
"@X c #B7835A",
"#X c #B58153",
"$X c #88837C",
"%X c #958679",
"&X c #BB8863",
"*X c #AB8E76",
"=X c #C6814E",
"-X c #C48253",
";X c #CB8454",
":X c #CD8A5C",
">X c #C5865C",
",X c #D38455",
"<X c #D48B5D",
"1X c #D98B5A",
"2X c #DB935D",
"3X c #C58863",
"4X c #D48C66",
"5X c #CB9269",
"6X c #DB9364",
"7X c #D89669",
"8X c #DA9A75",
"9X c #E59A6A",
"0X c #E49973",
"qX c #EBA779",
"wX c #F4A777",
"eX c #E4A06F",
"rX c #E3945C",
"tX c #7E7D81",
"yX c #8D8C8B",
"uX c #858684",
"iX c #98928A",
"pX c #979694",
"aX c #938F87",
"sX c #A99788",
"dX c #B99C86",
"fX c #A39C98",
"gX c #BDA793",
"hX c #ACA497",
"jX c #A8A8A7",
"kX c #B8B9B7",
"lX c #B3B2A9",
"zX c #9E9FA3",
"xX c #C4A894",
"cX c #C5A992",
"vX c #FDB688",
"bX c #F3AC83",
"nX c #D6B9A5",
"mX c #C9B8A8",
"MX c #D6C1AC",
"NX c #EAC8B5",
"BX c #C0BFC2",
"VX c #BFC1C0",
"CX c #C9C9C8",
"ZX c #D5D2CE",
"AX c #EDDACC",
"SX c #FAE7D6",
"DX c #EEE2D8",
"FX c #FEF5E4",
"GX c #F0EAE3",
/* pixels */
"                                                                                                                        ",
"                                                                ZXCXCX                                                  ",
"                                                                w.8.>.                                                  ",
"                                                            jXjXg g 1 jXpXlX                                            ",
"                                                        yXlX%.%.1 4 @ m g #.jXlX                                        ",
"                                                      yXm 8.9.&.3 : 4 3 y M M ! kX                                      ",
"                                                      g B >.q.$.x h h c N ~ u , 3.                                      ",
"                                                    yXk :.#.N h h x j x b n s u t lX                                    ",
"                                                    1 B B w & O O * * : > > q t > 4.                                    ",
"                                                  yX3 B 3 * > > > 1 * : : & O q t u kX                                  ",
"                                                  1 b m * k x b M b y 4 q > & & & & 7.                                  ",
"                                                yX: m j g #.~ ~ $.T k w y t i & O & n kX                                ",
"                                                3 g b 3 ! :.4.=.$.T j y h u x q O o : 8.                                ",
"                                                * j b 4 N w.7.*.%.! h j y u x t o & & =.                                ",
"                                                o j b y ! q.7.:.! ! c j y x x s O o : >.                                ",
"                                              yX: M y h >.q.7.>.! #.m c i x v v - O > b kX                              ",
"                                              2 y N 4 T 3.$X9.$.:.%.h T x t v n > O - O w.                              ",
"                                              4 y M 2 ~ 4.aXq.=.&.%.b N x t v n q o O * e.                              ",
"                                              4 h h y ! 7.iX9.>.#.&.m V b i v v q O o * e.                              ",
"                                            $X4 b y t $.7.fXuX=.*.&.c 4.:.x s n t & o O V jX                            ",
"                                            @ y h u h *.3.7.:.g j #.j T n t i R q & & O @ 8.                            ",
"                                           X3 j y h M *.$.k # . o 3 * . o o > n , & , > > V jX                          ",
"                                          1 y z h j j %.%.g . . . o o o o o O v i i s i 2 o :.                          ",
"                                          z k M M g V %.>.O.j f 3 w 2 : : & , M x u N M t o :.                          ",
"                                          M l $.M 4 &.:.w.uX0.:.O.B j g y y y b y y N #.y o :.                          ",
"                                      fXpX=.$X0.N 3 >.yXjXkXuX>.@.B j y 3 y 3 g g g #.%.g # >.                          ",
"                                    pXb U >. X7.M z 0.CX  CX0.;.V m j g 3 y 1 1 g m %.:.&.8.#.kX                        ",
"                                    ! g U M l U N N uXZX  VXq.:.B V j g g h 1 . g B %.%.;.zXm 0.                        ",
"                                    ! 1 y l M y M ! yXkXGXzX9.=.V b h g g g 1 . g m ;.;.k ;.m B CX                      ",
"                                    >.: X M 7.k k =.pXCXjX4.b y 2 > : : : : : . 1 g #.#.1 g 3 3 uX                      ",
"                                    jXk 0 N  Xb 3 :.pXCX8.7.t , , , > : - : O o o 1 V B 2 1 1 1 q.                      ",
"                                      m 0 z 7.g g :.zXkX%.jX~ ~ N M v u y y > * . O b b 2 @ @ # 0.                      ",
"                                    q.N k y ,.b h $.zXlXg yX~ R n n x t 2 4 4 4 . o y h y : 1 # q.                      ",
"                                    1 z k : 0 ! h ! yXjX@ >.y t 2 , > & o o > 2 . . > 2 y 2 3 # 0.                      ",
"                                    N y 1 X . ,.k #.0.yX1 V O o o o o . . . # 1 . . O : y h @ + uX                      ",
"                                    jX=.z : : ! y &.8.0.1 4 o . . . . . . . . @ + . # @ 4 b . m ZX                      ",
"                                    lX7.b k y M b =.8.8.f o o . . . . . . . . . + . # 1 1 m . >.                        ",
"                                FXsX4.U l y 0 h c uX0.>.h o o o o . . . . . . . . o 2 w > b . 1.                        ",
"                              SXdX5.5.7 p ~ y c f kXq.=.M 0 > = = O o . o . . . o O h i - u X 1.                        ",
"                            SXcXJ.U.5.r p 4.b V f ZXq.>.U z h w 2 : o . . . . . o : v i O y X 1.                        ",
"                          AX*XP.U.U.Y.r a ^ h V 3 ZXq.:.M h h 2 : : o . . . o . o 2 v y o 2 . ;.                        ",
"                      FXSX*Xf.L.[.&X| r a U k T 3 jXw.&.z z i - o O . . . o o o O t v 2 o 4 . f zX                      ",
"                      SX*Xd.k.C.}.@XE H a <.M #.5 6.6.%.M M l , - $ X o o # 1 : w u u , o > . + ;.                      ",
"                    SX*Xd.L.v./.Q.}.g./ 9 ^ N m 5 C >.e.:.&.! n b h 3 2 3 3 k g j h y : o - . . g kX                    ",
"                AXAX*X .L.C.B.(./.{.P.( % 6 b k f Z C O.%.:.&.! ! N j j j j k w w > : O o X O % < .XDXZXCXDX            ",
"              DX*X|.d.L.R.C.B.Z./.).@XH.9 % 0 j @.C 5 5 3 k 0 y y y 4 4 4 4 5 # * O o o . $ r I I 2.|.5.2.iXAXCXDX      ",
"            DXsX} ..L.T.Z.Z.A.A.Z.`.@XY.I 8 % g %.;.@.B + + + . # @ + + . + + o o o o . - r Y x.d._ { / I } |.<.%X      ",
"            sX} ..Y.b.V.Q.Z.C.B.Z.+X3X[...I 6 : M ;.0.yX1 h M # 3 f 4 + + + . o o . X ; a I t.R.T.h.L.P.f.....I a fXGX  ",
"            2...K.h.v.).A.Z.C.n.C.+X5X&XK.{ I X 0 &.w.fXy =.q.1 m V C + . + . . X X % a Q  .Z.(.]./.Q.Q.L.f.Y.I.I a kX  ",
"            I.| K.m.C./.B.).T.m.C.).>X3X~.f./ A 9 d <.%X6 -. X$ ! ! m . . # X . X % 9 / J.!.4X=XXX-X'.).T.b.J.|.I.X iX  ",
"            I.E b.).V.Z.R.~.T.T.V.C.'.4X:X`.k.H.G A P <.; I -.X U v 3 . . X $ X % 9 ( P.3X8X9X,X;X;X-X'.R.b.a.J.I.8 iX  ",
"          AX[ L h.).Q.C.T.~.!.^.C.B.S.1X9X6X7X+XK...I / r F P $ 6 $ X O X X ; 8 A _ !.5XbXvX9X6X<X-X'./.v.t.) | 5.8 iX  ",
"        ZX%XH W y.C._.R.L.^.!.~.Z.A.S.G.1XrX9X7X5X&XP.J.| } ^ P p p p n d S I | Y.@X7XqXvXvXqX7XXX_._.R.y.L J Y 2.r 5.GX",
"        %X[ G ` y.n.Q.Q.R.C.T.Q.Q.Z.A.A.(.;X:X7X8X7X3X&X}.}.Y.J.| ....J.d.J.U.&X8XqXqXbXvXvXbX<X_.Q.~.m.' H A a ^ ^ 6 lX",
"    FX  2.[ / ) t.m.^.R.A.A.C.Z././.Z.B.Z.'.XX;X<X6X4X,XOX;X{.T.v.h.k.V.V.R.-X4X0XwXwXwXvXvXbX-X`.~.!.x.| D 7 6 v ~ . aX",
"        I.[ / ( t.b.^.R.C.C.C.Z./.`.Q.V.B.A.W._.;X4X4X;XoX_.).v.h.y.h.V.V.R.4X7X9X9X9XwXvXvXwXXX_.Q.!.x.| D 8 6 i U . pX",
"      ZXI.[ G E ] c.L.R.C.C.C.R.).`._.R.V.B.B.Z._.-X>X-X_./.R.h.h.p.V././.'.7X6X6X1X6X9XwXwXeX'./.R.L.d.| S % 6 6 U . pX",
"      iX<.[ F G ( t.b.m.m.m.C.R./.`.{.`.R.V.j.j.B.Z.Q.Q.C.C.V.j.V.C./.'.'.;X<X;X;X,X1X2X9XeX9X(.R.C.L.d.| S % ; O N . yX",
"      %X<.Q S H / ] a.b.b.m.n.V.T.R.{.{.).R.v.p.u.u.h.M.M.v.C.B././.'.'.'.;X;XoXoX;X,X,X2X9X6XS.Z.C.K.d.| S % ; X M . yX",
"      sX<.Q S H / _ ' a.x.b.k.j.k.V.Q.}.`.T.C.M.u.u.u.h.M.C././.'.'.'.'.(.XX;XoXoXOX;XOX,X9X<XS.Z.m.b.d.} a % < $ h @ yX",
"      aX^ P a F / ( _ ' a.x.k.k.k.n.^.`.~.T.m.M.h.h.M.m.^.`.'.(.].(.(.oX].=X;XoX(.(.oXoX,X6X;XA.V.v.b...[ a ; < * 3 B BX",
"       X~ a r S G / / ) ' a.s.s.x.b.m.!.~.T.L.M.h.n.R.Q.).`.(.(.(.(.=X;X;X<X:X;X(.(.(.oX;X6XOXz.V.b.K.| Q p ; < X U jX  ",
"      lX^ 7 r r H / / ( ) ' ' ' c.x.x.L.L.b.L.n.V.Q.`._.W.R.S.=X=X=X7XeX9XqX9X6X;X(.W.(.OX4X{.j.k.g.J.| I 7 U w.1.jX    ",
"        <.8 8 r H ( _ ( E ) ] '  .a.x.b.b.s.v.T.Q._._._._._.Z.=X=XXX4X7X7XeX8X7X4X'.Z./.-X-X).n.s.'  .[ Q % 9.DXZX      ",
"        4.7 8 9 S ( d.a.` E ) ] ) ] c.b.b.m.v.R./.R.S.(.oXXXW.XX'.Z./.`._.`.{.>X7X>XT.R.}.~.~.m.g.a.[ I I X $X          ",
"        1.6 r r A _ Y.L.s.` ) ' ' t.b.m.v.T.n./.`._._.oX(.S.W.`.`._.{.-X).C.T.Q.+X`.h.m.}.~.!.K.{ ..[ P U $ uX          ",
"        iXp r D D  .[.!.m.h.u.k.b.b.T.T.T.).).XX>X:X4X<XXXS.V.Z.R.R.`.+X{.~.~.v.h.t.W s.!.!.L.x./ [ Q P l O aX          ",
"        GX^ 7 I G d.[.T.R.C.m.L.L.T.E.R.).{.`.`.`.'.-X:X:X-X_.R.V.j.h.V.~.}.~.k.W J K t.K.f.a. .G Q P a ; X pX          ",
"          -.7 I G K.@X~.Q.Z.V.j.k.T.E.T.R.C.V.V.B.j.B.S.].'.>X{.`.C.u.r.k.E.L.b.) J J  .d. ._ / A H a 6 $ b CX          ",
"          -.7 F G P.#X^.).C.v.y.p.Z._._._._.OXoX_.S.A.B.B.B.{.{.>X+XC.i.` y.L.b.) J K  .d.| ( G a F a 6 X 8.            ",
"          -.p I ..Y.b.u.C.B.p.p.Z.=X<X,X,XOXOXOX,X<X<X;X/.Z.W._.#X>X@Xm.i.E a.x.] J H _ ..[ Q P d d e , . q.            ",
"          <.a [ J.d.g.y.u.j.C.+X7X5X+X).T.n.y.p.V.{.3X3X3X>X`.`.Q.Q.`.~.b.] E ' ..E H ( | Q P F p e $ O . uX            ",
"          <.S Q { ) g.u.r.T.>X3X&X[.L.c.d...] ]  .f.K.P.E.~.E.Q.R.C.m.T.L.b.) G G / Q G Q F F 7 ; ; X X : pX            ",
"          ^ S / ] ] b.v.r.`.`.C.p.p.C.`.>X5X}.~.R.T.T.n.h.h.r.u.h.h.h.b.L.L.c.E H G D F F a e ; $ X X O @ :.CX          ",
"      FXFX} A ] K.b.T.T.j.`.D.D.D.].2XwXwX9XoXoXS.Z.A.N.N.N.M.h.y.r.r.r.t.t.a. .| G 8 r F d 6 ; O . O : . @ pX          ",
"      MXgXo.( K.!.h.y.p.z.R.R./.#X:X8XqXqX0X-X{./.v.F.W u.m.T.T.C.n.h.y.r.W L _ ..[ S 8 p d , O X O : @ . . tX          ",
"  mXsX5.X.o.P.^.~.^.h.p.R.z.j.y.r.p.n.~.@X5X+X&X&X@X!.s.` ` y.M.m.n.n.T.k.y.L H / [ Q a ; , $ o @ @ @ + . + tX          ",
"mX<.Q F Q ] c.L.#X5X+X}.3X>X{./.R.T.n.u.y.u.s.s.!.&X@X[.T.s.y.W r.y.h.E.T.L.t.K A I ^ d ; - . # @ + . + # + tX          ",
".Xa F D H J W ` u.C.~.`.3X4XbXbXbXqX5X}.L.u.` L t.b.g.b.@X&X~.u.s.W W L.L.!.f.Y A H Q P e - . @ + . # + @ B kX          ",
"U 7 S S D A H K K L ) l.K.E.@X3X5X8X8X8X3X{.E.j.y.r.L ) b.[.[.[.[.g.` f.f.Y.P.{ H S P P p - : # . . # B uXlX            ",
"; 7 a F / Q | | { _ _ { { { ] i.u.m.}.4X8X0X0X4X).k.g.] E ( J.J.[.[.Y...{ U.|.J.I r 7 p 6 $ : . 1 @ . q.                ",
"$X%XiXsXgXgXnXnXxXxXxXxXgXdXdXdXdXdXcXnXNXNXAXNXNXnXnXxXsXsXgXxXnXMXnXxXdXnXMXmXsX%X%X%X$X X XtXpXyX$XkX                "
};
