/* XPM */
static char *ca1de8177cd94a7ed064135a4009cfc5nHMoPrlXkZmD9Fm3[] = {
/* columns rows colors chars-per-pixel */
"70 42 72 1 ",
"  c #47704C",
". c #141313",
"X c #1A1612",
"o c #0A0404",
"O c #1B1A1A",
"+ c #170B0F",
"@ c #1B1B1B",
"# c #140E10",
"$ c #120B0C",
"% c #0B0405",
"& c #0D0A0A",
"* c #140B0F",
"= c #0A0404",
"- c None",
"; c #170C0F",
": c #16100E",
"> c #180C0F",
", c #1F1813",
"< c #1C1511",
"1 c #241A11",
"2 c #2A2017",
"3 c #312B2A",
"4 c #211D1B",
"5 c #100609",
"6 c #10080B",
"7 c #171813",
"8 c #0A0404",
"9 c #1F1912",
"0 c #2D2624",
"q c #1A0F0E",
"w c #131011",
"e c #100609",
"r c #2C2722",
"t c #211612",
"y c #2A221C",
"u c #191215",
"i c #111111",
"p c #332C24",
"a c #17090F",
"s c #0A0404",
"d c #111111",
"f c #1B1517",
"g c #110A0D",
"h c #17090F",
"j c #0A0505",
"k c #1D1C1D",
"l c #12060D",
"z c #160A0E",
"x c #121011",
"c c #0D0606",
"v c #19110D",
"b c #170C10",
"n c #281B11",
"m c #1D140E",
"M c #1A0D0E",
"N c #13080B",
"B c #090303",
"V c #140E10",
"C c #191617",
"Z c #180F0D",
"A c #141313",
"S c #251911",
"D c #1F160F",
"F c #1B1211",
"G c #140E0A",
"H c #221910",
"J c #1A1919",
"K c #2C1E14",
"L c #22201E",
"P c #30241B",
"I c #1E1317",
"U c #47704C",
/* pixels */
"                                                                      ",
"                                                                      ",
"                                                                      ",
"                                                           g$$6       ",
"                                                           $dd$       ",
"                 6$$g                                <$#%*4fu.O       ",
"                 $hh$                                Xa;;+@r-34       ",
"                 %;ufX77X2OO##OOOOOOOOOO#OOOO###OOO44:>bbCL--30X<     ",
"                 #.Cuwyyp3@@..@@@@@@@@@@..@@....@@@@@,kCCJJLLk,9$     ",
"                 *@Cb>00rLJCAACCCCJJCCCCACLLCxxACJJJJJJJJJCCCJJ.O     ",
"                 *+bzt33kJCAxxVbbbAAbbbVxJ--IzzVAAAAAAAAAAVbbbb+#     ",
"               <X:>zzI--LCAAAFFMMFFFFFFFCL--IMFFVxxxxxxxxVzzzbb+#     ",
"               $9,qZzbIICAvmHnSSSSSSSnKPPP-LFDKKFzzbbVxxVzzzVxx.#     ",
"               21DmZbzzVxxvmSnnnnnnnnKKPPPLJFHPPDMzzzbVVbzzbVxx.#     ",
"               41DmZbzVxxVMMmmmmmmmmmDDHHDFFvmSnHmMzzzbbzzzzbbb;#     ",
"             <X:,mvvbbxxxVMMvvvvvvvvvvvvvZzbZvDDmq>++++++++++;;a$     ",
"             $9,qZvvbbxxVbMvmvvvvvvvvvvvvZbzbMvvG&:**##########$6     ",
"             2;mMbZZbVxxbzGGGGGGGGGGGGGGGGNNNNGGc=*                   ",
"             #+MbzbbVxxxbzccccccccccccccccccccccB=#                   ",
"             *+zzzzbVxxVbNcBBBcj&55&jBcccj&oooo==8$                   ",
"             *+zzzzzbbbbzNcBBcN>e$$e&cNxx&:*#%%%%$6                   ",
"           7X:>MMMMMbbbbMzNcccz>e$$e&cxi&wX                           ",
"           X9,tDDDDmvZZvmFzNVVzq>55>ixx&:X7                           ",
"         <y0,SSSSSSHDmmDHDMbxxVbbbbVxi&wX                             ",
"         XprPnnnnnnnnnnnnSMbxxxxxxxxx&:X7                             ",
"         23PKKKKnnKKKnnnKt>+........;wX                               ",
"         21KKKKnnnKKnHFFH,:**########$<                               ",
"         21nnnnSHHSSHDAAF14                                           ",
"         21HDmmDHHDDHDFvZ+*                                           ",
"         #1mvZZvmmvvmmvZb+#                                           ",
"         #+MbbbbMMbbMMbbz+#                                           ",
"         #+zzzzNNNNNNNNNN;%                                           ",
"         %oczzNcccccccccc=%                                           ",
"         %=cNNcBBBBBBBBs&8$                                           ",
"         %=BccBBBBBBBBB&:X<                                           ",
"         $8==oooooooo==8X                                             ",
"         6$%%%%%%%%%%%%$<                                             ",
"                                                                      ",
"                                                                      ",
"                                                                      ",
"                                                                      ",
"                                                                      "
};
