/* XPM */
static char *e613ea63a7e2432386774832e7ca8b7aEWerQhdbZJ2hiDch[] = {
/* columns rows colors chars-per-pixel */
"71 61 238 2 ",
"   c None",
".  c #020201",
"X  c #0A0502",
"o  c #050A01",
"O  c #0B0A05",
"+  c #0C0C0B",
"@  c #080709",
"#  c #130C03",
"$  c #1D0A00",
"%  c #110E0D",
"&  c #170403",
"*  c #0B120A",
"=  c #121203",
"-  c #1C1302",
";  c #11110D",
":  c #1A150A",
">  c #151A0E",
",  c #1F1B0B",
"<  c #0E0F15",
"1  c #150E15",
"2  c #0D1515",
"3  c #141313",
"4  c #1A1516",
"5  c #1B1B14",
"6  c #141419",
"7  c #1B1A1A",
"8  c #171716",
"9  c #231303",
"0  c #241A03",
"q  c #2B1C02",
"w  c #221C0C",
"e  c #2C1B09",
"r  c #341801",
"t  c #210D19",
"y  c #241E12",
"u  c #201F1E",
"i  c #271A14",
"p  c #1B241E",
"a  c #2E220C",
"s  c #32230C",
"d  c #3A250B",
"f  c #232214",
"g  c #2C2313",
"h  c #23221C",
"j  c #29241A",
"k  c #2C2A1B",
"l  c #2B2A14",
"z  c #342A15",
"x  c #342C1D",
"c  c #3B2D1B",
"v  c #392815",
"b  c #3B321E",
"n  c #373218",
"m  c #2C391D",
"M  c #1F1E21",
"N  c #221E21",
"B  c #1F2320",
"V  c #242423",
"C  c #292725",
"Z  c #2A2B26",
"A  c #2D2C2C",
"S  c #272729",
"D  c #342D23",
"F  c #302F2E",
"G  c #392F24",
"H  c #2D302F",
"J  c #343123",
"K  c #3B3324",
"L  c #34322C",
"P  c #3B342B",
"I  c #3C3A2C",
"U  c #342E32",
"Y  c #333333",
"T  c #3A3634",
"R  c #363B35",
"E  c #3C3C3C",
"W  c #3A3938",
"Q  c #2D2E31",
"!  c #46280B",
"~  c #593A0A",
"^  c #422E19",
"/  c #442A11",
"(  c #572F12",
")  c #44351C",
"_  c #4E331B",
"`  c #4A3919",
"'  c #573719",
"]  c #643C1D",
"[  c #683910",
"{  c #463927",
"}  c #573C25",
"|  c #443D33",
" . c #552C20",
".. c #663E22",
"X. c #3F4423",
"o. c #554218",
"O. c #66411B",
"+. c #75471B",
"@. c #65400D",
"#. c #4D4127",
"$. c #55442D",
"%. c #5C442B",
"&. c #594324",
"*. c #49443A",
"=. c #574A38",
"-. c #5D533F",
";. c #624325",
":. c #6C4425",
">. c #62452A",
",. c #6C4B2B",
"<. c #674929",
"1. c #724623",
"2. c #774927",
"3. c #7B512D",
"4. c #7B5223",
"5. c #6B4C33",
"6. c #634B37",
"7. c #744E31",
"8. c #6A5536",
"9. c #7C5232",
"0. c #7B5A3B",
"q. c #755436",
"w. c #63502C",
"e. c #7A613D",
"r. c #413D41",
"t. c #3D4542",
"y. c #434343",
"u. c #454A45",
"i. c #4A4A45",
"p. c #4B4B4A",
"a. c #474748",
"s. c #544E49",
"d. c #5A574B",
"f. c #545353",
"g. c #5A5A59",
"h. c #785E47",
"j. c #685E4C",
"k. c #5F6050",
"l. c #6C6146",
"z. c #7A6349",
"x. c #776857",
"c. c #6D655D",
"v. c #576160",
"b. c #6D6C6D",
"n. c #676764",
"m. c #776F68",
"M. c #77736A",
"N. c #747373",
"B. c #7D7D7D",
"V. c #7A7A77",
"C. c #655D65",
"Z. c #83542B",
"A. c #88572D",
"S. c #855935",
"D. c #8C5B33",
"F. c #8A5D39",
"G. c #855836",
"H. c #925E36",
"J. c #925C2C",
"K. c #88613C",
"L. c #9A653B",
"P. c #93623A",
"I. c #A7693D",
"U. c #AD703E",
"Y. c #855E41",
"T. c #8C6443",
"R. c #856647",
"E. c #976945",
"W. c #997755",
"Q. c #8C6F55",
"!. c #A56D45",
"~. c #A8734A",
"^. c #BA784C",
"/. c #AC7853",
"(. c #BB7D55",
"). c #897664",
"_. c #847C74",
"`. c #937C66",
"'. c #AE7B67",
"]. c #C67E4E",
"[. c #7F817F",
"{. c #BD8458",
"}. c #86847B",
"|. c #9B8571",
" X c #A6886B",
".X c #B39478",
"XX c #C78557",
"oX c #D58659",
"OX c #CB8A64",
"+X c #D48D68",
"@X c #D39072",
"#X c #E09769",
"$X c #807F84",
"%X c #868585",
"&X c #8B8B8A",
"*X c #888688",
"=X c #918F8E",
"-X c #979488",
";X c #949493",
":X c #9A9A99",
">X c #8E8D90",
",X c #A49889",
"<X c #AE9D88",
"1X c #A7A397",
"2X c #BDAF9C",
"3X c #A7A7A8",
"4X c #B5B1AA",
"5X c #B9B7B8",
"6X c #B2ADA9",
"7X c #C7BFB8",
"8X c #CFB9A5",
"9X c #CBAA8A",
"0X c #CAC5BB",
"qX c #D6C4B3",
"wX c #F3CBB3",
"eX c #EDC6AE",
"rX c #C0BEC2",
"tX c #BDC5C3",
"yX c #C4C4C3",
"uX c #CCCBCB",
"iX c #C7C8C5",
"pX c #D6CEC1",
"aX c #D8D5CB",
"sX c #D1CFD3",
"dX c #D6D5D4",
"fX c #DBDBDB",
"gX c #DCDAD3",
"hX c #CDCBD0",
"jX c #E9D8C6",
"kX c #E6DCD3",
"lX c #F3DDC9",
"zX c #F9E4CF",
"xX c #E6E5DC",
"cX c #F3E6DA",
"vX c #E5E5E3",
"bX c #F3EDE4",
"nX c #FDF3E5",
"mX c #DFEAE8",
/* pixels */
"                                                                                                                                              ",
"                                                                                dX%XyX                                                        ",
"                                                                                yX. N.                                                        ",
"                                                                                5X. n.                                                        ",
"                                                                              fXb.@ y.uX                                                      ",
"                                                                          fX%X;XW @ V &X;X5X                                                  ",
"                                                                        vXb.W f.E 8 W f.y.f.5X                                                ",
"                                                                        N.W p.a.Y 7 W y.a.E f.yX                                              ",
"                                                                      dXS a.W a.W 7 Y a.W y.F &X                                              ",
"                                                                      N.W Y W y.W V A r.W Y W f.yX                                            ",
"                                                                    uXV W Y W E W V S W W Y W u &X                                            ",
"                                                                    b.Y Y A Y W W S A W Y A Y F f.uX                                          ",
"                                                                  uXA W Y A A Y W A F W S S Y W V ;X                                          ",
"                                                                  N.W Y A A A Y Y A A Y Y A Y Y Y f.uX                                        ",
"                                                                uXA E S A A A A A A A A A W S S E V ;X                                        ",
"                                                                n.y.Y F A A Y A A A F F Y A Y S W E f.yX                                      ",
"                                                              tXH y.S W S Y Y A A F Y Y Y S W A A E A &X                                      ",
"                                                            mXv.p.E U F F Y Y A A A A A Y A F A F Y E f.yX                                    ",
"                                                            tXS t.W U S Y Y Y A A Y Y S W V Y Y V W y.S &X                                    ",
"                                                          vXg.t.y.A N A A S Y Y A F Y A Y A Y A 7 A a.W a.iX                                  ",
"                                                          iXp t.y.A 7 Y Y A Y W A A Y F Y Y A A V V a.p.7 ;X                                  ",
"                                                kXcXkXxXuXg.R u.u.R 3 S S S S A F A A Y S V V A V V a.s.E s.4XvX                              ",
"                                          jXzXlX|.|._.M.n.Z R u.p.R V V A a.a.Y Y Y A Y y.a.W Y V S a.y.| C d._.0XxXbX                        ",
"                                    cXjXzX X<X.Xz.=.K g L W Z Z A u.i.Z E B.B.a.Y Y Y E b.&Xa.S E a.E V D P P D c._.1X                        ",
"                              jXzXlX.X.X9XQ.R.R.h.$.z x I L h ; * A V ; 7 a.p.A V V V W E f.V + S S 8 @ h G | P P K | 4X                      ",
"                          jXlX|. X.XW.W.E.E.9.,.} v g K P L u + . . . . . . . + + + 8 V . . . . . . . . h D P P G K - | pX                    ",
"                      jXjX). XR.Y.F.E.D.D.3.O.! / s x P L V 3 @ . . . . @ . . . . . + 7 . . . . . . . . ; j D | K g x # 1XaXbX                ",
"                    pX).`.q.7.K.D.H.J.L.!.A.2.! d s K P 5 % @ @ . . o . . . . . . . . + . . . . . . . . X % : P K x g a M.x.pX                ",
"                    x.{ %.0.9.H.H.!.(.+XXX!.G.' d z J P ; . X @ . . . . . . . . . . . . . . . . . . . @ @ . O D D { # a =.{ ,X                ",
"                  pXc { %.,.G.!.(.^.#X#XOX/.G.' q b k L W r.E N 3 3 O . . . . . . . . . . . . . @ + 8 7 A a.| D x K - 0 ) =.=.aX              ",
"                  k.K c } 7.9.!.^.].+X#XOX~.3.! q b y Z g.6X5Xb.E Y 8 . . . . . . . . . . . . . ; S y.f.:XyXM.j D c a q q $.a 1X              ",
"                  J x v } 0.9.E.I.].oXoXXX!.1.r q b 5 V r.3X5XC.T A 3 . . . . . . . . . . . . . + V W p.3X5Xf.y g b a 0 q c { =.kX            ",
"                  I g ^ %.0.G.L.I.^.XXXX{.T._ $ g D Z Y V t.E 8 + + O . . . . . . . . . . . . . . @ + 8 Y E S T D k f , w g | : 0X            ",
"                pXx e ) >.0.S.L.U.U.].XX Xl.0 # j A W E H 8 O . . . X . o . . . . . . . . . . . . . . . X 3 V y.E A Z > O 5 h 8 uX            ",
"                M.y s _ >.0.F.L.I.U.].XXW.#.# - L W E W Y V 3 O o O O O o @ + O o . . @ o o @ @ O O O @ 3 S A Y W *.R O . > o + aX            ",
"                *.9 s _ <.S.F.L.I.U.XX{.e.q X g *.W Y A S B 3 + + O O % @ + % O . . . @ O + + O O + + + M V N V W i.*.5 o = o O -X            ",
"                | e r ;.:.3.D.L.I.~.XX/.` # X K *.W W y.Y R L A Z C V S S Z V 8 ; ; ; 8 7 Z A V V V A A Y Y W E y.p.u.L = o O w *.1XbX        ",
"              0XK d r ,.1.Z.D.L.E.~./.S.9 X - D i.n.B.*X*X=X;X;X=X&X&X=X;X&X%XN.g.y.f.N.B.&X;X;X&X&X;X;X:X;X;X%XV.M.d.I k = O { -.=.,XcX      ",
"              c.v / ' 3.Z.A.P.E.E.E.T.' 9 - w j s.=X3X3XyXuXfXxXdXuXuXyX7X3X:X;XN.g.n.&X:X3X5XyXiXuXdXfXfXhXuX5X4X3Xn.J f J = b l.-.{ -XbX    ",
"              *.v ' ,.S.H.L.!.~.E.T.7.r a l k : A f.g.n.N.[.1X4X:X&X%XN.f.y.Y Y A V V L W E p.n.B.&X:X3X:X$XB.b.N.N.*.: , I w 0 #.l.$.c kX    ",
"              s.^ >.3.A.P.L.~.W.T.0./ $ z x j O o + + 3 3 V y.f.i.E F 7 @ . . . . . . . . . O 8 S W i.f.a.Q 7 3 3 8 O . , x g 0 s =.l.a -XxX  ",
"              =./ ..2.2.Z.A.E.K.q.6.9 0 z x f O . . . . . + 8 h h 7 % . . . . o @ o o @ o . . o + 3 7 V M 3 X . . . . . : x x 0 0 ) $.$.*.aX  ",
"              6._ ..+.+.Z.Z.F.q.>.^ 9 y g l f ; @ @ + @ @ O + + + + + + @ o @ + + + + ; + o o @ + + + + + @ @ + + + O O 5 j g w - a { $.K -X  ",
"            qX8.5.9.2.D.D.S.3.<.$.e y f f f 5 8 8 8 3 8 8 3 ; + + 3 8 8 + + ; 3 3 3 3 8 ; + + ; 3 3 % ; % ; ; 6 7 8 3 3 5 f y - w g z z J I xX",
"          qXx.5.R.E.P.~.P.9.:.%.{ - j j f 5 5 7 7 6 3 6 3 3 3 3 3 3 3 3 8 3 8 8 3 3 3 8 3 ; + 3 3 3 3 3 8 8 8 6 8 6 8 7 7 h 5 = # w f y k f gX",
"        nX).%.5.Y.T.E.E.G.7.} } c O 5 5 f 5 > 8 8 3 < 3 3 3 3 3 8 3 3 3 3 8 8 8 3 3 3 8 7 8 3 3 3 3 3 3 8 3 3 3 3 < 3 8 7 7 u 8 # O : j k O gX",
"        nX5.>.;.9.9.G.1.1.] _ ) w o * > 5 > > 3 3 6 3 3 8 3 3 3 8 3 3 6 3 8 7 8 3 8 8 8 7 8 3 3 3 3 3 3 3 3 3 8 8 3 3 6 6 3 7 h 5 % # 5 : k.xX",
"        8X5.7.9.F.9.2.:.] ( / c - # ; > > > 3 ; 3 6 6 3 8 ; ; 3 8 3 3 6 3 8 7 8 3 8 8 8 7 3 ; 3 3 3 ; 3 3 3 3 8 6 6 6 6 6 3 6 7 7 7 3 ; = 0X  ",
"      7Xh.2.9.G.F.3.:.<.&._ v c # % 3 3 3 3 3 3 3 8 3 3 3 3 3 3 8 3 3 3 ; 7 7 8 8 7 7 8 7 8 3 3 3 3 3 3 3 3 3 3 8 6 3 6 3 3 3 3 8 7 7 % O gX  ",
"    0Xz.:.2.2...] ] ] ' ` ) l k O O 4 1 3 3 3 3 3 3 3 3 3 3 3 3 3 3 3 3 + 8 7 8 8 7 7 3 7 8 3 3 3 8 3 3 3 3 3 3 3 3 3 3 3 3 3 3 8 8 3 + g.    ",
"    x.%.;.:.O.' ' ' ` ` n l l > o + 8 ; 3 3 3 3 3 3 3 3 3 3 3 3 3 3 3 3 + 8 7 3 8 7 7 3 7 8 3 3 3 3 8 3 3 3 3 3 3 3 3 3 3 3 3 3 3 3 + . rX    ",
"    z.` %.8.8.8.w.&.#.` X.m m o o * 2 * 3 3 3 3 3 3 3 3 3 3 3 3 3 3 3 3 % 7 7 3 8 7 7 3 7 8 3 3 3 3 3 3 3 3 3 3 3 3 3 3 3 3 3 3 3 ; @ . sX    ",
"nX8Xq.<.z.R.R.R.0.,.;.&.#.b J o . ; 3 3 3 3 3 3 3 3 3 3 3 3 3 3 3 3 3 3 3 7 7 3 8 7 7 3 7 7 3 3 3 3 3 3 3 3 3 3 3 3 3 3 3 3 3 3 3 3 + . sX    ",
"8Xz.q.K.R.R.q.,...] ' ' _ ^ v X X : 4 4 3 3 3 3 3 3 3 3 3 3 3 3 3 3 3 3 3 7 7 3 8 7 7 3 7 7 8 3 3 3 3 3 3 3 3 3 3 3 3 3 3 3 3 3 3 3 + . N.    ",
"Q.;.T.K.q.,.O.] [ ( ( ' _ { e X X 3 3 3 3 3 3 3 3 3 3 3 3 3 3 3 3 3 3 3 3 7 8 3 8 7 7 3 7 8 8 3 3 3 3 8 3 3 3 3 3 3 3 3 3 3 3 3 3 3 + . 3 dX  ",
"z.,.Z.4.@.~ ~ O.1.1.:.<.>.%.- X o 3 2 2 6 3 3 3 3 3 3 3 3 3 3 3 3 3 3 3 8 7 7 3 8 V 7 3 7 8 8 3 3 3 3 8 3 3 3 3 3 3 3 3 8 8 3 3 8 8 + o . dX  ",
"Q.,.1.[ ~ [ +.Z.A.H.T.T.Y.6.$ . O 6 6 2 3 3 3 3 3 3 3 3 3 3 3 3 3 3 3 8 7 7 7 3 7 V 7 3 7 7 7 8 3 3 3 8 3 3 3 3 3 3 3 3 8 8 3 3 3 8 % @ o }.  ",
").' O.~ +.J.U.~.^.(.(./.Q.} $ X % 6 < 6 3 3 3 3 3 3 3 3 3 3 3 8 3 3 8 8 7 7 8 3 7 u 7 3 7 7 7 7 8 8 8 8 3 3 3 3 3 3 3 3 3 8 8 3 3 8 3 o X k 1X",
")./ ' 3.~.(.OXOX+X@XOX'.'.} & X 1 4 1 6 3 3 3 3 3 3 3 3 3 3 8 8 8 8 8 8 8 7 8 8 7 V u 8 7 7 7 8 8 8 8 8 3 3 3 3 3 3 3 3 3 8 8 3 3 8 3 O . k d.",
"m.^ 8.W.@X@X+X+X@X@X@X@X'. .& & t t t 1 3 3 3 3 3 3 3 3 3 3 3 3 8 8 8 3 3 8 8 8 7 V 7 7 8 8 3 3 8 8 8 3 3 3 3 3 3 3 3 3 < 3 3 % 3 3 3 O X w d.",
"6X,X2XqXwXwXeXeXeXwXwXeX8X,X_._.%X*X>X*X*X%X%X%X%X%X%X%X*X%X%X%X&X&X&X%X%X%X*X&X&X&X&X*X*X%X%X%X*X&X*X%X%X%X%X%X%X%X%X%X%X%X%X%X%X*X%X}.}.}.6X"
};
