/* XPM */
static char *ee1d58643db8405ccbcb02bf14ab502ciAoJFUXZTWHYUjQs[] = {
/* columns rows colors chars-per-pixel */
"82 102 64 1 ",
"  c None",
". c #020202",
"X c #070707",
"o c #0B0B0B",
"O c gray6",
"+ c #170000",
"@ c #1B0F08",
"# c #101010",
"$ c #181818",
"% c gray12",
"& c #270000",
"* c #2F0000",
"= c #370000",
"- c #251404",
"; c #2F1804",
": c #26140B",
"> c #391C06",
", c #311B0E",
"< c #3D1F0E",
"1 c #3E280B",
"2 c gray14",
"3 c #2C2C2C",
"4 c gray19",
"5 c #323232",
"6 c #373737",
"7 c #3B3C3B",
"8 c #3F3F3F",
"9 c #430000",
"0 c #4F0000",
"q c #5B0000",
"w c #670000",
"e c #730000",
"r c #4C2403",
"t c #412312",
"y c #4A2513",
"u c #532B13",
"i c #572F17",
"p c #4B3210",
"a c #543B17",
"s c #5F331B",
"d c #673B1F",
"f c #5F431E",
"g c #674B26",
"h c #734323",
"j c #7B4B27",
"k c #6E532F",
"l c #464646",
"z c #4E4E4E",
"x c #565656",
"c c #5D5D5D",
"v c #61645F",
"b c #656565",
"n c #6C6C6C",
"m c #747474",
"M c #7C7C7C",
"N c #83532F",
"B c #8F5B33",
"V c #A06C40",
"C c #CC8F5D",
"Z c #DCA77E",
"A c #838383",
"S c #929292",
"D c #A2A2A2",
"F c #A9A9A9",
/* pixels */
"                                      <,<,<:,,                                    ",
"                                27z22,,:,,,,:,<2222l                              ",
"                               4$:,,:::,::::,,,:::7n#2                            ",
"                             42$,<,,,<<,:,,,<<<<<<:7#42l                          ",
"                            x24:<<tyuyy<:<<<<tytt<<<#l4#l47                       ",
"                           lA2@<tyyuiiit,<tyyyyytt<<,7n7Dl4l                      ",
"                          7$lo,<yttsddsyttiiuyy<yy<<,$2#x2ln2                     ",
"                          $o2o@ty<,sddsuuusdsuy<<yyt,,.242#l2                     ",
"                          6.#.oyt<,tussuysddiuy,,,u<<,.2##.2o                     ",
"                           ..:<y<,:,tyuutiuuuy,,t,yyt,,1...#o                     ",
"                            ..<tu,t,:,<<,uuut,tty<<uta,:...o                      ",
"                              <yy,yt,:,::<<:,tyyty<<yt1,di<t11%                   ",
"                              <yt<tyt,::@::,tuuyyt,,<<ut<tytuiuy                  ",
"                             ,ty<tsut<,:@:,tyyuyyt,,,,<t,,tysddsu:                ",
"                            ,<t,<usuy<::,<<tyyyt<<,,<<,,,,,igkkkdu,:#             ",
"                      @@@@:::y,,tusiit:,tyyyyy<<,,<<<,,,,,,ifksddusy:#            ",
"                  @:,<,<,,,,,,,,<sddsy,<iiuuyt<,<t<<t<,,,,tyafiddtdsy$:           ",
"                @,<,,,,,,,,,,,:<,iddsuuusdsuy<,,ttttt<,,,,tyiiuii,qweeeeq0        ",
"              ,uuy,,,<<tt<<<<,,:,tussuysddsiy,,tttty<,::,<tyuyyyqq9idu0==90q0     ",
"            ,uisiyt<<<ttttyyyt<,:,tyuutiuuyt,,tyt<<ty<,::<tt<r09udsdhkdi   &*0    ",
"            iyiisiuyttt<yyyyuuiyt,:,<<,uutt,ttyyyt,,,tt,@<>>99ysdgdisdhdy    *9   ",
"          ys<yiiiiiuitityyuuuuuytt,:,::<,:,tyyyiiuy<:,,:@,&-->>udhkdyyyuy     *0  ",
"         <yd@yyyyuisiiiituuiiiiiut,,::@::,,ttiddsuy<,:,@@:@,;uy<yiduyks<;      *q ",
"         ,ytot<<,<yiiiyttuiissssiut,::@::,tyuusdsut,:::@@@:y->yy<uysys<q0:     += ",
"         -i@<si,@@:tisuyyisisdddssi<,:::,,ysddddiut<,:@@@:,><@:,;t<<uuy@00t    +* ",
"         X<@@X@Xo@@,uduttuiisdhhddst<,::,<usdhhdsiuy<t,:::-;<XX-@@X>yt<u<+q    +& ",
"        @,@@X:ysy+@:tyt<<yuisdhhhdsut<,:,tiisddsiuyty<,,:@:@@@X@@X;y28ccwde=   ++ ",
"       ::t,<@0ew0=&:<y<<<tyuisdhjhdiy<,:<tsdhddsiytyut,:@@:@X@X@<yskdeekcedq=  ++ ",
"       @90wee9<,:@o@,tyuuytyisddhhduyt,:,<usdsiuytusy<,:@@::X-X-uslcckdeekeeX  X  ",
"     =99+>t,<,@@XXX@@,tuusutyuisddsyy<,::,yiiuyt<ydu<,,:::@:@@X#7l7446lkdeede: X  ",
"   &&&y:yi,@,ty,@XXXo@<yyudy<tyuiiyyt,:::,tyuyt<tsuy,t,:,::::X@#4%o2sy<<ut@duX=+  ",
" =++  y:yt@@<ssytoXXo:t<<yust<tyuyy<,:,:::,ttt<usuy<,<,,::,,: X#$X@s>yudys-d-@X   ",
"=+    ,@:,t@iiiiu,XX@:<,,<yusu<t<,,,<:<,<,,<tyiduy<,,,,,:,<::  @XX>;<sdddd<yt:X   ",
"X     ,X@t@tt<<tytXX::,,,,<yudiiiiuy<,t<yyuyidhut<<,,::@,t,:    X@@:yt-:<yu-u8>   ",
"X     ,@y::,@@:,<;XX:@:,,,<<tuhdsuut,:<tttuiisdu<<,:::@2<,@     @XXy<-@@X@:<:c:   ",
"+=    :@:,@XXX@@,XXX::::::,<<uddiy<:,,t<<<yyiiut<,::<,,,:@       @X::X@XXXXy:x$-  ",
" X    XX&XXXXXXXXXX@@:,<<,:,<tuii<,,,,yt,,<t,<t<<::<,,:@          X@:@@XXXX-yl$@  ",
"  &  y&=@XXXXXXXXX@ @:,,,<,:<<t<,,<,<<uy<,:,:,,,,:,,t,:           X@-@@@@XXX::$:  ",
"   + 00&@XXXXXXXX::  @:::,t<,,,,<<<,ttyuy<,<,:::@:@:,:            @@@XXX@XXX:u>@  ",
"    +=&@0@XXXXO$4:X    :@@:,t<,:tyu,<sdut,:::@:@:,:@@&            @X@XXXX@:ysdu@- ",
"     X>Xs$#OO#$4y@X      :,<tt::tyy<,ysiy<,@::,<@@to@              X:X@@@@yidsy@; ",
"     X@X8$$#ooo<sX@       @,<<,,<tt,:<yut<<:,,<to@::               X@@X@@@>yty;@> ",
"     X@X:XXXXXXXXX        X,,<yuyt<,:,yu<,,,,<<,++++               @X@@X@@@@-:@@- ",
"      $$XXXXXXXX@X        &+,,:,<,t,<<ttt,,<:,,<+*++                X@@@@@XXX@@X- ",
"      %4XXX@@XXX@X%       &+@,,::<i,tiytt<,@:,,@X++*+               @X@X@@XX@X@@@ ",
"      #$X@,:XXX@@X3       +@@<,,@yi,,iiyyy<:<t:@@o+++                X@@@@@XXXX@o ",
"       XX@XXXX@@@X4      #X@o,<<<ty,<ussyyyt<<:@:::@+                @XX@@@@@XX@o ",
"       X@@@@XXXX@X%     :@@@::<tt<t,,udiytt<<t,ytsss::                 XX@@@@@X@  ",
"        X@XXXXX@@X$     @@,tt@:yiit:,iduy,<tyusssddiytyt               @X$@@@@@X  ",
"        @@XXXX@@@X     @@@-,it@@,yyy<tsisyyuuyttyiyy<;@yy               X2@XX@@X  ",
"         X@X@X@@@@,    @<:@:,y:+@@:<y<uyty<y,:,,<<tt<,<uyt              @3:@XX@X  ",
"          :@@@@XX@@X# @,uy,ty<y<,:@@@:<,@@:@,<tuiiuyttussy               2X@XX@X- ",
"           ,@X@XX     @tuiiuiiiuuiy@o,:@@uisssssiuyy,<yidi,              ;X@XX@X@ ",
"            X@X@X    @:tyuuuisdddsuy:+o:tiisddsiyyt<::<yddu               XXX@@-X ",
"            X@XXX@  @@::,<tyyisssiuy<:@,uiiiiiuytt<,@@:<ihs@              ;X-@:yXy",
"            ,@XX@X #,,::,<<<<tyuyyyy,:@:tyuuyyt<<,,:@@@:ydh,#             X@@@>yX<",
"             X@XX@ #,,:,ttt<,,,<,,<,:@@@,,<<,,,,,,:@@:@@<ij<@              :X@@yX-",
"              @@@XX,,,,tuuy<;::@-:@@@@o@::::::@@:,,::@@@:ydt@               X@@:X-",
"                   ,,,<udsut,:@@@@@oooXX@-:@@@@:,,,:::@@@,iu@               X:<:X@",
"                  :,<ttiddiu<:@@@@ooooXo+@@@@@::,:::::@@@@yi:              X:d>XX@",
"                  :,tyysdhsu<:::@@@@oo     @@@@@::,,:::@@@<i,            t@y:y@XX ",
"                  :,tpisddsy<,::@::@@%      @@@@@:,<,::@@@,s<           <-X>X@XX  ",
"                  ,,<yisdsiy,,:@@,::@        @@:@@:,<,::@@:i<           :X:@XXX   ",
"                 :,,<yiddsy<,:@:,::@          @@:@@:,<,:@@:u<            -@XX-    ",
"                #t,,<ysdsit,,@:,,:@@           #@:@@:,,:@@:y,                     ",
"                ,u,,tyissit,,:,,::@@           #@@:@@:::@@,,,                     ",
"                ,y,,tyiiiy<,::,::@@             #@@@@@@@@:<:@                     ",
"                <t,<tyuuyt<:::,@@@,             @@::@@@:,<y@                      ",
"                ty,t<tyt<,::::@:@,             @@:<y,:@@@:t:                      ",
"                <u<<<,,:@@:::@@:@@            @@:tidu,@@:@:                       ",
"                ,,<tshdsut,@@@:::             :,<shs<:@,@@                        ",
"                :<ysshNjhsut:@@@              ,,tdst:@,@@                         ",
"                @:<yushNhdsi,:@               :tust,@,@                           ",
"                @@,y<yidhjhdu,:@             @@tsy:@@@:                           ",
"                ,:@:<<,::,,<<,<u#            %,,ttt:@:                            ",
"                @,:::::@:,,,,t1tu@          %t,,:@@@@                             ",
"                @@:,::,:@:@#@<:,:t<,       ,t:,:<@#@:@#                           ",
"                :@@@:,:@@@@@@@:@,u@:       @u$$$$$$$$27                           ",
"                 ::i:@@@@@@,:@@@,t:$@     #%%%$234lzxl73                          ",
"                  %p@@:@:#@:,t:@s@$%,      $$%22$%%362$$2                         ",
"                 $$O:,@:@@:@<it:t$%%<     <$%$22$$$$$%2O#                         ",
"                 %%$#:@,@@,@@<i:@%%%       %2$$$$$#$$$4#@%                        ",
"                %%7z72$$$$$$$$$$%%%y       %%$2$$%9#9$%3##                        ",
"               :%%%37lll72%$$%%%$#,        $$$2$$$9$0$28@O$                       ",
"               $$$2$$22373222%$$$:          %$%%$$2q$0%37##                       ",
"               $#%#O$$#$$2$%$$%$$            %%%2%39$*24x@O@                      ",
"               2O2O###$$%4$2$$2%$            #$2326*#%3888###                     ",
"              $@:####$$$%8$%2$%%$             $%$%6%24l8v4%#@                     ",
"              29=####$$$28$$2$$$               $$272338l7n42@$                    ",
"              t93##$#$%22c%%%$                  %26ga46gNn424$                    ",
"             ;0@%#$$%2224c3%%%                  444666666666343                   ",
"            $,:%$$%%2237l832$#                  $$6BZCVg8xx8t$$                   ",
"            $$@$%%%22368v4%%$@                   24lcmSF FFvnx46                  ",
"            ,$@334226246n4%$$                   62246lnmSncncclc                  ",
"            $$4263234pfNn4%$$                   42246xnmSncncclc                  ",
"           $$333$6336666664%                     467lxnASMbnbzlz                  ",
"           .$$t8xx8gVCZB6$$#                      222247l722###                   ",
"          464xnvFF FSmcl423v                                                      ",
"          4clccncnSmnl64226$%                                                     ",
"          4clccncnSmnx642243$                                                     ",
"          $zlzbnbMSAnxl7642$                                                      ",
"           ####227l742222##                                                       "
};
