/* XPM */
static char *_9f38ee44be94e129bb4525f0e71e853[] = {
/* columns rows colors chars-per-pixel */
"82 104 62 1 ",
"  c None",
". c #020202",
"X c #070707",
"o c #0B0B0B",
"O c gray6",
"+ c #170000",
"@ c #1B0F08",
"# c #101010",
"$ c #181818",
"% c gray12",
"& c #270000",
"* c #2F0000",
"= c #370000",
"- c #251404",
"; c #2F1804",
": c #26140B",
"> c #391C06",
", c #311B0E",
"< c #3D1F0E",
"1 c #3E280B",
"2 c gray14",
"3 c #2C2C2C",
"4 c gray19",
"5 c #323232",
"6 c #373737",
"7 c #3B3C3B",
"8 c #3F3F3F",
"9 c #430000",
"0 c #4F0000",
"q c #5B0000",
"w c #670000",
"e c #730000",
"r c #412312",
"t c #4A2513",
"y c #532B13",
"u c #572F17",
"i c #4B3210",
"p c #543B17",
"a c #5F331B",
"s c #673B1F",
"d c #674B26",
"f c #734323",
"g c #7B4B27",
"h c #6E532F",
"j c #464646",
"k c #4E4E4E",
"l c #565656",
"z c #5D5D5D",
"x c #61645F",
"c c #656565",
"v c #6C6C6C",
"b c #747474",
"n c #7C7C7C",
"m c #83532F",
"M c #8F5B33",
"N c #A06C40",
"B c #CC8F5D",
"V c #DCA77E",
"C c #838383",
"Z c #929292",
"A c #A2A2A2",
"S c #A9A9A9",
/* pixels */
"                                      ,,:<,<,<                                    ",
"                                j2222<,:,,,,:,,22k72                              ",
"                              2#v7:::,,,::::,:::,,:$4                             ",
"                            j24#7:<<<<<<,,,:,<<,,,<,$24                           ",
"                         74j#4j#<<<rrtr<<<<:<ttytr<<:42l                          ",
"                        j4jA7v7,<<rrtttttr<,ruuuyttr<@2Cj                         ",
"                       2vj2l#2$,<<tt<ttyuurrtassarrt<,oj$7                        ",
"                       2j#242.,,rtt<<tyasayyyassa,<tr@o2o$                        ",
"                       o2.##2.,<<y,,,tyussatyaayr,<rto.#.6                        ",
"                       o#...1,,rtt,r,,tyyyuryytr,:,<t<:..                         ",
"                        o...:,ary<<trr,ryyy,<<,:,r,yr<..                          ",
"                            ,1rt<<trttr,:<<::,:,rt,tt<                            ",
"                          ,,ryr<,,rttyyr,::@::,rtr<rt<                            ",
"                    11r<usayt<,,,,rttyttr,:@:,<ryar<tr,                           ",
"                  tyutrtr<<<,,<<,,<<rtttr<<,::<tyay<,r<,                          ",
"                :yassutr,,::::,<<<,,<<tttttr,:ruuayr,,t:::@@                      ",
"             #:,ysffsut,::,,,,:,,<<,,<rtyyuu<,tassa<,,,,,,,,<,:@                  ",
"            #:tayyaautr::,<tr<,:,,<<,,<tyasayyyassu,<:,,,,,,,,,<,@                ",
"           :$tasrsat<<,:::,<ty<<r<<<<,,tuassatyaayr,:,,<<<r<<,,,tyy               ",
"        0qeeeewq,yautr<,:::,<ttt<<rttr,,rtyyuryytr,:,<rtr<rr<<<rtuauy             ",
"     0q09==0ysu9qw0rty<,,:@:,<<rrrttttrr,rryy,<<,:,rtuyttr<rrrtyuauutu            ",
"    0*&   ushfsasy9qq><<<@:,,,,<rtyyytttr,:,<::,:,rtyyyyyt<<ruyuuuuut<at          ",
"   9*    tsfsausdfat==9><@,rytr<tyyuuuuuyr,::@::,ryuuuuuyyrruuauytttt@st<         ",
"  0*     tytttshfsy>>@-&,@:,uuuyyyuuaaaauyr,:@:,ryuaaaauuyrtuuut<,<<rort,         ",
" q*      ;<ahtysut<ty:,@:@@,ruaauuauasssauyr,:,<uaasssauautyaur:@@,ua<@u-         ",
" =+     :0q<ataty<tt>-t:@@@:,ruyayuuasffssat,,<rassffsauuyrysy,@@oX@X@@<X         ",
" *+    r00@tyy<<r;,:@<>,:@@@:,rr<tyuasffsauy<<ryasfffsauyt<rtr:@+tat:X@@,@        ",
" &+    q+<y<rt>X@@-XX<;-:@:,@:,<trtyuassauyyrrtysfgfsauytr<<t<:&=0we0@<,r:        ",
" ++   =eswzz82t;X@@X@@@:@:,<,:,rytrtuassfsayt<ryasfssautrtytr,@o@:,<9eew09@       ",
" ++  =qsezheeshat<@X@X@:@@:,<,,<tayrtyuasautt,<tuasauytryayr,@@XXX@@,<,r>+99=     ",
"  X  Xeeheeshzzjay-X-X::@@@:,<r,<yst<rtyuutrr:,rtuuytr<tsyt<@oXXX@,tr,@,ut:t&&&   ",
"  X :eseeshj6447j7#X@@:@::@@,,<r,tyar<rtyt<<<::,<tytr<rayt<r:oXXortaa<@@rt:t  ++= ",
"  +=Xys@ry<<ta2o%4#@X   :,:@@:,<,<tyay<rrr<<,::<,,<r<yayt<,<:@XX,yuuuu@r,:@,    +=",
"   X@-s-atsyt>a@X$#X    ::<:@@:,,,<tysutr<,,,:,<tyuuusyt<,,,::XXrtr<<rr@r@X,     X",
"   X:rt<ssssa<;>XX@      :,r:@@:,,<<ryfsa<<,:::,ryasfyr<<,,:@:XX;<,:@@,::t@,     X",
"   >8y-yt<:-rt:@@X        @,<,::::,<<yssutr<,:,:<tussy<<,:::::XXX,@@XXX@,:@:    =+",
"   :z:<:@X@@-<tXX@         @:,,,<::,<ryuu<,,,:,,,<uuyr<,:,<,:@@XXXXXXXXXX&XX    X ",
"  -$l:tXXXX@X::X@            @:,,<::<<r<,:,<<,,,<,,<r<<:,<,,:@ @XXXXXXXXX@=&t  &  ",
"  @$jt-XXXX@@:@X              :,r,,:,,,,:,rut<,tt<<,,,,<r,::@  ::XXXXXXXX@&00 +   ",
"  :$::XXX@@@@-@X               :,:@:@:::,rysa<,ytr:,<r,:@@:    X:4$OXXXX@0@&=+    ",
"  @>y:XXX@XXX@@@                @@<,::@,<tuat,<ttr::rr<,:      X@t4$#OO#$aX>X     ",
" -@ysat:@XXXX@X@                @or<,,:<<ryt<:,rr<,,<<,@       @Xa<ooo#$$8X@X     ",
" ;@tasut@@@@X:X                 ++,<<,,,,<yt,:,<rtyt<,,X        XXXXXXXXX:X@X     ",
" >@;trt>@@@X@@X                +*+<,,:<,,rrr<<,r,<,:,,+&        X@XXXXXXXX$$      ",
" -@@:-@@@@X@@X@                ++X@,,:@,<rrtur,u<::,,@+&       %X@XXX@@XXX4%      ",
" -X@@XXX@@@@@X                 +o@@:r<:<tttuu,,ut@,,<@@+       3X@@XXX:,@X$#      ",
" @@@X@XX@@X@X@                 :::@:<<rtttaay<,tr<<<,o@X       4X@@@XXXX@XX       ",
" o@XXXX@@@@@X                 saart,r<<rrtusy,,r<rr<::@@       %X@XXXX@@@@X       ",
" o@XX@@@@@XX@               rtussaaaytr<,tysu,:ruut:@rr,@      $X@@XXXXX@X        ",
"  @X@@@@@XX               r@;<ttutrrtyyttauar<ttt,@@ru,-@@      X@@@XXXX@@        ",
"  X@@@@@$X@              ty<,<rr<<,,:,t<trty<t<:@@+:t,:@:<@    ,@@@@X@X@X         ",
"  X@@XX@2X              ruaytttyuuyr<,@:@@,<:@@@:,<t<tr,ty,@ #X@@XX@@@@:          ",
"  X@XX@:3@              ysut<<ttyuaaaaauy@@:,o@tuyyuuuyuuyr@l8   XX@X@,           ",
" -X@XX@X2              yaft<::<tttuassauur:o+:tyasssauyyytr:     X@X@X            ",
" @X@XX@X;             #afa<:@@,<rrtyuuuuuy,@:<tyuaaauttr<,::    @XXX@X            ",
" X-@@XXX              <ggy:@@@:<<<<rttyytr:@:,ttttytr<<<<,:::   X@XX@,            ",
"tXt:@-X;             @tMsr@@:@@:,,,,,,<<,,@@@:,<,,<,,,<rrr,:,:  @XX@X             ",
"<Xt>@@@X             :ugu,@@@::<,:@@::::::@o@@@@:-@::;<tyyr,,:XXX@@@              ",
"-Xt@@X:              <sst@@@@:,rr<:@@@@:-@XXooo@@@@@:,ryasy<,,:                   ",
"-X:@@X               <gu,@@@:@@:,<,,@@@@@+oXoooo@@@@:<yyssur,,,                   ",
"@X:<:X               rft@@@@:::@::@@@@@o   2oo@@@@:::<yufsatr<,:                  ",
"@XX>s:X              rs<@@@:::,,@@@@@@@     %@@::@::,<tassautr,:                  ",
" XX@t:t@r            ru,@@@::,<,:@:@@@       @::,@@:,,tussauir,:                  ",
"  XX@X>X-<           ,t:@@::,<,:@@:@@        @@:,:@@:,ruasaut<,,                  ",
"   XXX@:X:           ,t:@@:,<,:@@:@@          @::,:@:,<tassut<,,:                 ",
"    -XX@-            :t:@@:,,:@@:@#           @@:,,:@,,ruasat<,,r#                ",
"                     :u,@@:::@@:@@             @::,,:,,ruaautr,,y,                ",
"                      y<:@@@@@@@@              @@::,::,<tuuutr,,t,                ",
"                      rt<,:@@@::@@              @@@,:::<rtyytr<,r<                ",
"                      :r:@@@:,t<:@@              @:@::::,<rtr<r,tr                ",
"                       :@:@@,ysur:@@             @:@@:::@@:,,<<<y<                ",
"                        @@,@:<afa<,:              ::@@@,ryasfar<,,                ",
"                         @@,@:rayr,,              @@@,ryafgmfaat<:                ",
"                           @,@,r<<r:               :,tuasfmfayrry:                ",
"                           %@@@:,,,:@             @:,yasgssut<:@p                 ",
"                             @@,,::,,@           @@:,taaayt,@@@:y                 ",
"                             #@:@#@<:,:r        #@:@:,<<<,@@:,<,r                 ",
"                             72$$$$$$$$y@       <,@::@::@@:,,<:::                 ",
"                            37jlkj432$%%%    ,<r:,:<@#@@@:,,:::@                  ",
"                           2$$263%%$22%$$    :@y,@:@@@@@@@:,:,@@                  ",
"                           #O2%$$$$$22$%$    $:r,@@@:,@@@@@@:u:                   ",
"                          2O#6%%$$$$$$$2%    %$@a@:r,:@#:@:@@i%                   ",
"                          @:73%%$$2$$2$%%    %%$r:ru<@:@@:@,:O$$                  ",
"                         29=j2%%$$%$$2$$$    %%%@:u<@@,@@,@:#$%%                  ",
"                         r9k422%%%$$%%$%      %%%$$$$$$$$$$27k7%%                 ",
"                        ;0@l6422%%%2%%%        #$%%%$$%27jjj73%%%:                ",
"                       $,:88j44332232$#         $$$%22237322$$2$$$                ",
"                       @$%4x8j43322$%$          $$%$$%$2$$#$$O#%$$                ",
"                      $@34v7j833272$$           $%2$$2$4%$$###O2%$                ",
"                      $424vmd64pd62%            $%%$2%$8%%w$w$##2$$               ",
"                     343666666666444             $$$2$$82%w$w$##2$$               ",
"                     $$r8ll8dNBVM6$$               $%%%z22e%e$##3$$               ",
"                    64lvxSS SZbzj42                %%%3z432w%w$#%#$$              ",
"                    zjzzvzvZbvj64226               #$238j83q2q%$$%$$$             ",
"                    zjzzvzvZbvl64224               @$%%4x8jq%q2%%$@$$             ",
"                    kjkcvcnZCvlj764                 $$%4v680%03433@$,             ",
"                     ###227j742222                  $$%4vmdp62%3624$$             ",
"                                                      4666666326$333$$            ",
"                                                      $$6MVBNd8ll8r$$.            ",
"                                                      324jzbZS SSxvl464           ",
"                                                     $62246jvbZvzvzzjz4           ",
"                                                    $342246lvbZvzvzzjz4           ",
"                                                     $2467jlvCZncvckjk$           ",
"                                                      ##222247j722####            "
};
