/* XPM */
static char *_5f82a8fb86e42cd8d3acb5fbd0c21acFJ3MYBpQiJDBerVl[] = {
/* columns rows colors chars-per-pixel */
"93 104 75 1 ",
"  c None",
". c #020202",
"X c #070707",
"o c #0B0B0B",
"O c gray6",
"+ c #170000",
"@ c #1B0F08",
"# c #101010",
"$ c #181818",
"% c gray12",
"& c #270000",
"* c #2F0000",
"= c #370000",
"- c #251404",
"; c #2F1804",
": c #26140B",
"> c #391C06",
", c #311B0E",
"< c #3D1F0E",
"1 c #3E280B",
"2 c gray14",
"3 c #2C2C2C",
"4 c gray19",
"5 c #323232",
"6 c #373737",
"7 c #3B3C3B",
"8 c #3F3F3F",
"9 c #430000",
"0 c #4F0000",
"q c #5B0000",
"w c #670000",
"e c #730000",
"r c #7F0000",
"t c #542800",
"y c #412312",
"u c #4A2513",
"i c #532B13",
"p c #572F17",
"a c #543B17",
"s c #5F331B",
"d c #673B1F",
"f c #674B26",
"g c #734323",
"h c #7B4B27",
"j c #6E532F",
"k c #7B5F37",
"l c #464646",
"z c #454844",
"x c #4E4E4E",
"c c #4E504D",
"v c #565656",
"b c #585D56",
"n c #5D5D5D",
"m c #61645F",
"M c #656565",
"N c #6C6C6C",
"B c #747474",
"V c #7C7C7C",
"C c #8B0000",
"Z c #A70000",
"A c #BF0000",
"S c #97633B",
"D c #838383",
"F c #8B8B8B",
"G c #929292",
"H c #9A9A9A",
"J c #A2A2A2",
"K c #A9A9A9",
"L c #B1B1B1",
"P c #D0B085",
"I c #C0C0C0",
"U c #C8C8C8",
"Y c gray81",
"T c #D2D2D2",
"R c gray87",
/* pixels */
"VGVNv             .::::::,,::                                                                ",
"2...4Vlv       ::,,<<<2xxvNy,,:                                                              ",
"   2x#.6lxx   :,<yyyp##224lNuy,:                                                             ",
"      $.42Vll:,<uuuup2lxnx4lnpy,,                                                            ",
"        .l7nxllyuuyf2247lVx2l6py,,                                                           ",
"         #.24lxl774v7lxl77n2l7suy,,                                                          ",
"          ,..$4lnNnUDMl74$l4.$spy<,:                                                         ",
"          a::..2272M2422$o4..:spyy<,:                                                        ",
"           a,::#.#$4$##...2.:.puyy<,:,                                                       ",
"            fy,1y,#y#11#:,#,..uy<y<,,,,                                                      ",
"            SPcF1a,a,a1y,#$..:y<yy<,,:,                                                      ",
"            xKlJ4,:::#:::...@:yyuyy<,:::::::@@                                               ",
"            vvxFVy,:@@@....@:,yuiyy,,::@,,,,,,,,:,                                           ",
"             nIkvs<@@@@@@@:,yiipiy,,:::,yy<,:::::,,:                                         ",
"            Bvn,dsu<,:::::@@,yuuu<::::,ysiy<:::::,,,,:                                       ",
"            .:udippu,::,,,:@@:,,,,:::,ysgdpiy<,,,,<<,,,                                      ",
"            ydpyuiiy,:,::::::,:::::@:<idhgsiuy<,,yuy<<,,                                     ",
"            ,,,yuuuy,,y<@@::@:<:,@@@:ypggdspiy,,<uiuy<,,,::                                  ",
"             ,y,,yiu<<:,y:@,@@@<@:@:,usddspiuyy,<ypiy<<,,ud::                                ",
"             ::::yii<::::u,@y@,@<@@:,yiiuuyyyyy<yupsu<<,,,<<::                               ",
"              :::,,<<:::::y,@,@@@@@:<y<,,<<yuuuy<yupiy<,,,:u<:                               ",
"                   ,,::::@,<,@@@@@:,yy,<<yuipspu<,yisu<,,,,:u,nX                             ",
"                      :@@<@,,@@@@:yyyy<yipsssspuy,,uiiy<,,,,:yn<e                            ",
"                       :::<@:@@@#yippuiippddssuyy,:yuiuy,<,,:us@eu                           ",
"                        :@,X@@@@yyuppppuuuspiu<<<:@<ysyyyy<,::dd0d@                          ",
"                         ::X@@u,yyyuupui,,iuu<<<,:#,<py<yuy<,,di9u@d                         ",
"                          @X,,u@,<,y,,,,:,uuy,,,::#:<iyyuiuy<,d9+d,s                         ",
"                           X,<,@@,:y,:@:-:ui<,,:-@@@,uyuipiuy,*X<p,g                         ",
"                          :X@@@o;pp<u<@@<<upi,y:::@@:yyyuisy,yXXd-pl                         ",
"                          :@X@Xydfsp:sffddpdspy:y@,::,<<yupy,,uyu@d                          ",
"                          @@@Xydjvjpp@ss<<djvd,pso*&@:,yuyiy,:su@dx                          ",
"                           @X,ipsddddi:u@ssjjd,u<+9o@@:<<yuy,:uX<no                          ",
"                           ,@<<<usssi<,,,pifdiu:99@@:@@,yuyy,:<Xp%%                          ",
"                           X@<<<,,usi,,,,pidsiu:99@@@@@:yuyy,:@XdX                           ",
"                           XX:,<@@@<uu@y<uusu<0=&dy@@:@:<uyy,:@<sX                           ",
"                           @XXusy@XX,i:@sipy,0+@gd<,<@@:,uyy,,:su:                           ",
"                            @XpdpddyXidusuyeq+Xuss,,@@@::iy,:<y:::                           ",
"                            @X@:@@,<<si<ueq+&X,uu<X@@@@:,i<,,::@,                            ",
"                            ,:@XXXXXXu:<q&&,@<,u<@X@:@@:,p<,:@@:<                            ",
"                             @488uu@:,<0+usu@::&XXX:,,@:,i<,@::<                             ",
"                             @svjsjx8q=Xss,:@X=&X@@,y<::,u<:@,,                              ",
"                             :pgsjx8q*X<<uXX%$=XX@:<iu@:<<,::-                               ",
"                             yX@%230&XXX@XX%29@X@:<upp:,y,,:uX                               ",
"                             s@:s,=+uXX@@Xuu0*XX::,yus,<<<@,<X                               ",
"                            ys<gy=XiuX@@@uq0&XX,,@:,<piuy<,:<,                               ",
"                          suiusd<XyduX=099&@@XX,<,:::,uipsu<,,                               ",
"                        <sipipi<i<X=9&&&XX@$XXX,,,<yyipssdsiy<t                              ",
"                       yussddu@X:<,@XXXXX%3X@X@@@@:,<uippppu<<<                              ",
"                      uuudggs:XX@,,@@XXXO$X@X::::::,,,,,,,,yy<<<                             ",
"                      ,<Xjsi<:@@@:XXXXXXXXXX@@@@@@@@@@@:<:,<uuu<                             ",
"                     xds@,d<@@@@@XX@XXXXXX@+&@:@@-=@::@@,:<yipiy                             ",
"                  xvvl:<yX,@X@@XX@@@XX@@X-+9*+=+=&X@-*--:,<upppu                             ",
"                 l7666::<XX@XXXXXXXX@X::.09&=,@@@@O@,y,:,<uipspy                             ",
"     ups       ii867su<XXX@XXXXXXXX@X@::::::-@@@@$%42uy<<,<uppu<                             ",
"     @ssdppuuuuyd#%2$XXXXXXXXXXXXX@:@@::,,::<;::,,:,,uuuuu,<uyy:                             ",
"      @usdddsu,,uXXXXXXX@@XXXXXX@@:,,:@@@-<<:@@,y<,uiuispi<,,,,                              ",
"     s,,uppp<uX@XXX@@@@@@@@@@    ,<:@@@#@@@<:::,,,yussssspy<,,,                              ",
"@y<u,y<y,<,u<,@X@@@@X@          ,,:<:@@@@@@:::,,,,<yipsddspy<yu                              ",
",@:@X@X,:::@@,@XX@X@@          ,y:<:@@::@@@@@,,,,,<yupsdddsy<<i                              ",
"     @,@@:@@@X@@XX:            <u<<:::::@@@@@,,,,,,yuiiddddp<<u,                             ",
"    -<s@X@@X@@@@XX            ,uy<:,,,:@@@@@@,,,,,,yuipsdddsy,<y                             ",
" ,,,X@<@X@@X@@@@X             <<<,,,<,:@@@@@@,,,,,,<yipsddddi,,<                             ",
" @XXXX:@X@@XX@@@              uuy,<<<:@@::;<@,:,,,,,yupsddddpy,,                             ",
"       XX@@@@XX@             ,ii,<yy,:::,<<<,,::,,,,<yipsdddpy,,<                            ",
"       @@@@@@@X              <uy,<yu:,,<<<<<:,::,,,,<<yipsddpyy<u                            ",
"       ,X@  ,,               ,<,;><,,yy<<<<,@:::,,,,,<<uipsspy<,y                            ",
"                             :,@:,,,yyyy<>,,@:::,,,<,<<uuipsiy,,<                            ",
"                             ,:@-::,<y<<,;,:@::::,,,<<<<yuipuy:,,                            ",
"                             <,:@:::,,,,::::@::::,,:,,<<<yuiyy:,:<                           ",
"                             ,<:::::@@@@#@@@#@@:::,::,,<<<<u<y:,:,                           ",
"                             :y,,,,::#...XOO#:@@:::,::,<<y<<<u,,::                           ",
"                              <<,<y,:@....X@::@@@::,,,:,<yyupi<,::                           ",
"                              ,y,ypi:@####::;;,@@:::,,::,<yyiiy,::                           ",
"                              :,,ypp,@::@::,::@@:<::,,,::,<yuuu,:::,y,,:                     ",
"                               @:,<u<@@,,@::,,:@:y@:,,,<@:,<yy,:@@<pdpu<::                   ",
"                                 @:,,@@@::@@::@:##@:::<<,@@,<<:@@,idgdpy,:::@,:,<,:::@       ",
"                                  @@::@@@###$$$%#Xo@:@@<y@@@,:@@,idhgpu<::,,<yy,<u<,@,,,,    ",
"                                     #@@:%##$###oXX@@@r,<,@@:@@,ysgdiy,::::upsiy,::u<:@%2    ",
"                                       :%642$$##OoXo@qw@<<@@@@:<ispuy,@@,yuy<,::,:y:y,%%22@  ",
"                                       27nv633223$oO%93:y,@@@@:,<y<,:@@:::@:,:@:@$$%%%%$$3   ",
"                                      ,6nnx622%$$$OOO#4v:<,@:@@@,,,:@@@:,:,,:@@%2%2%%%%%$$   ",
"                                     ,ylnll432%##$OOoX$3@,<,:<,,::@@@@:::@:@@@@%2%2%$$%%$$   ",
"                                     ,4n7z3243$O###oXX #@@@@:::,,,,,:::::@@%328xn842$$%%$$$  ",
"                                     :l686224%OO#OoXX                     :%32xNVBNv2$#$$$%, ",
"                                     46l62232##OOoooX<                      2zBGDx$23%##$%$: ",
"                                    34862233$$#OooOX#                       2MKGM$9:62$#$2%O ",
"                                  Sn8c7%243$$#OoXoo,u                       bLJV4:ep63$$$$%@ ",
"                                 lVHBv6342$$$#oXX.O                         nYJM$CZy77%$$$O:<",
"                                $%2MBn632$$$$OooX&o                         mTG7qZ,%76$$$$O4$",
"                                $28Nnx832%%%$O$&o9                          mID3,C3%74$$#$o$<",
"                              $$$$%67ll7xx84%$$%O1                         <nJB4:9%282$$$$o#$",
"                              aa6nnz447xvl2$##$. ,                         7vKV4%6647%$%3$:  ",
"                             ,,:6237xnNBJNnl322<p                          MnJBl487l3$$%$,%  ",
"                             :1,62%%2388x736%$2                            cnJDNnl862$$%44y, ",
"                             :y12%%%%34473%%$$2                          lxxVHmbxl832%467,,, ",
"                             :83$$$##$$%2%#$#%4                          4lBKB864442%$X%$,   ",
"                              ##OooXXXoo##ooXO                           48MBnxl433%$$XxA,   ",
"                                                                        N64l62%$6432$$.2#    ",
"                                                                       BR RHDFNn6$##X....9   ",
"                                                                       nDLDNnNBBN734l884%#   ",
"                                                                       nDKDnl7l474233#.###   ",
"                                                                       nDKDl678344222%X$##   ",
"                                                                       DJKGFNMx666222%.%#.   ",
"                                                                        .222222%%2.......    "
};
