/* XPM */
static char *_655fd3fd90a492eaaee70dd27162868fOkX4xHuf3HPD5BF[] = {
/* columns rows colors chars-per-pixel */
"82 104 64 1 ",
"  c None",
". c #020202",
"X c #070707",
"o c #0B0B0B",
"O c gray6",
"+ c #170000",
"@ c #1B0F08",
"# c #101010",
"$ c #181818",
"% c gray12",
"& c #270000",
"* c #2F0000",
"= c #370000",
"- c #251404",
"; c #2F1804",
": c #26140B",
"> c #391C06",
", c #311B0E",
"< c #3D1F0E",
"1 c #3E280B",
"2 c gray14",
"3 c #2C2C2C",
"4 c gray19",
"5 c #323232",
"6 c #373737",
"7 c #3B3C3B",
"8 c #3F3F3F",
"9 c #430000",
"0 c #4F0000",
"q c #5B0000",
"w c #670000",
"e c #730000",
"r c #412312",
"t c #4A2513",
"y c #532B13",
"u c #572F17",
"i c #4B3210",
"p c #543B17",
"a c #5F331B",
"s c #673B1F",
"d c #5F431E",
"f c #674B26",
"g c #734323",
"h c #7B4B27",
"j c #6E532F",
"k c #464646",
"l c #4E4E4E",
"z c #4E504D",
"x c #565656",
"c c #5D5D5D",
"v c #61645F",
"b c #656565",
"n c #6C6C6C",
"m c #747474",
"M c #7C7C7C",
"N c #83532F",
"B c #8F5B33",
"V c #A06C40",
"C c #CC8F5D",
"Z c #DCA77E",
"A c #838383",
"S c #929292",
"D c #A2A2A2",
"F c #A9A9A9",
/* pixels */
"                                   ,,:<,<<:,,                                     ",
"                             k2222<,:,,,,,,:,<2222k                               ",
"                           2#n7:::,,,::::::,,,:::7n#2                             ",
"                         k24#7:<<<<<<,,,:,,<<<<<<:7#42k                           ",
"                      74k#4k#<<<rrtr<<<<:<<<rtrr<<<#k4#k47                        ",
"                     k4kD7n7,<<rrtttttr<,rtttttrr<<,7n7Dk4k                       ",
"                    2nk2x#2$,<<tt<ttyuurruuytt<tt<<,$2#x2kn2                      ",
"                    2k#242.,,rtt<<tyasayyasayt<<ttr,,.242#k2                      ",
"                    o2.##2.,<<y,,,tyussatysuyt,,,y<<,.2##.2o                      ",
"                    o#...1,,rtt,r,,tttyyryyyt,,r,ttr,,1...#o                      ",
"                      ...:,ary<<trr,<<<<,<yr,rrt<<yra,:...o                       ",
"                         ,1rt<<trttr<,,:,:,,rttrt<<tr1,                           ",
"                       ,,ryr<,,rttyttr,:::,ryyttr,,<ryr,,                         ",
"                      rayt<,,,,rttyttr,::,rttyttr,,,,<tyasu                       ",
"                     <<<<,,<<,,<<rttut,,<<ryutr<<,,<<,,<<<rtr                     ",
"                    <<<::::,<<<,,<<yaar<<rysyr<,,<<<,:::,,,rt@                    ",
"                   <,,,,,,,:,,<<,,<tystt<tsur<,,<<:@,,,,,,,,r,,,,:@               ",
"                yaaut<,,<<<,:,,<<,,<taat<yat<,,<,:::,,,,<<<,,ruaay,:              ",
"               tssfsuy<,,<t<<r<<<<,:tuut<tut,,::,<r<<<<<,,<<rydfsst,@             ",
"             uyysasfsut<,<rttrrrttr::rrr<rr,::,rrrr<<<r<<,<rusfsasyyu@            ",
"           tuatagassssar<rrrryttrrtr::<,<r::,rttttrr<<rrr<tussssagataut           ",
"          tts<tsgay<yasattyttyytt<<r<::,:,@,ttyyyyyyt<<ryyasay<yagst<stt          ",
"          ,us@t<ttu:@<asayyyyuuuyr,,,,::,@:<ryuuuuuyyryuussa<@:utt<t@su,          ",
"          :ua@,aar<,X@tuautryuuaaaauyr:@@@,ryuaaaauuyrtuasut@X,<raa,@au:#         ",
"          @yt,asjjstXa:usaytuauasssaau<,:,<uaasssauautyasay:aXtsjjsa,ty@,         ",
"          @usut<,:ysXt<aasyryuuasggssar<,<rassggsauuyrysauy<tXsy:,<tusu@<         ",
"         :rqq0q00009*@uuutr<tyuasgggsayy<ryasgggsauyt<rtyrtu@*90000q0qqr:         ",
"        0000<<<<<u<:@otrrr<<rtyuasghgsytrtysghgsauytr<<r<,<to@:<u<<<<<0000        ",
"     000,ysu:ut::r@XX@,:,<rytrtuassgsayr<ryasgssautrtyt<,,:,@XX@r::tu:usy,000     ",
"  9009 @ussa,rsasatXo@@@:<tuayrtyuasautr,<tuasauytryuyr<<,@@@oXtasasr,assu@ 9009  ",
" *&    Xtsu@yutaaau@X@@,<tytust<rtyauyr<,,rtuuytr<tuyt<r,:@@@X@uaaatuy@ustX    &* ",
"=&     Xut+tr,<yytt@;@@@:<r<taar<rtyt<,,::,<tytr<ruyt<r<:@@@@;@ttyy<,rt+tuX     &=",
"X     :,@9r@@.<,rt,@<@@:@,<,<tuay<r<,,,:::<,,<r<yuyt<,<,@@@@@<@,tr,<.@@r9@,:     X",
"X     @X9@:@:X:@-,X:@o@:@@,,<rtasauy<,:::,<tyuuuayt<,,,:@@:,o@:X,-@:X:@:@9X@     X",
"X    :@9:@<,,@@@@-@@@@@::@@,,<ryagsay<,:::,ryaasyr<<,,:@@@#, @@@-@@@@,,<@:9@:    X",
"+9   X0@r@X,@X@@X@@@@@@::::::,<tyssutr<::,:<tusay<<,:::::@   @@@@X@@X@,X@r@0X   9+",
"+&  =+@2k7#o%-::-X@X  @::,:<,:,<ryuu<<,::,,,<uuyr<,:::,:@     X@X-::-%o#7k2@+=  &+",
" &9 &X@ccsek<tyytXX   @@:,rr<,:<<r<,,,,,:,:,<rr<:,<::,,:@      XXtyyt<kescc@X& 9& ",
" +X0X:Xxleakkk74<X     @::,,r<,,,<,::rt<:,,:,<<,<r::,:#@        X<47kkkaelxX:X0X+ ",
"  +X+@4lkqs3oo$4,X       @:,:<r<,::,<rtr:,<,:,,,:::,:@          X,4$oo3sqkl4@+X+  ",
"   X+X@X@XX<tXXX@@        #:,<yt<,<<ryu,:,<<,:,<<<<:@           @@XXXt<XX@X@X+X   ",
"   +Xr<@,<,t:XXXX          @@<,::@,<tuat,<ttr::rr<,:             XXXX:t,<,@<rX+   ",
"   XX<Xtatst<XXX           @or<,,:<<ryt<:,rr<,,<<,@@              XXX<tstatX<XX   ",
"   Xo:X,tt,@r,XX           ++,<<,,,,<yt,:,<rtyt<,,X<              XX,r@,tt,X:oX   ",
"   X@@@@@@@@X,@X          +*+<,,:<,,rrr<<,r,<,:,,+&,              X@,X@@@@@@@@X   ",
"   X@XXo@@oXX@@X          ++X@,,:@,<rrtur,u<::,,@+&,r             X@@XXo@@oXX@X   ",
"   X@Xo@@oXXXX@X          t+o@@:r<:<tttuu,,ut:,,<@@+r             X@XXXXo@@oX@X   ",
"   X@XXoooXXX@XX          r:::@:<<rtttyau<,trrr<,o@Xr:            XX@XXXoooXX@X   ",
"   X@XXXXXXX@@X           ,aart,r<<rtyasu<,rttt,::@@,::            X@@XXXXXXX@X   ",
"   @XXXXXXXX@@X          ,,<t<,<:,@:r<<,<t<y,@XXX:t,@X@,           X@@XXXXXXXX@   ",
"    X@XXXXX@XX@         ,yttyyaat<<,X-XX:,:XX@:<<t,r<@<u<          @XX@XXXXX@X    ",
"    X@@@XXX@XX         y:;utyussssssaau@X@,X@tuyyuuuyuaar           XX@XXX@@@X    ",
"    :X@@@X@@X         <rro,yyyasssssauur:XX:tyassssaayuut            X@@X@@@X:    ",
"     X@X@XX@@         ,ty:@rtryuassaauuy<@:<tyuassaauttt<,           @@XX@X@X     ",
"     X:XX@XX@        yttyr,,,rrttuuuuytt:@::tttyaaaur,,,,,,          @XX@XX:X     ",
"     @@@X@XX        rrattt<<,,,<rtttrr<<@@@:<t<<tttr::@@:,t           XX@X@@@     ",
"     X@XXXX@        r<uttttr,;::,,,,,,::@X@@@@,,,,:::@@::,y:          @XXXX@X     ",
"     X@XXXX@       rr,yttttr<::-@@@@:::@XX@@@@@:@@@@@-:,,,tr          @XXXX@X     ",
"     XXXXX@X@      r,,tttyutr,:@@@@@@@@Xoo@XXXX@@@@:::,,<<rt         @X@XXXXX     ",
"     @XXXX :-X     ,,,tttuauyr:-@@@@@+@@@@@oXoXXo@,,,,,,<rryr       X-: XXXX@     ",
"     @X@@X         ,,,ttyuaay<:::::@@@,   @@ooo@@:,<<<,,,rrry           X@@X@     ",
"      X@XXXX:     <,,<ttyaaat,::,:@@:,     @@o@@@;,<tr<,,rr<a        :XXXX@X      ",
"      @XXXXX@     <<,<ytyaat,:@@@@@:,      @@@::,<>rtrr,,,,,y        @XXXXX@      ",
"       @XXX@X     <<,ryyuaar::@@@@:,        @,<:@,<rrrr<,,,:t<       X@XXX@       ",
"                  <r,<rtuyt,:@@@::,         @:<::,,rtrr<,,,:<r                    ",
"                  tt,,<ttr<,:@@@:,           @:,:,,rttr<,,,:,t                    ",
"                  uy,,rtutt,:@@@,            @@:,,,<rtr<,,::@t                    ",
"                  pt,,<tyyt,:@@:r,            @@::,<rtrr,,:@:t                    ",
"                  r<:@<rt<,,:::@,,,           @@@::,<rtr<,:@,r                    ",
"                  r,::::::,r,,,:,,,@           @@@@:<rt,:::::<                    ",
"                  r,:::@,<::,,r,r,@::>          :@@@::::@@:::,                    ",
"                  r,,,1rr@:,:@:@#@<:,:r<         @@@@@@@@@::@:                    ",
"                  t,,1rr::,:@@@@@@@:@,y@         @::,,,@,r@::@                    ",
"                  r,r,ir@:@@@@@@,:@@@,r,@        @,<rtr,:,,@:@                    ",
"                  <<,ri:@@@:@:#@:,r:@a:yr       <<yasur::::t@:                    ",
"                  ,,,i::@:,@:@@:@<ur:s,yr<     <yrrtr<,::@:<r@                    ",
"                  :::p,@:r:@,@@,@@<a,:h<       :,rt,,::::@::r<                    ",
"                  @@@rr:y,:u%%%<:@1dr%<at     ,,r1,,,,:@::@@:                     ",
"                  ,-@,:a,,r22342%r$%%$@      :,,ru,,;:,,,@@@                      ",
"                  :,,:$%$$$%$$%2$%%$%$r     <r:,:<@#@:@:,:,                       ",
"                   @:$%2O#$$$%%4$2$$2%r<    @y,@:@@@@@@@:,:                       ",
"                    u$2##$%%%228$%2$%d      ,r,@@@:,@@@@@@:                       ",
"                    #$2##$%%2228$$2$$,t     y:a@:r,:@#:@:@@                       ",
"                    $92##%%2222c%%%$y      ry,@y$$$$$$$$27:@                      ",
"                    ,9%#$,22223c3%%%       :<h%%%$234klxk73:@                     ",
"                   $0%$$%222248832$#       ta<$$%22$%%362$$2:#                    ",
"                  u:=$%%222237v4%%$@       $$$$%$22$$$$$%2O%r:                    ",
"                  ,$@334222246n4%$$,        $$%2$$$$$$$%%6#O2u$                   ",
"                  $$4263%23ifNn4%$%         r$%%$2$$%$$#$#O2$%u                   ",
"                  $333$6236666664            $$$$2$$%%w$w$#$%%%u                  ",
"                 .$$r8xx8fVCZB6$$             $$$%%$2%w$w$#$%%%:                  ",
"                464xnvFF FSmck423              $%%%222e%e$##$%%2                  ",
"                4ckccncnSmnk64226$              #$23432w%w$#3%%%a                 ",
"                4ckccncnSmnx642243$             d$%$k83q2q%$3%%%1u                ",
"                $lklbnbMSAnxk7642$              , $$v8kq%q2%n32$$                 ",
"                 ####227k742222##                ur%n680%034n424$u                ",
"                                                   4nNfp62%3666343                ",
"                                                   $$6BZCVf8xx8r$$$               ",
"                                                   %24kcmSF FFvnx46               ",
"                                                  $62246knmSncncckc%              ",
"                                                  642246xnmSncncckc4              ",
"                                                  $$467kxnASMbnblkl4              ",
"                                                   $%222247k722###%#              ",
"                                                     %234kzk8643                  "
};
