/* XPM */
static char *_74f46322ded44008083ef26570f58bfRjfGoU9EGn02ABPF[] = {
/* columns rows colors chars-per-pixel */
"79 102 88 1 ",
"  c None",
". c #020202",
"X c #070707",
"o c #0B0B0B",
"O c gray6",
"+ c #170000",
"@ c #1B0F08",
"# c #101010",
"$ c #181818",
"% c gray12",
"& c #270000",
"* c #2F0000",
"= c #370000",
"- c #251404",
"; c #2F1804",
": c #26140B",
"> c #391C06",
", c #311B0E",
"< c #3D1F0E",
"1 c #1F2B1F",
"2 c #3E280B",
"3 c gray14",
"4 c #2C2C2C",
"5 c #2B372B",
"6 c #2F3F2F",
"7 c gray19",
"8 c #323232",
"9 c #373737",
"0 c #3B3C3B",
"q c #3F3F3F",
"w c #430000",
"e c #4F0000",
"r c #5B0000",
"t c #542800",
"y c #412312",
"u c #4A2513",
"i c #532B13",
"p c #572F17",
"a c #4B3210",
"s c #543B17",
"d c #5F331B",
"f c #673B1F",
"g c #3B4B37",
"h c #5F431E",
"j c #674B26",
"k c #734323",
"l c #7B4B27",
"z c #6E532F",
"x c #7B5F37",
"c c #464646",
"v c #454844",
"b c #4E4E4E",
"n c #4E504D",
"m c #565656",
"M c #585D56",
"N c #5D5D5D",
"B c #61645F",
"V c #656565",
"C c #6C6C6C",
"Z c #6D7068",
"A c #747474",
"S c #7C7C7C",
"D c #9B5311",
"F c #83532F",
"G c #8F5B33",
"H c #896B3E",
"J c #97633B",
"K c #96764B",
"L c #AF744A",
"P c #7D8379",
"I c #A38154",
"U c #B49265",
"Y c #C0875B",
"T c #C4A275",
"R c #838383",
"E c #8B8B8B",
"W c #90978B",
"Q c #929292",
"! c #9A9A9A",
"~ c #A2A2A2",
"^ c #A9A9A9",
"/ c #ACB5A6",
"( c #B1B1B1",
") c #B5BDB0",
"_ c gray72",
"` c #E6BEA1",
"' c #C0C0C0",
"] c #C8C8C8",
/* pixels */
"                                  ,,,,  ,,,,:                                  ",
"                 CS^C           ,yuyuy<,<<<uy,,           C^SC                 ",
"                mCEC           yyiuiuuy<yyyipiy,:          CECm                ",
"               0bVc3         ipiiiiiuuyuiiuuuuu<uu         3cVb0               ",
"               $0073cC    cCSmdpuuuiiiipppppyy<<pmSCc    Cc3700$               ",
"               .373$3^CC!N7cmCdpyuuiipppppppuuyupCmc7N!CC^3$373.               ",
"                #$.o#S0NR]C73idiyuiiiiiiiiiiuuyyi<37C]RN0S#o.$#                ",
"                .,:.#c$$$C$$#piuyuuuyyuuuuuuyy<<uu#$$C$$$c#.:,.                ",
"                 .2,0,..$c...du<<<<,,,,,,><<,,,,<i...c$..,0,2.                 ",
"                  .2s2:.$9..,i<,,:::-----;;:::@::,,..9$.:2s2.                  ",
"                   .ygy23,22yy<<::<y739,j,9y,4@<@-y22,32ygy.                   ",
"                    ,y23,2sy#u>:u,0S)E^qTsKqZn,u@@#ys2,32y                     ",
"                      ,yg6,o#.;,f,c4P0W4)9P4R7,d@.#o,6gy,,                     ",
"                        ,,...o:@ycvq73x9C5m4B3wyo:...,                         ",
"                       :@XXXX@,,:3M(%/3S3b4m0V@@<,;X,@#                        ",
"                      ::@@oo@:,,,,,c7`jUvQ$An4:<,iu:@@1@                       ",
"                     @,:X:@@:,,,,<,,,z7H0q9#,,,,y,::@@:,yyyy,<y<,:             ",
"              :,y<<<,,@$oXX,::<::,,,<y,::,,<<,,<,,u:,:,yyy,:,<uuiu,:           ",
"            @uiiiuu<<<,@oX,::::::::;,yu<<<<,,<;;<iy,u,:,yy<yupdfffdu,          ",
"           updffddpiuuy,:@@@@@@:@@:::,,,,,;:::,<y@,@,iuuuuiippdfddfiu:         ",
"          uiddppiiiipdpy,:::@@@@:@@@@::::::-@::,<:@:::yupddddpuy,<yiu:         ",
"         :yiy<:,<uidddpy,:,<::@:::@@@@@@@@@@@@:,,::,yuiyyuppddp<:-@:<@:        ",
"        :@<:@@:,yupppuy,,,,,,,,,,:@@@@@@o@@@@:,<,,,,,,,::,,<yyuy,<@X@@@        ",
"        @@@X@,,yuuu<,,,<yuuuiippuy<y,:@@@@@<<<<<yyuuuy<,::@::;,<yu<@XX@        ",
"        @XX@<yyy<,:@@@:<updffffffdppy,@@@@,yuuipddppiuy<<,:@@@@@;<<,@X<        ",
"        <X@,<<,@@ooo@@,<updddddfdfffdy,:::<uupddddddpiuyy<,@@@oXX@:@@:<        ",
"       @<:@@:@XXXXXXX@,yuippppipiuupii<:,,updddddpiiuuiuy<,@@@oX@X@X<pp<       ",
"       <pp<X@X@XoXXXX@:,yuuuuuuuuuyyyy,:<<udpppiiuu<<yyyyy,@@oo@:@Xypdfp,==    ",
"    ==,pfdpyo@:@ooooX@,pduuuuiipippiuu,:y,iiiiiuuuuy<uuy<<:@@@@@@Xyfpdfp<:&*e  ",
"  e*&:<pfdpfyX@@o@@oo@:,uppiiiipdffdpi<:y<uddddppiuiiiiuuy:@@:@oX@dpuipi<@  &e ",
" e&  @<ipiupd@XX@::@@@@@@<piyyyuiipppiy,uuypipiuuuuuupiyy,o@-y::@@iuuyy,:X&* *r",
"r* *&X:,yyuui@@@:y<-@@@@@:ypuuuuuuuuuu<<yy<<<uuuiiippy::::@@,y<:@:y,-:,@XX &**e",
"e**& XX@,:-,y:@:<u<@@::::::,yiuuuuuyy<,,,,,,<<yuuuy<:@@o@@@@@yu,:::@XXXXXX  &=e",
"e=&  XXXXXX@:::,uu:-:,:,:@@@:::,,<<<,::::@@@,,,<,:::@@@@@@@@o@,y,@@XXXXX@X  &we",
"ew&  X@XXXXX@@,y,@o:@:,<<:@@@@:,,,:::@-::::::::::@@@@@@@:@@@@@@@:@X@XXXXXX   =r",
"r=   XXXXXX@X@:@@@@:@:@<i<:@,@@:@::@@@,ypu<;:@@@@:@@:#@::@X,@@X@@@@XXXXXXo*  e=",
"=e  *oXXXXXX@@@@X@ @X,@,fi<@:y@<:@@@:,ufFlfpiy,@y:@,@::,@@@,@ @@X@@XXX@XX%e  e+",
"+e  e%XX@XXX@@X@@    :<@yfi,@:y-<::,;,yikfdiy,@y,:<::,<,:@,@  @X@@:@XX@:X$%e e&",
"&e e%$X:@XX@:@@X@     :y:ify@:,:,,,<,:,<u<,<,,,,::@@,<,:@<:   @X@X:@@@@<X#7*e& ",
" &e*7#X<@@@@:X@X@      #<,up,@,yiuy,@@@@@@@:-@@@@@@@@,::y:     X@X:<::,u,X:@&& ",
" &&@:X,u,::<:X@X        #:,<,:@@@@@@@@:,:::::@@@@@:@::,<#      :XX<fuudd:,i@u& ",
" &u@i,:dduuf<XX:         ##::@,@@@:::,,::@:,:@@@@@@@,::#        @<<ddfdf<yi:u: ",
" :u:iy<fdfdd<<@           ::::y::,<<<<<,,,y<,:@:<y,@::#         @,uifdddyiiyu@ ",
" @uyiiydddfiu,@           <<@@u,:,<yyuuuiippu<:@upy,::           :pufdpuyiduu: ",
" :uudiyupdfup:            uupu,@@,<y<a<,<a<y<,@@,upu,            @u,pduu<udid, ",
" ,didu<uudp,u@            ++X@@@@@@@<@@:@@<@@@@@@@X++            @d:uuuu<idid@ ",
" @didi<uuuu:d@            w-X&&@@@@@@@@@@@@@@@@@&&X-w            @d,,iiuuidu<:7",
"7:<udiuuii,,d@            +&&X&XX++X+X.&.X+X++XX&X&&+            @@d,ydufii<<d4",
"4d<<iifudy,d@@            DX::@@X++X++...++X++X@@::XD             X,y<udfiu@dq3",
"3qd@uifdu<y,X            ,,:,,<,:@@&@+X@X+@&@@:,<,,:,,            @@@yuufiu@7m#",
"#m7@uifuuy@@@           :,@,<yiiuuy<<,,:,,<@yuuiiy<,@,:           @@@@iufpu<,7o",
"o7,<upfui@@@@           ,:@:,<<yiiuy<<<<<<<,<iiy<<,:o@@,           o%9$pfd<du@<",
"<@ud<dfp$9%o           ,o@:@@,::,,,,,,,<,,,,,,,::,<3q3%o,          7%N3yddudd@ ",
" @dduddy3N%7          :,i:@X@::@:,::,,:::,,:@,:@:,<%4#7$@            qoyuddid@ ",
" @didduyoq            ,iuyu@*@@@@:@@@:@:@:@@@:@:,,u@$X,,<<           %#uudfid@ ",
" @difduu#%           ,:pdpu,@+-@:@@@@@@:@@@@o::<uyiu:,up:u            yizjfiu: ",
" :uifjziy            ,,pppiu,@&X-@@o@@@@@@@o@:<ip,,iuuiddi<           ,du-<i<@ ",
" @<i<-ud,           .,yiiiupu,@X++@@@ooooo@@:<uiy:<dippdfpu           uyXXX,iX ",
" Xi,XXXyu           uuuuyyuudu<:@@X@@Xoooo@:<yy<<uppipppdiuy          jX@XXfiX ",
" XifXX@Xj          <<uuyyuuiiiiy,@XX@@oooo@,y::<ippiippppuyu          tyX,fiyX ",
" Xyif,Xyt          ,,yuuuiiiiiuuy,@oo-@ooo@,,::yddpuupd<iy,y<          i<ff:XX ",
" XX:ff<i          ,,,yuippiuuyuyyy,@@@oo@@@::@@<pdpuuiddiu<,<       shffp,@XX@ ",
" @XX@,pffhs       ,,<upddpuuu<,yuy,@@+Xo&@@@::@<udpuyupdpu<,<y      <<,@@XXX@X ",
" X@XXX@@,<<      ,,<yuppppuuuy,,,,:@+++&oX+@@::,ypiuyuippiy<,<      ,,::,<X@X, ",
" ,X@X<,::,,      ,,<uuiiiiuuuuy<<,-@&oX  +X@@@:,<uiuyuuipiu<<,<     uy<uf:X@X, ",
" ,X@X:fu<yu     y,<<yuuyiiyyuiuui<,@@..    @@@:,,<yyyyyupu,:<,,    tsidd:XXX<  ",
"  <XXX:ddist    ,,<yuiyyiuyyuuufd,,:@      @@@@:,<<<<<yyu<@X@,,:    @@@XXX:    ",
"    :XXX@@@     ,,<uuiyyuuyyuudki::@        @@::,,yy<<<<uy:ou,<:               ",
"                ,,,yuy<<uy<<uifd<:@         @$,<:,yuuy<<u<:@,u::               ",
"                ,<<,y<,<y<<<upfu,:#         @::u,:<yyy<yuy:@:u::               ",
"                p<,,<,<,<,,yudp<::          :@:u,:,<<<,yiu:@%u:<               ",
"                y<::,<<<<,<uipu:##          @@@uy@:,,<<<uu:@v%<,               ",
"                ,,::,<<y<,yipp,@@          >@@:<d::,,,<<yu@:c%<:               ",
"                ,,::<yuu,,yip<@@           :@$,:py@:,,<y<yX@c0,:               ",
"                @:@:,uiu,,yi<@::#          @@,<:yd::,,<y,::Xb0q@               ",
"                @:@::ypy,,y<@#$@::         :@<:,:ip::,,<,y:.q7m@               ",
"                @::@@,<<,,:@@@@@@:::      ,,<<y:@:du::,,<:,Xq4,@               ",
"                :$:@@::,:@@#Oo@@@@$@:     #:<u,:@@,i,,::,<<@o@@:               ",
"                 @:@@@@@@,@@oX@:,$%$@:     ,<::,443@@:@:,yyi:,@:               ",
"                 @,,@:,:@@@O##$$%$$$::     <<:uhb9%%3@@@:,<<y,::               ",
"                 @,y<:@@XXo#$..#####y,     ,:@dsqqd73y3##m<<y,@                ",
"                  @@@@3#oo#$X..OO##y:%      ,09cmzdp9q009Cb,<@                 ",
"                    #37%$$%%.+:O%%##:$     u@y399GJKZCAmnA0@                   ",
"                    o743443$+@+$%%%,,      <<y%7yLYWE!]RAS0@                   ",
"                   @%77qf73.+@.3%%,al       u@%31FZSSE_ABb3##                  ",
"                   o7c9Fq7%+:o$%%%%,<#       X347bVVVCRmq09m7                  ",
"                   :0mqVq7O&,O3%yyli#        O4pkIxZbqNmbnvq0                  ",
"                  :,mAmVc7&&<%33p@pd         o3upJmNNCSAASm7$                  ",
"                  @7RQNVk7&O&3%,u@h          .X44uVEEQ_^~Emc7%                 ",
"                  @b'(ZGbq73#q::kp@h          X37fZRE!'^QAbc03                 ",
"                 $yC'_EBNVBmmky,uf ,          oO4jVSR!(~ACcc9$                 ",
"                 o7A_]!SNmbq4uy@ yp           XX$zFSE!~~CN7$O                  ",
"                .3qS_]_(EBc4%,:<@              $X0zmVVmC97OXX                  ",
"               O$#%7NCVBMq3#O@.@                .7qqq04#$#.                    ",
"               3mNVVVVmbcccdu:o.@                                              ",
"               %79cMCSSSCVMkqu:o                                               ",
"               449nVS!~QRSVM03:@                                               ",
"               47qmS~''(!ECm03:@                                               ",
"               47qNS^''_!EZb7%:@                                               ",
"               7qvNS^]'_^RVn7%@.                                               ",
"               #7qmC^]'((Rm03#.                                                ",
"                 #37NVVBNq%#.                                                  "
};
