/* XPM */
static char *a1e18ac6040a41a1e91e3e6d4a949c4cVEvR8Lt84ExF6c24[] = {
/* columns rows colors chars-per-pixel */
"83 106 107 2 ",
"   c None",
".  c #020202",
"X  c #070707",
"o  c #0B0B0B",
"O  c gray6",
"+  c #170000",
"@  c #1B0F08",
"#  c #0B1707",
"$  c #101010",
"%  c #171F17",
"&  c #181818",
"*  c gray12",
"=  c #270000",
"-  c #2F0000",
";  c #370000",
":  c #251404",
">  c #2F1804",
",  c #26140B",
"<  c #391C06",
"1  c #311B0E",
"2  c #3D1F0E",
"3  c #13230B",
"4  c #1F2B1F",
"5  c #3E280B",
"6  c gray14",
"7  c #2C2C2C",
"8  c #2B372B",
"9  c #2F3F2F",
"0  c gray19",
"q  c #323232",
"w  c #373737",
"e  c #3B3C3B",
"r  c #3F3F3F",
"t  c #430000",
"y  c #4F0000",
"u  c #5B0000",
"i  c #670000",
"p  c #730000",
"a  c #442104",
"s  c #4C2403",
"d  c #542800",
"f  c #412312",
"g  c #4A2513",
"h  c #532B13",
"j  c #572F17",
"k  c #4B3210",
"l  c #543B17",
"z  c #5F331B",
"x  c #612F02",
"c  c #723600",
"v  c #7D3F06",
"b  c #673B1F",
"n  c #3B4B37",
"m  c #5F431E",
"M  c #674B26",
"N  c #734323",
"B  c #7B4B27",
"V  c #6E532F",
"C  c #7B5F37",
"Z  c #464646",
"A  c #454844",
"S  c #4E4E4E",
"D  c #4E504D",
"F  c #565656",
"G  c #585D56",
"H  c #5D5D5D",
"J  c #61645F",
"K  c #585874",
"L  c #656565",
"P  c #6C6C6C",
"I  c #6D7068",
"U  c #747474",
"Y  c #7C7C7C",
"T  c #83532F",
"R  c #8F5B33",
"E  c #896B3E",
"W  c #96764B",
"Q  c #AF744A",
"!  c #FF7B7B",
"~  c #7D8379",
"^  c #A38154",
"/  c #B49265",
"(  c #BC9A6D",
")  c #C0875B",
"_  c #D89F73",
"`  c #C4A275",
"'  c #DCA77E",
"]  c #6C6C88",
"[  c #838383",
"{  c #8B8B8B",
"}  c #90978B",
"|  c #929292",
" . c #9A9A9A",
".. c #A2A2A2",
"X. c #A9A9A9",
"o. c #ACB5A6",
"O. c #B1B1B1",
"+. c #B5BDB0",
"@. c gray72",
"#. c #E3B795",
"$. c #E6BEA1",
"%. c #FFB3B3",
"&. c #BDC4B9",
"*. c #C0C0C0",
"=. c #C8C8C8",
"-. c #D2D2D2",
";. c gray87",
/* pixels */
"                                                                  , 1 1 1 1     1 1 1 1                                                                               ",
"                                P Y X.P                       1 1 f g 2 2 2 1 2 f g f g f 1                       P X.Y P                                             ",
"                              F P { P                     , 1 f h j h f f f 2 f g g h g h f f                       P { P F                                           ",
"                            e S L Z 6                   g g 2 g g g g g h h g f g g h h h h h j h                   6 Z L S e                                         ",
"                            & e e 0 6 Z P         Z P Y F j 2 2 f f j j j j j h h h h g g g j z F Y P Z         P Z 6 0 e e &                                         ",
"                            . 6 0 6 & 6 X.P P  .H 0 Z F P j g f g g j j j j j j j h h g g f j z P F Z 0 H  .P P X.6 & 6 0 6 .                                         ",
"                              $ & . o $ Y e H [ =.P 0 6 2 h f f g g h h h h h h h h h h g f h z h 6 0 P =.[ H e Y $ o . & $                                           ",
"                              . 1 , . $ Z & & & P & & $ g g 2 2 f f g g g g g g f f g g g f g h j $ & & P & & & Z $ . , 1 .                                           ",
"                                . 5 1 e 1 . . & Z . . . h 2 1 1 1 1 2 2 < 1 1 1 1 1 1 2 2 2 2 g z . . . Z & . . 1 e 1 5 .                                             ",
"                                  . 5 l 5 , . & w . . 1 1 , , @ , , , > > : : : : : , , , 1 1 2 h 1 . . w & . , 5 l 5 .                                               ",
"                                    . f n f 5 6 1 5 5 f : @ 2 @ 7 1 f w 1 M 1 w 6 0 f 2 , , 2 2 f f 5 5 1 6 5 f n f .                                                 ",
"                                        f 5 6 1 5 l f $ @ @ g 1 D I r W l ` r X.{ +.Y e 1 g , < g $ f l 5 1 6 5 f 1                                                   ",
"                                        1 1 f n 9 1 o $ . @ z 1 0 [ 7 ~ w +.7 } e ~ 7 Z 1 b 1 > . $ o 1 9 n f 1 ,                                                     ",
"                                                1 . . . , o f t 6 J 7 F 8 P w C 6 0 r A Z f @ , o . . . 1 1                                                           ",
"                                                  1 X > > 2 @ @ L e F 7 S 6 Y 6 o.* O.G 6 , 1 1 @ X X X X @ ,                                                         ",
"                                                o o , g j 1 2 , 7 D U & | A / M $.0 Z 1 1 1 1 1 , @ o X @ @ , , @                                                     ",
"                                2 f 2 f f   1 , @ @ 1 : , f 1 1 1 1 $ w r e E 0 V 1 1 1 2 1 1 1 1 , @ @ @ @ @ @ @ ,                                                   ",
"                            f g h 2 , @ @ @ $ @ @ @ @ z : : 2 1 1 2 2 1 1 , , 1 f 2 1 1 1 > , f , , , , @ @ @ @ , @ , , > 1 2 2 2 f 1 ,                               ",
"                          z z b z h f 1 1 @ @ , , @ , f j : , , 2 1 2 2 2 2 2 g f 1 > , , , , 2 1 1 1 1 1 1 , 1 2 1 1 1 2 2 2 2 f g g f 1 ,                           ",
"                          z b b M b b j g g 1 , @ @ 1 g g 1 1 1 , , , 1 1 1 1 1 1 1 , , , , 1 1 g 2 2 2 2 f g g f f f 2 2 2 f 2 2 h b b j f ,                         ",
"                        g h z b b M z j g f f 2 f j z j h 1 , , @ @ : , , > > , , , , @ @ 2 1 f z j h h g f g j g f g h j j j z z b M M b z g f                       ",
"                      f j g g j j z j g 2 1 1 f 1 b h z j f f f @ @ o @ @ @ @ @ @ @ @ @ 1 f f g b b z j h g f j g g g j z z b b b b z g g z h g f                     ",
"                  y t f g @ , 1 f g g f 2 f f h g z h b b z j g < @ : g @ o X X @ @ 1 f 2 g b h z z z j g g f g f 2 2 f h j z b b b b z g f g g f                     ",
"              t ; = g , 1 X @ : 1 f g f 2 f g g z z b b N N M M V M V z g @ X @ @ 2 j M m b b b b z z z h g g f 2 1 1 1 2 f g j j z z j h f 1 2 1 ,                   ",
"          y t = = g b o : o @ @ , 1 2 f g g f g g z z z z b b N N N N N z 2 , g h b N b b b b b b b b z j h f f 2 1 1 , 1 1 1 2 f g h h h f 2 1 1 :                   ",
"        y - =     2 g : X @ @ , 1 2 > , , , , , , 1 f h z z z b b N N N N N j 2 @ g h b N N b b b z z z j h g 2 1 , 1 , , > 1 1 1 1 2 f g g f 2 @ @                   ",
"      y t =       @ g , o @ @ @ , 1 1 2 1 1 , , , 2 f g h j z z b b b b b b b z g z g z z z z z z z z z j j g f 2 1 @ , , , , , 1 , , 1 1 1 1 1 @ X 1                 ",
"    y t =         X g 1 X X @ @ : , 1 2 1 , @ @ , 1 2 2 2 2 g g h z z b b b z f z g 1 g g g f g f g g g g g g f f 2 2 > , , , , 1 1 1 , @ @ , 2 j . 2 1               ",
"    y =         2 1 g f @ X @ @ @ @ , , , , , , 1 1 2 2 2 2 f g g h g g h j j 1 z g 1 f g f g g g f f f g g g f f 2 1 1 @ @ @ @ 1 g f 1 , g z N N g , 1               ",
"    y =         1 z N j 2 @ @ o o @ @ @ , , @ , 1 1 2 2 f g g g g g h h h j h 1 z g 2 g g g h h h g g g g g g f f 1 1 @ @ 1 2 1 @ , , 1 z z z M M z j @ ;             ",
"    y         @ 2 z z j g @ X X X o @ @ @ @ @ @ , 1 < 2 f g g g h h j j z j g 1 b h f h h h j j z j j h g g g f 2 1 @ @ @ 1 h z g 1 1 g z z b M V z g 1 + - -         ",
"    u       : X f g g 2 , @ X X X o o @ o o o @ @ @ , 1 2 f f g g g g h h g f g b h f g h j z z z z j j h g f 2 1 , @ @ , @ j b z h g f g h N b z g h @ g   + t       ",
"    u y     : X @ 1 , @ @ @ X X X X o o o o X o @ @ @ : , > 1 2 2 1 1 1 1 2 2 h z h 2 1 2 g h h h h g g f 2 1 , , , @ @ , 1 h z z j g g g f 1 f 2 f < X       + t     ",
"    y u     X X X X X @ @ X X X X X o o X X X o @ @ @ @ @ @ , , , : @ @ @ @ 2 g j h , @ , 1 1 1 1 1 1 , , , @ , , 1 @ @ @ 1 g j j h h g 1 g 1 1 # X O f ,       t -   ",
"    = u     X @ , @ X X X X X X X X o @ X X X X X o @ @ , , , 1 , @ @ , @ , 2 f g f f 1 @ , , , , , , @ @ @ , , 1 2 @ @ @ , 2 f g h g f 2 1 @ , X , h b 2 -     + t   ",
"      u   t @ X @ @ @ X X X X X X X @ X @         X @ , @ @ , 1 1 , , , @ @ , 1 @ , : @ , , , , , , , @ @ @ @ , 1 2 1 , : @ , , 1 2 g h 2 f 2 1 1 2 $ % ,   -     y = ",
"      u y 0 r o @ X X X X X X X @ X @ X .           o @ @ @ @ @ @ @ @ @ @ , f g 1 f 1 , @ @ @ @ @ @ @ @ 1 @ , 1 1 1 , o o @ @ @ @ , f g @ 1 1 1 f o & 7 <     -   u = ",
"      i , H 0 & X X X X X X X @ @ @ @               : @ @ 1 @ @ @ @ @ @ , 2 j z j b g 2 1 , @ @ @ , , 1 , @ , 1 , @ @ @ X X @ @ @ , 1 2 , @ , < g X 6 0 6     - = u + ",
"      i 0 Z * & X X X X X X @ , X                     > 1 f 1 , . . , 2 g j z b N B b j g 2 , , f 1 @ 2 1 @ 1 , @ X @ @ @     @ @ + @ 2 1 @ , # j 1 s 0 0 2     = i   ",
"      p * 6 $ $ X X X X X X , @                         , 1 g f 2 1 , , , > 1 2 2 2 f f 2 2 1 2 1 @ f 1 @ 1 , , @ @ 1 @           . # 2 g , 2 2 z @ j R O o     p .   ",
"      p 1 & o o X X X X X @ @ X                         @ 1 2 1 , @ @ @ , @ @ @ @ @ @ @ @ , , , , 1 1 @ , , , @ , 1 ,             . @ 2 h h f g j g , X , .   p -     ",
"      g 2 , X X X X X X X @ @ X                           @ , @ @ @ @ @ @ @ , , @ @ @ @ , , , @ @ @ @ @ @ @ @ , 1 ,               X 1 1 N z z j h g , h f 3 p -       ",
"    2 j 1 , @ X X @ @ @ X @ X                             @ 1 @ , @ @ @ , , 1 2 1 , 1 2 f f 2 1 , @ @ @ , @ @ @ @                 X N 2 z b b z h g g z h M u #       ",
"    f b 2 , @ @ @ , 1 , X @ X                             , 2 , 2 , @ , 1 f g h 2 , f h z z h f 2 1 @ @ 2 , @ @                   @ g g z M M z h z h z j z h :       ",
"  , 1 b 2 , @ @ @ , , , @ @ X                           , 1 g j g 1 @ @ 1 2 f 2 k 2 1 1 1 1 1 1 1 , 1 1 , @ ,                     # g g z M M z h z h z j z h :       ",
"  , @ j 1 , @ @ @ , , @ @ @ X                           @ + + X @ @ @ @ @ @ @ 2 @ @ , , @ , , @ 1 , @ , @ @ ,                     1 z f z b M z g z b b z g 1         ",
"  , @ 2 1 1 , @ , , @ @ @ X                             @ t : X = = @ @ @ @ @ @ @ @ @ : @ , , , @ @ @ @ @ ; @ @                   f j f h z b z g z M b N b ,         ",
"  o Z , , f 2 , 1 , @ @ @ X                             @ + = = X = X X + + X + X . = + ; . . = + + + X = X + @                   2 1 > g z z z h z b z 1 h ,         ",
"  & S , , f g 1 2 @ @ , X                               @ @ X , , @ @ X + + X + + . . . . . + . = = @ @ @ @ @ @                   1 & r f j z z z z z b e & :         ",
"  6 F @ 1 f f 2 , @ @ @ X                               1 1 , 1 1 2 1 , @ @ = @ + X @ - = @ @ o o @ @ , 1 1 , 0                     6 S a h z b z g z > F 7 @         ",
"  7 Z X f 2 f 2 , & 6 X                               , 1 @ 1 2 f h h g g f 2 2 1 1 , , : , @ @ , , 1 1 1 1 1 @ 0                   $ c f j g b z h f f z 7 @         ",
"  * 7 j g f g 2 2 r ,                             , 1 , @ @ , 1 2 2 f h h g f 2 2 2 2 2 2 2 1 2 1 1 1 , , , , , 1                   @ o 2 z h b z z f 2 j *           ",
"  g @ b g g j g r g                             , 1 2 f f 2 1 2 1 , , 1 1 1 1 1 1 1 2 1 1 1 1 1 , , 1 , , , , 1 1 ,                 X v M V M V b z h 2 O &           ",
"  2 , z z g 2 * F ,                           , 1 1 f f g g f 2 1 , @ , 1 , , 1 1 , , , , @ @ @ @ , , , , , 1 f f 1                 1 2 @ 2 b N V z h 1 :             ",
"  1 1 z b g X 1 *                             1 1 2 , 1 , 1 g g 1 1 , @ , @ @ @ , @ , @ @ @ @ @ @ , @ , 1 , 1 @ 1 1 ,                 1 1 @ X N f g z 1 X             ",
"  , g z b , @ 2                             1 1 2 j j f 1 1 g h f g 2 , @ @ @ @ @ @ , @ @ @ @ o @ , @ , 1 @ O o , 1 ,                   @ X X , h @ b ,               ",
"  X z z b g b X                           1 1 1 2 z z g f f z , f j h 1 , @ o @ @ @ @ @ o @ o o @ , @ 1 @ * 6 r 6 1 1 ,                 g . 1 2 z @ j ,               ",
"  X h b z z f X                           2 1 1 g b z z j h b 1 g h h g 2 @ @ @ o o o o o o @ @ @ @ , , & 0 $ 6 1 1 , , ,               g T z 2 b @ 1 @               ",
"f X 2 b N N @ g                       2 f 1 1 f j b z j j h b b h f f g h f , @ X o o o o @ @ X @ , 2 f f g @ , 1 2 , 1 ,           l m B N h 2 # @ , @               ",
"2 @ X 2 N N 1                       2 g 1 1 2 h b b j g h j z z f 2 1 @ @ g 2 @ X o o @ @ @ X o , f g g 2 f h z f , , $ f ,           , f . . X o g ,                 ",
", 1 X X 2 z h                       f f 1 1 g z N b h g h j j j z j @ @ , g f @ o o o @ : X o , 2 g g f 2 2 f 1 , @ @ . 2 ,               a X . z B .                 ",
", 2 z X X 2 b                     2 g 2 1 2 j N N j g g g j j j z j 2 g 1 f 1 , @ @ o X + @ , 1 g h g 2 2 1 , @ @ @ $ . 1 ,             j X X b g o @                 ",
"2 X z g X X 1 2                   f h 1 1 g b N b h g f g j h h h h g , 1 , 1 @ X X @ @ @ @ , 2 j j h 2 1 1 1 1 1 @ . . & 2 ,     s h f x x z 1 . X                   ",
", X 2 b @ X , 2 @                 h g 1 2 j b N z g f f h h g g f f o f 1 1 @ . .   o @ @ @ 1 f g k g 2 , , 1 f g , @ . . 1 ,   @ : @ X X @ . X X @                   ",
"  X X b b j f @ f                 j 2 1 f z b b j g g h j h h g 2 1 , 1 f , . . .     o o , 1 g f f f 2 1 1 2 j h 1 @ $ , & 2   a d h 1 @ @ @ @ @                     ",
"  g X @ 1 z j 2 2                 h 2 1 g z b j g g h z j j j f 1 1 1 , 1 . .         . X , 1 1 2 g g f 2 1 1 g g 1 @ @ $ , ,     # @ @ @ @ @                         ",
"    , X X @ f , g                 g 1 1 g z z h g h z j j b j 2 , 1 @ o                 + , @ 2 1 f h k f f 1 f 2 , @ @ @ $ $                                         ",
"      , X @ 2 1 f                 f 1 1 g j j g g j j j z z f 1 , ,                       1 , 1 1 1 h h f f 1 2 2 , @ @ @ @ $ $                                       ",
"                                  2 , 1 f j h g g j h j j f > : ,                           1 , 1 , g j g f , 1 2 1 , , @ @ @ @                                       ",
"                                  2 , 1 2 g g f g g g h f , , > @                           2 , f 1 1 j j f , , 2 2 2 1 , @ @ @                                       ",
"                                  1 , , 1 2 f g j g f 2 , , , @                             , 1 2 f 1 f j 2 , , 2 g f 1 , @ @ @ @                                     ",
"                                  1 1 , 1 2 f h h f < , @ $ @                                 , 1 g f 1 g 2 , : 2 h f 1 , @ @ @ @                                     ",
"                                  1 1 f g g g f 2 , , 1 2 1 , @                                 , g h f 1 f , , f h g 1 @ X @ @ @                                     ",
"                                  $ , f g g f f 2 , @ , f h f 1 1                               @ 1 h g 1 2 1 , 2 j g 2 , , g 1 @                                     ",
"                                    @ @ , @ , 2 g 1 , @ , f h f 1                             , @ 1 2 g 1 , 2 , , f g 1 : , , g                                       ",
"                                      @ @ , 1 2 f h 2 , @ , f g ,                           , @ @ $ , 2 f 1 1 1 , 1 2 1 @ @ 6 g                                       ",
"                                        @ @ @ , 1 2 h 2 , @ , 1 @ @                       , , , @ @ @ , 1 f 1 1 , , 1 , @ o S * ,                                     ",
"                                          @ @ @ , 2 f 2 1 , @ , 1 @                         , @ @ @ @ @ @ & @ @ , , , , @ . 7 0 ,                                     ",
"                                              @ @ , 2 f 2 , 6 @ @ @ @                   , @ 1 f @ , @ $ , * @ @ @ 1 , , @ @ * 7 @                                     ",
"                                              $ @ * 1 2 2 7 Z , @ @ $ 1                 @ , g 1 @ @ , f 6 0 1 , , @ 1 , , @ & *                                       ",
"                                            $ , e Z w f j D r 6 6 , @ 1 1               , f 1 , @ , f j j j 1 , , , @ $ 1 2 1 @                                       ",
"                                            , 0 J L S 0 0 w 6 6 6 * $ @ 1               2 1 , 1 , 1 g z m Z f , 1 1 * , @ @ @                                         ",
"                                          , 1 J [ J r 6 6 * * * * & & & @ 2               , , , 1 f b M Z Z g t t g e 6                                               ",
"                                          * e Y P r 7 6 6 & & $ & & & & 2 1             g z 2 1 1 b b V A Z z f 2 w J F                                               ",
"                                          . H [ F w 6 * & . . $ $ $ $ $ @ ,                 $ , 1 b g M Z D D D D F P U D                                             ",
"                                        . 0 Y L Z 7 6 & . . . O O $ $ f 1 @                   , , @ z l Z G Q / | ) G P | L                                           ",
"                                      @ 7 I Y H r 7 * . = 2 O * * $ $ , h f               , , @ 1 e w Z L ^ ! _ #.%.&.O...  F                                         ",
"                                      O J | Y S w 6 & = 2 = & * * * 1 1 h f 2                 g @ f 6 e V ) ) ( ..O.*.{ Y O.J                                         ",
"                                    , 0 | | I N 0 6 . = 2 . 6 * * 1 k B 2                     2   f * A g Q ) } |  .-.{ [ [ r @                                       ",
"                                    @ H X.H R r 0 * = 2 O & * * * * 1 2 z g                     g @ * w 4 T I Y Y { @.U J S 6 $ $                                     ",
"                                  z f Y { S L r 0 O = 2 O 6 * f f B h                             X 6 7 0 S L L L P [ L F Z w 0 6                                     ",
"                                j 1 z { { F L Z 0 = = 2 * 6 6 j @ j z                           , O 7 j N ^ ^ U J H | Y P L H F 0                                     ",
"                                  1 F O.| H L N 0 = O = 6 * 1 g @ m                               o 6 g z ! ' X. ...-...{ U J F w                                     ",
"                                j 1 Y -.O.I R S r 0 6 $ r , , N j @ m                             . X @ . B U [ { | O.Y Y U F Z r 6                                   ",
"                                * V { *.@.{ J H L J F F N f 1 g b   1                           . . X @ X N I [ { | O.Y Y U S Z r 6                                   ",
"                              * O F { @.=. .Y H F S r 7 g f @   f j                                 o O o z L Y [  .O.{ U P Z Z w &                                   ",
"                            6 . 7 S [ @.=.@.O.{ J Z 7 * 1 , 2 @                                     X X $ m T Y {  ...[ P H 0 & O                                     ",
"                          6 O & $ * 0 J Y P P L S 7 $ O @ . @                                       . * X e V F L L F S w 0 O X X                                     ",
"                          r 7 J P [ { |  .[ [ Y P ] R N 2 O . @                                         . 0 r r r e 7   & $ .                                         ",
"                          D 0 D J [ X.*.;.;.=.@.X.| Q K N 2 O                                                                                                         ",
"                          [ A A H I { X.*.*.O. .| Y L Z 7 , @                                                                                                         ",
"                          H 0 e S H [ X.*.*.O. .{ P F e 6 , @                                                                                                         ",
"                          $ 7 0 r H Y X.*.*.@. .{ I S 0 * , @                                                                                                         ",
"                            0 r A H Y X.=.*.@.X.[ L D 0 * @ .                                                                                                         ",
"                            $ 0 r F P X.=.*.O.O.[ F e 6 $ .                                                                                                           ",
"                                $ 6 0 H L L J H r * $ .                                                                                                               "
};
