/* XPM */
static char *_458fd7dd1a8446bbad1f1a2993d2cca[] = {
/* columns rows colors chars-per-pixel */
"82 104 64 1 ",
"  c None",
". c #020202",
"X c #070707",
"o c #0B0B0B",
"O c gray6",
"+ c #170000",
"@ c #1B0F08",
"# c #101010",
"$ c #181818",
"% c gray12",
"& c #270000",
"* c #2F0000",
"= c #370000",
"- c #251404",
"; c #2F1804",
": c #26140B",
"> c #391C06",
", c #311B0E",
"< c #3D1F0E",
"1 c #3E280B",
"2 c gray14",
"3 c #2C2C2C",
"4 c gray19",
"5 c #323232",
"6 c #373737",
"7 c #3B3C3B",
"8 c #3F3F3F",
"9 c #430000",
"0 c #4F0000",
"q c #5B0000",
"w c #670000",
"e c #730000",
"r c #412312",
"t c #4A2513",
"y c #532B13",
"u c #572F17",
"i c #4B3210",
"p c #543B17",
"a c #5F331B",
"s c #673B1F",
"d c #5F431E",
"f c #674B26",
"g c #734323",
"h c #7B4B27",
"j c #6E532F",
"k c #464646",
"l c #4E4E4E",
"z c #4E504D",
"x c #565656",
"c c #5D5D5D",
"v c #61645F",
"b c #656565",
"n c #6C6C6C",
"m c #747474",
"M c #7C7C7C",
"N c #83532F",
"B c #8F5B33",
"V c #A06C40",
"C c #CC8F5D",
"Z c #DCA77E",
"A c #838383",
"S c #929292",
"D c #A2A2A2",
"F c #A9A9A9",
/* pixels */
"                                     ,,:<<,<:,,                                   ",
"                               k2222<,:,,,,,,:,<2222k                             ",
"                             2#n7:::,,,::::::,,,:::7n#2                           ",
"                           k24#7:<<<<<<,,:,,,<<<<<<:7#42k                         ",
"                        74k#4k#<<<rrtr<<<:<<<<rtrr<<<#k4#k47                      ",
"                       k4kD7n7,<<rrtttttr,<rtttttrr<<,7n7Dk4k                     ",
"                      2nk2x#2$,<<tt<ttyuurruuytt<tt<<,$2#x2kn2                    ",
"                      2k#242.,,rtt<<tyasayyasayt<<ttr,,.242#k2                    ",
"                      o2.##2.,<<y,,,tyusytassuyt,,,y<<,.2##.2o                    ",
"                      o#...1,,rtt,r,,tyyyryyttt,,r,ttr,,1...#o                    ",
"                       o...:,ary<<trr,ry<,<<<<,rrt<<yra,:...                      ",
"                           ,1rt<<trttr,,:,:,,<rttrt<<tr1,                         ",
"                         ,,ryr<,,rttyyr,:::,rttyttr,,<ryr,,                       ",
"                       usayt<,,,,rttyttr,::,rttyttr,,,,<tyar                      ",
"                     rtr<<<,,<<,,<<rtuyr<<,,tuttr<<,,<<,,<<<<                     ",
"                    @tr,,,:::,<<<,,<rysyr<<raay<<,,<<<,::::<<<                    ",
"               @:,,,,r,,,,,,,,@:<<,,<rust<ttsyt<,,<<,,:,,,,,,,<                   ",
"              :,yaaur,,<<<,,,,:::,<,,<tay<taat<,,<<,,:,<<<,,<tuaay                ",
"             @,tssfdyr<<,,<<<<<r<,::,,tut<tuut:,<<<<r<<t<,,<yusfsst               ",
"            @uyysasfsur<,<<r<<<rrrr,::,rr<rrr::rttrrrttr<,<tusfsasyyu             ",
"           tuatagassssut<rrr<<rrttttr,::r<,<::rtrrttyrrrr<rassssagataut           ",
"          tts<tsgay<yasayyr<<tyyyyyytt,@,:,::<r<<ttyyttyttasay<yagst<stt          ",
"          ,us@t<ttu:@<assuuyryyuuuuuyr<:@,::,,,,ryuuuyyyyasa<@:utt<t@su,          ",
"         #:ua@,aar<,X@tusautryuuaaaauyr,@@@:ryuaaaauuyrtuaut@X,<raa,@au:          ",
"         ,@yt,asjjstXa:yasaytuauasssaau<,:,<uaasssauautyasu:aXtsjjsa,ty@          ",
"         <@usut<,:ysXt<yuasyryuuasggssar<,<rassggsauuyrysaa<tXsy:,<tusu@          ",
"         :rqq0q00009*@utrytr<tyuasgggsayr<yyasgggsauyt<rtuuu@*90000q0qqr:         ",
"        0000<<<<<u<:@ot<,<r<<rtyuasghgsytrtysghgsauytr<<rrrto@:<u<<<<<0000        ",
"     000,ysu:ut::r@XX@,:,,<tytrtuassgsayr<ryasgssautrtyr<,:,@XX@r::tu:usy,000     ",
"  9009 @ussa,rsasatXo@@@,<<ryuyrtyuasaut<,rtuasauytryaut<:@@@oXtasasr,assu@ 9009  ",
" *&    Xtsu@yutaaau@X@@@:,r<tyut<rtyuutr,,<ryuaytr<tsutyt<,@@X@uaaatuy@ustX    &* ",
"=&     Xut+tr,<yytt@;@@@@:<r<tyur<rtyt<,::,,<tytr<raat<r<:@@@;@ttyy<,rt+tuX     &=",
"X     :,@9r@@.<,rt,@<@@@@@,<,<tyuy<r<,,<:::,,,<r<yaut<,<,@:@@<@,tr,<.@@r9@,:     X",
"X     @X9@:@:X:@-,X:@o,:@@:,,,<tyauuuyt<,:::,<yuasatr<,,@@:@o@:X,-@:X:@:@9X@     X",
"X    :@9:@<,,@@@@-@@@ ,#@@@:,,<<rysaayr,:::,<yasgayr<,,@@::@@@@@-@@@@,,<@:9@:    X",
"+9   X0@r@X,@X@@X@@@@   @:::::,<<yasut<:,::<rtussyt<,::::::@@@@@@X@@X@,X@r@0X   9+",
"+&  =+@2k7#o%-::-X@X     @:,:::,<ryuu<,,,::,<<uuyr<,:,<:,::@  X@X-::-%o#7k2@+=  &+",
" &9 &X@ccsek<tyytXX      @:,,::<,:<rr<,:,:,,,,,<r<<:,<rr,:@@   XXtyyt<kescc@X& 9& ",
" +X0X:Xxleakkk74<X        @#:,::r<,<<,:,,:<tr::,<,,,<r,,::@     X<47kkkaelxX:X0X+ ",
"  +X+@4lkqs3oo$4,X          @:,:::,,,:,<,:rtr<,::,<r<:,:@       X,4$oo3sqkl4@+X+  ",
"   X+X@X@XX<tXXX@@           @:<<<<,:,<<,:,uyr<<,<ty<,:#        @@XXXt<XX@X@X+X   ",
"   +Xr<@,<,t:XXXX             :,<rr::rtt<,taut<,@::,<@@          XXXX:t,<,@<rX+   ",
"   XX<Xtatst<XXX              @@,<<,,<rr,:<tyr<<:,,<ro@           XXX<tstatX<XX   ",
"   Xo:X,tt,@r,XX              <X,,<tytr<,:,ty<,,,,<<,++           XX,r@,tt,X:oX   ",
"   X@@@@@@@@X,@X              ,&+,,:,<,r,<<rrr,,<:,,<+*+          X@,X@@@@@@@@X   ",
"   X@XXo@@oXX@@X             r,&+@,,::<u,rutrr<,@:,,@X++          X@@XXo@@oXX@X   ",
"   X@Xo@@oXXXX@X             r+@@<,,:tu,,uuttt<:<r:@@o+t          X@XXXXo@@oX@X   ",
"   X@XXoooXXX@XX            :rX@o,<rrrt,<uaytttr<<:@:::r          XX@XXXoooXX@X   ",
"   X@XXXXXXX@@X            ::,@@::,tttr,<usaytr<<r,traa,           X@@XXXXXXX@X   ",
"   @XXXXXXXX@@X           ,@X@,t:XXX@,y<t<,<<r:@,:<,<t<,,          X@@XXXXXXXX@   ",
"    X@XXXXX@XX@          <u<@<r,t<<:@XX:,:XX-X,<<taayytty,         @XX@XXXXX@X    ",
"    X@@@XXX@XX           raauyuuuyyut@X,@X@uaassssssuytu;:y         XX@XXX@@@X    ",
"    :X@@@X@@X            tuuyaassssayt:XX:ruuasssssayyy,orr<         X@@X@@@X:    ",
"     X@X@XX@@           ,<tttuaassauyt<:@<yuuaassauyrtr@:yt,         @@XX@X@X     ",
"     X:XX@XX@          ,,,,,,ruaaayttt::@:ttyuuuuttrr,,,rytty        @XX@XX:X     ",
"     @@@X@XX           t,:@@::rttt<<t<:@@@<<rrtttr<,,,<<tttarr        XX@X@@@     ",
"     X@XXXX@          :y,::@@:::,,,,@@@@X@::,,,,,,::;,rttttu<r        @XXXX@X     ",
"     X@XXXX@          rt,,,:-@@@@@:@@@@@XX@:::@@@@-::<rtttty,rr       @XXXX@X     ",
"     XXXXX@X@         tr<<,,:::@@@@XXXX@ooX@@@@@@@@:,rtuyttt,,r      @X@XXXXX     ",
"     @XXXX :-X       ryrr<,,,,,,@oXXoXo@@@@@+@@@@@-:ryuauttt,,,     X-: XXXX@     ",
"     @X@@X           yrrr,,,<<<,:@@ooo@@   ,@@@:::::<yaauytt,,,         X@@X@     ",
"      X@XXXX:        a<rr,,<rt<,;@@@o@@     ,:@@:,::,taaaytt<,,<     :XXXX@X      ",
"      @XXXXX@        y,,,,,rrtr><,::@@@      ,:@@@@@:,taayty<,<<     @XXXXX@      ",
"       @XXX@X       <t:,,,<rrrr<,@:<,@        ,:@@@@::raauyyr,<<     X@XXX@       ",
"                    r<:,,,<rrtr,,::<:@         ,::@@@:,tyutr<,r<                  ",
"                    t,:,,,<rttr,,:,:@           ,:@@@:,<rtt<,,tt                  ",
"                    t@::,,<rtr<,,,:@@            ,@@@:,ttutr,,yu                  ",
"                    t:@:,,rrtr<,::@@            ,r:@@:,tyyt<,,tp                  ",
"                    r,@:,<rtr<,::@@@           ,,,@:::,,<tr<@:<r                  ",
"                    <:::::,tr<:@@@@           @,,,:,,,r,::::::,r                  ",
"                    ,:::@@::::@@@:          >::@,r,r,,::<,@:::,r                  ",
"                    :@::@@@@@@@@@         <r:,:<@#@:@:,:@rr1,,,r                  ",
"                    @::@r,@,,,::@         @y,@:@@@@@@@:,::rr1,,t                  ",
"                    @:@,,:,rtr<,@        @,r,@@@:,@@@@@@:@ri,r,r                  ",
"                    :@t::::rusay<<       ry:a@:r,:@#:@:@@@:ir,<<                  ",
"                    @r<:@::,<rtrry<     <ry,s:ru<@:@@:@,:@::i,,,                  ",
"                    <r::@::::,,tr,:       <h:,a<@@,@@,@:r:@,p:::                  ",
"                     :@@::@:,,,,1r,,     ta<%rd1@:<%%%u:,y:rr@@@                  ",
"                      @@@,,,:;,,ur,,:      @$%%$r%24322r,,a:,@-,                  ",
"                       ,:,:@:@#@<:,:r<     r$%$%%$2%$$%$$$%$:,,:                  ",
"                       :,:@@@@@@@:@,y@    <r%2$$2$4%$$#$#O2%$:@                   ",
"                       :@@@@@@,:@@@,r,      d%$2%$8%%w$w$##2$u                    ",
"                       @@:@:#@:,r:@a:y     t,$$2$$82%w$w$##2$#                    ",
"                      @:72$$$$$$$$y@,yr      y$%%%c22e%e$##3$$                    ",
"                     @:37kxlk432$%%%h<:       %%%3c432w%w$#%#$                    ",
"                    #:2$$263%%$22%$$<at       #$238k83q2q%$$%$$                   ",
"                    :r%O2%$$$$$22$%$$$$       @$%%4v8kq%q2%%$@$u                  ",
"                   $u2O#6%%$$$$$$$2%$$        ,$$%4n680%03433@$,                  ",
"                   u2::73%%$$2$$2$%%$r         %$%4nNfp62%3624$$                  ",
"                  u229=k2%%$$%$$2$$$$            4666666326$333$                  ",
"                  :2r9l422%%%$$%%$$$             $$6BZCVf8xx8r$$.                 ",
"                  r:0@x6422%%%2%%%$              324kcmSF FFvnx464                ",
"                 a%,:88k44332232$#              $62246knmSncncckc4                ",
"                u1%$%4v8k43322$%$d             $342246xnmSncncckc4                ",
"                 $$34n7k833272$$ ,              $2467kxnASMbnblkl$                ",
"                u$424nNf64pf62%ru                ##222247k722####                 ",
"                343666666666444                                                   ",
"               $$$r8xx8fVCZB6$$                                                   ",
"               64xnvFF FSmck42%                                                   ",
"              %ckccncnSmnk64226$                                                  ",
"              4ckccncnSmnx642246                                                  ",
"              4lklbnbMSAnxk764$$                                                  ",
"              #%###227k742222%$                                                   ",
"                  3468kzk432%                                                     "
};
