/* XPM */
static char *eff1c2eeccd2484ee220a7c943c27878ZDMHpe49D9Q490yf[] = {
/* columns rows colors chars-per-pixel */
"81 113 91 1 ",
"  c None",
". c #020202",
"X c #070707",
"o c #0B0B0B",
"O c gray6",
"+ c #170000",
"@ c #1B0F08",
"# c #101010",
"$ c #171F17",
"% c #181818",
"& c gray12",
"* c #270000",
"= c #2F0000",
"- c #370000",
"; c #251404",
": c #2F1804",
"> c #26140B",
", c #391C06",
"< c #311B0E",
"1 c #3D1F0E",
"2 c #1B231B",
"3 c #3E280B",
"4 c gray14",
"5 c #2C2C2C",
"6 c #2F3F2F",
"7 c #24243C",
"8 c gray19",
"9 c #323232",
"0 c #373737",
"q c #3B3C3B",
"w c #3F3F3F",
"e c #430000",
"r c #4F0000",
"t c #5B0000",
"y c #670000",
"u c #730000",
"i c #7F0000",
"p c #442104",
"a c #542800",
"s c #412312",
"d c #4A2513",
"f c #532B13",
"g c #572F17",
"h c #4B3210",
"j c #543B17",
"k c #5F331B",
"l c #612F02",
"z c #673B1F",
"x c #5F431E",
"c c #674B26",
"v c #734323",
"b c #7B4B27",
"n c #6E532F",
"m c #7B5F37",
"M c #343450",
"N c #464646",
"B c #454844",
"V c #4E4E4E",
"C c #4E504D",
"Z c #565656",
"A c #585D56",
"S c #5D5D5D",
"D c #61645F",
"F c #585874",
"G c #656565",
"H c #6C6C6C",
"J c #6D7068",
"K c #747474",
"L c #7C7C7C",
"P c #8B0000",
"I c #9B0000",
"U c #B30000",
"Y c #9D3304",
"T c #83532F",
"R c #8F5B33",
"E c #896B3E",
"W c #97633B",
"Q c #AF744A",
"! c #6C6C88",
"~ c #838383",
"^ c #8B8B8B",
"/ c #929292",
"( c #9A9A9A",
") c #A2A2A2",
"_ c #A9A9A9",
"` c #B1B1B1",
"' c gray72",
"] c #D0B085",
"[ c #C0C0C0",
"{ c #C8C8C8",
"} c gray87",
/* pixels */
"L/LHZ             .>>>>>><<>>                                                    ",
"4...8LNZ       >><<1114VVZHs<<>                                                  ",
"   4V#.0NVV   ><1sssg##448NHds<>                                                 ",
"      %.84LNN><1ddddg4NVSV8NSgs<<                                                ",
"        .NqSVNNsddsc448qNLV4N0gs<<                                               ",
"         #.48NVNqq8ZqNVNqqS4Nqkfs<<                                              ",
"          <..%8NSHS{~GNq8%N8.#kgs1<>                                             ",
"          j>>..44q4G4844%o8..>kgds1<>                                            ",
"           j<>>#.#%8%##...4.>.gfss1<>                                            ",
"            cs<3s<#s#33#><#<..ddss11<                                            ",
"            W]C^3j<j<j3s<#%..>111111<>                                           ",
"            V_N)8<>>>#>>>...@><1111<<>>>                                         ",
"            ZZV^Ls<>@@@....@><11s1s<<><<<>>                                      ",
"             S[mZk1@@@@@@@><sfgzzkgfd1<@@>>1<>                                   ",
"            KZS<zkd1<>>>>>@@<sdfgfds<>@@@><@@><1s1<>>                            ",
"            .>dzfggd<>><<<>@@><1s1<>@@@><sds<>@><1ds1<><                         ",
"            szgsdffs<><>>>>>><>>>>>@@@><<dkzkds<1dkcczdkz                        ",
"            <<<sddds<<s1@@>>@>1><@@@@><<sgzccczkggzzcvfdfzzzf                    ",
"            ><s<<sfd11><s>@<@@@s@>@@@<1sdfkccnnvzkdkvvf>d1dgsz                   ",
"             >>>>sff1>>>>d<@s@<@1@@@><sddsdkzvvzzkdsgzd<zz1@Xf@                  ",
"              >>><<11>>>>>s<@<@@@@@><ddgs<<dgkzzkkddddfzngz;@1<                  ",
"                 >><<>>>>@<1<@@@@@><1sfs<@><1sssffdf1fznf11d1ks< e               ",
"                       @@1@<<@@@@><s<1d1>;@X@@@@1dfkkkzzgdkfgkvde                ",
"                       >@>1@>@@@#<1<><<<<>;ooX@@>1kzvnzf1kdzkgnd=                ",
"                       <@#><@@@@@>d<>>>><<>;@@X>dknnnnkd>dfzzzdtX                ",
"                       # @1f>@dkk;1d<>>@><>@@X>fdfs<dkzd<1kznnsue<               ",
"                         <d@>g11<1fss>>><>>@@@dzvnnvg@dz>sdznnyu11               ",
"                        <1d<dffkzf1gs1<>>>>>@@dgznnnvk>fkd>gzvuedX>              ",
"                        <11ssddddf111<<<<<<@@@<dgzzgdfknzd>ddgu1>V>e             ",
"                        @<@<<1111ds<>>>>>@@@@@;<sdf<o1dzkkX<gdyd<SXtX            ",
"                        @<@<<1sffd1<>@@@@@@@@@@@>1dfgzkd<g<>z1e1sS1uX            ",
"                        <<1dddds1<>;@@@>@@@@@@@@@>dzk<XX<<N@1t*@dk@udd           ",
"                       <<<1s11<<>;@@@>>@@@@@@@>>@@<dso1g>nS0Xt>X1zzrz@k          ",
"                       ;>X;<<<>;@@@@>@@@>@@@>>>@@@@@o<znZzSSre<Xszfed@z          ",
"                       @>X@@>@@@@@@<>@@@<>@@@@@@>@@@>cSSSvZ<r>k@sze+z<k          ",
"                        @@@@@@@@@><>@@@<>@@@@>@@@@@@oscSSk<grdz>g=X1g<v5         ",
"                        so@@@@@@@@@@@@@>@@@@<s@@>@@@o@dnf>zzrdkzdXXz;gN#         ",
"                        1@@@@@@@@@@>>@@@@>@<f>@>d>@>@o@@Xzknegkzndsd@z4&         ",
"                       <sd<>@@@@@@>@@@><>@>s>@>f<@><s@oX1ksgzfzdkkd@zVo          ",
"                      <111>@@@@@@@@><<>>@@@@@>d>>@<ssf@:gd1X<><dfdX1So&          ",
"                     d<<:p>><@@>@@>gvzgd1@@<@<><>>ssfg;ssg>@>>11s1Xg&&           ",
"                    d<<>@al11><@@@<dgfs<@<f@>><s>>sfff>sdkd111111@XzX            ",
"                   g><s>@>@ag1>@@@@@>@@>sk<><1sfs<<1d>d<gkzddd11>@1kX            ",
"                  f<111>>@@oa1@@@@<dgzbvk<><dfgkd1>@<>k>kzzzkg1<@>kd>g           ",
"                 d11d11>@@@+l>>>@@@<1ssssssfgkkzkfdd<>d<k1dzgd1>@s>>>1           ",
"                d1sg1<<<>@>@@@@@@@@>@@@@><1dfggggds1s>11>XX1g1>@>>@<>>           ",
"              1dss><@<11><>@@>@@>@@>>>>>><<<<<<<dg1<d<<X8>@XX<@>@@>1@            ",
"    aapkk   1dds<<Vg%@1<<1>@@@@@@@@@@@@@@@@@@><<dg11s>;>V<>@X@@@>>1@             ",
"     @>sddd1dfd<>vkdeX<<soX@ X@@@+*@>@@;-@@@@@><gg1s1>XZ0@<>X@@@<<X@             ",
"      @;<dfkdk1s@sde@@#O@@   .o;+e=+-+-=.+*=;;@1gfss<>1N8<@X@@@>;X>              ",
"    <;;@><<ds<fd@X@@@@       ..rr*-11<1@Xo>s<;>dkfd<<>V888&X><@@X;               ",
"f1<1;;;@@@>1k<d@X@           .>>@>;@>>@%&w4f1<1gkf1<>;N884X>s>XXX                ",
">;@@X@<;@@@@1><X            @><>@@e-=;>4O4%ddsdgd1<<>@&8&X>s>XXX                 ",
"   ><><>;@@@><            @@><<1<<>,d,>>X#@<dfdds<<>@1dXX@s>XX@@                 ",
"dfsfs<11><<>@>           @><<<11dsdd11s<<@ssdfdds1>@@d1X@d>XXX>                  ",
"ad<@>@@<<1s<X          @><<<11ddddkkkffdd11sgdsss1>@@z<1>>@XXX@                  ",
",>   @<1@@sj           <<<<dddfkkkzzkkggksddfss1<<<1zk>>>XX@@XX                  ",
"      gj@ @p          1111dgkkkkkzzkkkkkgfddss1<<<1kkgg11>><>XX                  ",
"      <p< @X         dsddfgkzzkkkkfgkkzzkgs1<<<<<gdggddfs1d1d>X                  ",
"      @:            s1dgkzvzzkkkfffgkzvzkfs<<<>>dzg>dsdd1sddd1X                  ",
"                   1sdgkzvzzkkffsdfkzvzkgd1<<@@@d<>dgdgs1sgsdkX                  ",
"                   >sfkzvkkkfds1sgzzbvkgd1<>@@@>XXdks1g<1sg<@gX                  ",
"                 <>>dzzvzkffs1<1dkzbbzgds<>@@>><@1zd><g>>g<X@@                   ",
"                d<odgzvzffs1<<<sgzvvzgd1<>@@><<@@1d>@sg>>dX@@                    ",
"               ddqodkzzff1<<<<1dgzzkd1<<>@@@><d@d>>X@<sX<@ <X                    ",
"               <qo>dgkgd1<><<sdfgkgd<<<>@@@@><d@k>@X@<>XX>>@                     ",
"               qNo>sds1<>@><1sdddd1<>>>@@@@@@><dg>@X>@@XX<                       ",
"              NAGo><<<<@@><11ss1<>>>>@@@@@@@@@>1d@Xd<@@X@1>                      ",
"              qNAo@@>@@@@><<<<<>@>>@@@ @@@@>>@><1@XsX>@X@s<                      ",
"               qo>>>@@>>@@>>>>@@>>@>    #@@>1>>><dfg1>@@>1<                      ",
"                >1<>@>s<@@@@@@@>@@,     @@@><s><<1dgd<>>><s                      ",
"                >><@>d1@><@@@@@@@:       @@><1d>><1gd>>>>>1#@@@@                 ",
"                 >>@<<<<d1>@>><<<>        @@><1f1<<1s>@>@@<@@@>>>>               ",
"                 >>>1s11>@@>><111<         #@@:1d1>>11@@@@>@@><1s1><             ",
"                  >@>>1dks>@<sfgf1<          @@><s>>@@@@@#@@><dgkf1<s<<><>@      ",
"                   >@><1sg1><dkzgs1           @<@>1>@;>@@@@><1sdgd1<1sfkf11>1    ",
"                    >@>>11<1><fkzfs<            ><>>><@@>@@@><1sd1<><1s1gds<<1   ",
"                     >@>><1<1<1dkk<1<              <1>@@@>>>>><11<>@>>@>1d>@<<1  ",
"                       >@>>1<1><dd<<s>>            @<>@@@@@@@@@@>>>><<>@@@@1>><  ",
"                          @@<<<>>>><d<<<<              @>@><1sds1<>@@@@@@<>@<11> ",
"                           @@><<<s<dss1s<<               @@>>@@@@@@@@@>@@@><>s1< ",
"                            @@><@>dk<<sks><>                     %>@@@@@@@>@<f@> ",
"                             #><1ds<@<dfd<@<<                    8<@###oo@@@<s<> ",
"                             @><>@>@#@1><>s1<3                   43><>>@#>@@g<ds ",
"                             ><>@@>@><@>@<f@><h                  4h<<>%>>>>>g4ds1",
"                             >@@s1>4@@@@@<s<<@>                  3h>>>%>%@<<4x<# ",
"                             @&<1s5N>@@#<k>f<#                   j>@>%%%>#%05<>  ",
"                            @qN8sjCw44>@<<<fs                    j%%%%%%%%%5s<&  ",
"                           @8DSw555444&#@<b1                    zh%&%%%%##&8<,y  ",
"                           <GLC5&%%%4%%%%@1kd                NER#OO#&%444&581  - ",
"                          &qLH4&%Oo%O&&%%1<#                 8bTh854%%OoO#%#e  , ",
"                          .S(N4%@O.X#####@>                  &32%&&44&580853e  Ye",
"                         .0/D04>@>o##o##s<                  &%X#<#%#Ooo48qMy@ Yi ",
"                         8JKB5&@ru<O5&##>x#                 8mCk>@#OOX%456zP-e   ",
"                        #H/D8&@ti>%&%&&<<<                 5jbj4<%%#X.+++XXo     ",
"                        0^Lcs>@u-#O5&&<hg@                 0hjh4&%%#Oo>ssdPUe    ",
"                       @S/wx&>uy>%&&&&&< @                 4hj<4&%%#Oo%&857<$    ",
"                       sLLq8>@e<&&54ssb                     ..OOOOO#Oo&488BIO    ",
"                      <k~KB8>@>>&&44g@                                           ",
"                      <D(HVw4%%%&4&<d@                                           ",
"                      s^)GCVBw8540>>v                                            ",
"                     4m((KDSDSAVNzs<d                                            ",
"                     %H)_^SVBNw85ds@                                             ",
"                    .8G)[')(LSN5&<>1                                             ",
"                   O%#4NHKHHGN5#O@.@                                             ",
"                   5DH~^//~~LH!Rv1O.                                             ",
"                   8CD~_[}}{'_/QFv1O                                             ",
"                   BBSJ^_[[`(/LGN5>@                                             ",
"                   8qVS~_[[`(^HZq4>@                                             ",
"                   58wSL_[['(^JV8&>@                                             ",
"                   8wBSL_{['_~GC8&@.                                             ",
"                   #8wZH_{[``~Zq4#.                                              ",
"                     #48SGGDSw&#.                                                "
};
