/* XPM */
static char *_ff16f4a9f964b33d183581cce9780e4s0KbuqW2qVVioXkC[] = {
/* columns rows colors chars-per-pixel */
"25 25 179 2 ",
"   c black",
".  c #A1342E",
"X  c #A2342E",
"o  c #8B302D",
"O  c #A5352E",
"+  c #A9352E",
"@  c #AC362F",
"#  c #B1372F",
"$  c #B33730",
"%  c #B83830",
"&  c #BC3830",
"*  c #A5342E",
"=  c #BF3931",
"-  c #C93B31",
";  c #C33A31",
":  c #A4342E",
">  c #AA362F",
",  c #C73A32",
"<  c #CA3B32",
"1  c #C73B32",
"2  c #CE3C32",
"3  c #A6352E",
"4  c #AD362F",
"5  c #D13C33",
"6  c #D63D33",
"7  c #D53D33",
"8  c #D93D34",
"9  c #B9362F",
"0  c #B43730",
"q  c #DD3E34",
"w  c #E23F35",
"e  c #E13F34",
"r  c #E53F35",
"t  c #AF362F",
"y  c #B53730",
"u  c #C93A32",
"i  c #E84035",
"p  c #FE423A",
"a  c #EC4036",
"s  c #EA4036",
"d  c #B0362F",
"f  c #DE3E34",
"g  c #D23C33",
"h  c #D33F34",
"j  c #CD3B32",
"k  c #DC4036",
"l  c #CF3C33",
"z  c #9E342E",
"x  c #C63A32",
"c  c #C93B32",
"v  c #CB3B32",
"b  c #A3342E",
"n  c #C23A31",
"m  c #C53A31",
"M  c #B83730",
"N  c #BA3830",
"B  c #BE3931",
"V  c #BD3930",
"C  c #B2372F",
"Z  c #A8352E",
"A  c #AB362F",
"S  c #98322E",
"D  c #A7352E",
"F  c #A1342E",
"G  c #A2342E",
"H  c #A2342E",
"J  c #A5352E",
"K  c #A9352E",
"L  c #AD362F",
"P  c #88312D",
"I  c #A7352E",
"U  c #AB362F",
"Y  c #B0362F",
"T  c #B43730",
"R  c #B5382F",
"E  c #AA362F",
"W  c #AD362F",
"Q  c #B63830",
"!  c #BB3830",
"~  c #C03931",
"^  c #AC362F",
"/  c #AF362F",
"(  c #C23A31",
")  c #C73A32",
"_  c #CB3B32",
"`  c #B2372F",
"'  c None",
"]  c #CD3B32",
"[  c #D23C33",
"{  c #D63D33",
"}  c #B53730",
"|  c #B83830",
" . c #D43C33",
".. c #D93D34",
"X. c #DE3E34",
"o. c #B53830",
"O. c #BB3830",
"+. c #E03E34",
"@. c #E53F35",
"#. c #EA4035",
"$. c #EC4036",
"%. c #AF362F",
"&. c #DC3E34",
"*. c #DF3F35",
"=. c #9F342E",
"-. c #A2342E",
";. c #C63A32",
":. c #C93B32",
">. c #CC3B32",
",. c #DA3E35",
"<. c #A2342E",
"1. c #A4342E",
"2. c #BF3931",
"3. c #C33A31",
"4. c #C73A32",
"5. c #A3342E",
"6. c #B83830",
"7. c #BC3931",
"8. c #C03931",
"9. c #C43A31",
"0. c #A2342E",
"q. c #A4342E",
"w. c #B63730",
"e. c #B93830",
"r. c #BD3931",
"t. c #A3342E",
"y. c #A6352E",
"u. c #AF362F",
"i. c #B3372F",
"p. c #B63730",
"a. c #922D2E",
"s. c #A5352E",
"d. c #A8352E",
"f. c #AC362F",
"g. c #AF362F",
"h. c #B4382F",
"j. c #A4342E",
"k. c #A6352E",
"l. c #A8352E",
"z. c #AC362F",
"x. c #A4342E",
"c. c #A5352E",
"v. c #B2372F",
"b. c #B43730",
"n. c #B83830",
"m. c #BD3931",
"M. c #B63730",
"N. c #BA3830",
"B. c #BF3931",
"V. c #C43A31",
"C. c #BC3931",
"Z. c #C13931",
"A. c #C63A32",
"S. c #CB3B32",
"D. c #CF3C33",
"F. c #C83B32",
"G. c #CD3B32",
"H. c #D23C33",
"J. c #D73D33",
"K. c #DB3E34",
"L. c #B73830",
"P. c #BC3830",
"I. c #C03931",
"U. c #C53A31",
"Y. c #CA3B32",
"T. c #CE3C32",
"R. c #D33C33",
"E. c #D83D34",
"W. c #A6352E",
"Q. c #AA362F",
"!. c #AF362F",
"~. c #C23931",
"^. c #A8352E",
"/. c #AD362F",
"(. c #B63830",
"). c #BB3830",
"_. c #AB362F",
"`. c #B1372F",
"'. c white",
/* pixels */
"                                                  ",
"                                                  ",
"                                                  ",
"        . . X o O                                 ",
"        . F G + @ @ #                             ",
"        X H J K L $ % % &                         ",
"        * P I U Y T R = - ;                       ",
"        : > E W v.Q ! ~ , < 1 2                   ",
"        3 4 ^ / b.n.m.( ) _ 5 6 7 8               ",
"          9 0 ` M.N.B.V.' ] [ { q w e r           ",
"          t y } | C.Z.A.S.D. ...X.u i p a         ",
"            % o.O.B.V.F.G.H.J.K.+.@.#.$.s         ",
"            @ d %.v.L.P.I.U.Y.T.R.E.&.*.f         ",
"            . =.-.W.Q.!.b.n.m.~.;.:.>.,.g         ",
"          X X <.1.^./.v.(.).2.3.4.h j k l         ",
"          z * 5.W._.!.b.6.7.8.9.x < c v           ",
"        b b 0.q.^./.`.w.e.r.= ; n m               ",
"        : : t.y.Q.u.i.p.M & N B                   ",
"        b a.s.d.f.g.h.y V %                       ",
"        : j.k.l.z.t C # 0                         ",
"        O x.c.Z A > 4                             ",
"        O O O S D                                 ",
"                                                  ",
"                                                  ",
"                                                  "
};
