/* XPM */
static char *d44413025024481eb2020550efd9742ap5vSAJLp5xg6cnta[] = {
/* columns rows colors chars-per-pixel */
"50 50 81 1 ",
"  c black",
". c #010002",
"X c #010002",
"o c #010002",
"O c #010002",
"+ c #010002",
"@ c #010002",
"# c #010002",
"$ c #010002",
"% c #010002",
"& c #010002",
"* c #010002",
"= c #010002",
"- c #010002",
"; c #010002",
": c #010002",
"> c #010002",
", c #010002",
"< c #010002",
"1 c #010002",
"2 c #010002",
"3 c #010002",
"4 c #010002",
"5 c #010002",
"6 c #010002",
"7 c #010002",
"8 c #010002",
"9 c None",
"0 c #010002",
"q c #010002",
"w c #010002",
"e c #010002",
"r c #010002",
"t c #010002",
"y c #010002",
"u c #010002",
"i c #010002",
"p c #010002",
"a c #010002",
"s c #010002",
"d c #010002",
"f c #010002",
"g c #010002",
"h c #010002",
"j c #010002",
"k c #010002",
"l c #010002",
"z c #010002",
"x c #010002",
"c c #010002",
"v c #010002",
"b c #010002",
"n c #010002",
"m c #010002",
"M c #010002",
"N c #010002",
"B c #010002",
"V c #010002",
"C c #010002",
"Z c #010002",
"A c #010002",
"S c #010002",
"D c #010002",
"F c #010002",
"G c #010002",
"H c #010002",
"J c #010002",
"K c #010002",
"L c #010002",
"P c #010002",
"I c #010002",
"U c #010002",
"Y c #010002",
"T c #010002",
"R c #010002",
"E c #010002",
"W c #010002",
"Q c #010002",
"! c #010002",
"~ c #010002",
"^ c white",
/* pixels */
"            .....XoO+@#$%%$#@+OoX.....            ",
"          ....&*=-;%~~~~~~~~~~%;-=*&....          ",
"         ...&:>,~~~~~~~~~~~~~~~~~~,>:&...         ",
"       ....<12~~~~~~~34#55#43~~~~~~~21<....       ",
"      ...678~~~~~90qwertyytrewq09~~~~~876...      ",
"     ...uip~~~~asdf6..........6fdsa~~~~piu...     ",
"    ...gh~~~~%jkl.....      .....lkj%~~~~hg...    ",
"   ...gz~~~~xcX....            ....Xcx~~~~zg...   ",
"   ..uh~~~~v:....                ....:v~~~~hu..   ",
"  ..6i~~~~bf...                    ...fn~~~~i6..  ",
" ...7p~~~bg...                      ...gn~~~p7... ",
" ..<8~~~vf...    .......   .......   ...fv~~~8<.. ",
"..&1~~~x:...    ..mMNB... ..mMNB...   ...:x~~~1&..",
"..:2~~%c...     ..VCZAS.. ..VCZAS..    ...c%~~2:..",
".&>~~~jX..      .gD~~~FG. .gD~~~FG.     ..Xj~~~>&.",
".*,~~ak..       .S2~~~Hl. .S2~~~HJ.      ..ka~~,*.",
".=~~~sl..       .K2~~~LJ. .K2~~~LJ.      ..ls~~~=.",
"X-~~9d..        .K2~~~LJ. .K2~~~HJ.       ..d9~~-X",
"o;~~0f..        .K2~~~LJ. .K2~~~HJ.       ..f0~~;o",
"O%~~q6.         .K2~~~LJ. .K2~~~HJ.        .6q~~%O",
"+~~~w..         .K2~~~LJ. .K2~~~HJ.        ..w~~~+",
"@~~3e..         .K2~~~LJ. .K2~~~HJ.        ..e3~~@",
"#~~4r.          .K2~~~LJ. .K2~~~HJ.         .r4~~#",
"$~~#t.          .K2~~~LJ. .K2~~~HJ.         .t#~~$",
"%~~5y.          .K2~~~LJ. .K2~~~HJ.         .y5~~%",
"%~~5y.          .K2~~~LJ. .K2~~~HJ.         .y5~~%",
"$~~#t.          .K2~~~LJ. .K2~~~HJ.         .t#~~$",
"#~~4r.          .K2~~~LJ. .K2~~~HJ.         .r4~~#",
"@~~3e..         .K2~~~LJ. .K2~~~HJ.        ..e3~~@",
"+~~~w..         .K2~~~LJ. .K2~~~HJ.        ..w~~~+",
"O%~~q6.         .K2~~~LJ. .K2~~~HJ.        .6q~~%O",
"o;~~0f..        .K2~~~LJ. .K2~~~HJ.       ..f0~~;o",
"X-~~9d..        .K2~~~LJ. .K2~~~HJ.       ..d9~~-X",
".=~~~sl..       .K2~~~LJ. .K2~~~LJ.      ..ls~~~=.",
".*,~~ak..       .PI~~~UY. .PI~~~UY.      ..ka~~,*.",
".&>~~~TX..      .JR~~~w.. .JR~~~w..     ..Xj~~~>&.",
"..:2~~%c...     ..EWRQ!.. ..EWRQ!..    ...c%~~2:..",
"..&1~~~x:...    ...m6.... ...m6...    ...:x~~~1&..",
" ..<8~~~vf...    ......    ......    ...fv~~~8<.. ",
" ...7p~~~ng...                      ...gn~~~p7... ",
"  ..6i~~~~nf...                    ...fn~~~~i6..  ",
"   ..uh~~~~v:....                ....:v~~~~hu..   ",
"   ...gz~~~~xcX....            ....Xcx~~~~zg...   ",
"    ...gh~~~~%Tkl.....      .....lkT%~~~~hg...    ",
"     ...uip~~~~asdf6..........6fdsa~~~~piu...     ",
"      ...678~~~~~90qwertyytrewq09~~~~~876...      ",
"       ....<12~~~~~~~34#55#43~~~~~~~21<....       ",
"         ...&:>,~~~~~~~~~~~~~~~~~~,>:&...         ",
"          ....&*=-;%~~~~~~~~~~%;-=*&....          ",
"            .....XoO+@#$%%$#@+OoX.....            "
};
